<svg xmlns="http://www.w3.org/2000/svg" width="93" height="93" viewBox="0 0 93 93">
  <path fill="#2B2B2B" d="M38.4401869,26.7012733 C34.7693904,26.7012733 29.0871985,22.5276279 23.1032974,22.6784826 C15.2085706,22.7790523 7.96754735,27.254407 3.89447177,34.3445756 C-4.30196427,48.5751977 1.78250666,69.5942791 9.77780317,81.1598023 C13.7000241,86.7917093 18.3262334,93.1276047 24.4609892,92.9264651 C30.3443206,92.6750407 32.5568555,89.104814 39.697309,89.104814 C46.7874776,89.104814 48.7988729,92.9264651 55.0341985,92.7756105 C61.3700939,92.6750407 65.3928846,87.0431337 69.2648206,81.3609419 C73.7401753,74.823907 75.600716,68.4880116 75.7012857,68.1360174 C75.5504311,68.0857326 63.3814892,63.4092384 63.2306346,49.3294709 C63.1300648,37.5628081 72.8350474,31.9309012 73.2876113,31.6794767 C67.7562741,23.5836105 59.2581287,22.6784826 56.2913206,22.477343 C48.5474485,21.8739244 42.0606985,26.7012733 38.4401869,26.7012733 Z M51.5142567,14.8340407 C54.7827741,10.9118198 56.9450241,5.43076744 56.3416055,0 C51.6651113,0.201139535 46.0332043,3.11766279 42.6641171,7.03988372 C39.6470241,10.5095407 37.0322101,16.0911628 37.7361985,21.4213605 C42.9155415,21.8236395 48.2457392,18.7562616 51.5142567,14.8340407 Z" transform="translate(8)"/>
</svg>
