<svg xmlns="http://www.w3.org/2000/svg" width="93" height="93" viewBox="0 0 93 93">
  <g fill="none" fill-rule="evenodd" transform="translate(0 37)">
    <path fill="#000" fill-rule="nonzero" d="M25.4170192,12.6861538 C24.5811458,12.7348943 23.7633144,12.4298302 23.1635577,11.8455769 C22.5994439,11.2138274 22.3089392,10.3841203 22.3557692,9.53846154 C22.3557692,8.53096154 22.6061538,7.73509615 23.1099038,7.15384615 C23.6375619,6.56279363 24.4052823,6.24364129 25.1964423,6.28644231 C25.9144227,6.24849167 26.6149689,6.51593359 27.125,7.02269231 C27.6225093,7.58488552 27.8775248,8.32100165 27.8344231,9.07048077 L27.8344231,9.77990385 L23.7030769,9.77990385 C23.6862253,10.2854898 23.8595961,10.7790117 24.1889423,11.1629808 C24.5312361,11.4996677 25.0003836,11.6751917 25.4796154,11.6458654 C25.8222426,11.6490476 26.1641583,11.6140562 26.4990385,11.5415385 C26.8477204,11.4623327 27.1873286,11.3474652 27.5125,11.19875 L27.5125,12.2658654 C27.200046,12.4162504 26.8694019,12.5254631 26.5288462,12.5907692 C26.1619798,12.6568444 25.7897791,12.6887758 25.4170192,12.6861538 Z M25.1785577,7.27605769 C24.8024531,7.25860091 24.4368495,7.40288956 24.1740385,7.6725 C23.8982948,7.9964745 23.7397358,8.40389778 23.7239423,8.82903846 L26.5288462,8.82903846 C26.5535969,8.41057023 26.4230451,7.99768703 26.1622115,7.66951923 C25.9077731,7.40063696 25.5482423,7.25682463 25.1785577,7.27605769 Z"/>
    <polygon fill="#000" points="30.627 12.573 29.313 12.573 29.313 3.875 30.627 3.875"/>
    <path fill="#000" fill-rule="nonzero" d="M36.3653846,12.5728846 L36.1030769,11.7144231 L36.0673077,11.7144231 C35.8339434,12.0368419 35.5274931,12.2993677 35.1730769,12.4804808 C34.8044297,12.6302954 34.4082483,12.7003891 34.0105769,12.6861538 C33.4901453,12.7173975 32.9786417,12.5404623 32.58875,12.1943269 C32.2309533,11.8222802 32.0450576,11.3175515 32.0760577,10.8023077 C32.0443855,10.2298138 32.3146497,9.6825004 32.7884615,9.35961538 C33.2594231,9.03570513 33.9797756,8.85884615 34.9495192,8.82903846 L36.0166346,8.79625 L36.0166346,8.46538462 C36.0433563,8.14267408 35.9439978,7.8221625 35.7394231,7.57115385 C35.5093079,7.35518631 35.198439,7.24686962 34.8839423,7.27307692 C34.5746312,7.27117971 34.2669095,7.31743853 33.9718269,7.41019231 C33.6831359,7.50651239 33.4004534,7.61998352 33.1252885,7.75 L32.6990385,6.81105769 C33.0481779,6.6315411 33.4188,6.49731581 33.8019231,6.41163462 C34.171053,6.3231713 34.5490809,6.27716791 34.9286538,6.27451923 C35.7235256,6.27451923 36.3196795,6.44641026 36.7171154,6.79019231 C37.1145513,7.13397436 37.3132692,7.67150641 37.3132692,8.40278846 L37.3132692,12.5758654 L36.3653846,12.5728846 Z M34.41,11.6786538 C34.8299342,11.6999233 35.2416164,11.5566365 35.5575962,11.2792308 C35.8588347,10.9867649 36.0177208,10.5775788 35.9927885,10.1584615 L35.9927885,9.62192308 L35.1969231,9.65769231 C34.7286098,9.63845623 34.263328,9.74116745 33.8466346,9.95576923 C33.5648618,10.1421568 33.4044901,10.4651748 33.4263462,10.8023077 C33.4111212,11.0403723 33.5003582,11.2732593 33.6707692,11.4401923 C33.8794301,11.6122376 34.1461838,11.6975988 34.4159615,11.6786538 L34.41,11.6786538 Z"/>
    <path fill="#000" d="M43.2956731 10.8142308C43.3218521 11.3609602 43.0694258 11.8837632 42.625 12.2032692 42.0617552 12.5595078 41.4002902 12.7285256 40.7351923 12.6861538 40.0543849 12.7147829 39.376127 12.5862709 38.7529808 12.3105769L38.7529808 11.1778846C39.3845132 11.4892717 40.0760207 11.6601148 40.7799038 11.6786538 41.5906731 11.6786538 41.9930769 11.4342308 41.9930769 10.9483654 41.9970213 10.805366 41.9494134 10.6657161 41.8589423 10.5549038 41.7366404 10.4236477 41.592399 10.3147102 41.4326923 10.2329808 41.1557473 10.0881277 40.8700316 9.96070056 40.5772115 9.85144231 40.0424208 9.68139521 39.549716 9.39999469 39.1315385 9.02576923 38.8741569 8.72901772 38.7398134 8.34517918 38.7559615 7.95269231 38.7365691 7.45701357 38.9801939 6.98789425 39.3968269 6.71865385 39.9187625 6.40096496 40.5244484 6.24824484 41.1346154 6.28048077 41.845944 6.27709771 42.549591 6.42758868 43.1973077 6.72163462L42.7710577 7.71125C42.2417429 7.46856805 41.6713701 7.32799745 41.0899038 7.29692308 40.3953846 7.29692308 40.0496154 7.49663462 40.0496154 7.89307692 40.0523003 8.09201019 40.1540456 8.27649346 40.3208654 8.38490385 40.696642 8.61311052 41.0965096 8.79904894 41.5131731 8.93932692 41.9033255 9.07574249 42.2764086 9.25678283 42.625 9.47884615 42.8388692 9.62375054 43.014719 9.81800323 43.1376923 10.0451923 43.25232 10.2848058 43.3065583 10.5488337 43.2956731 10.8142308zM47.0186538 11.625C47.3454879 11.6240974 47.6702301 11.5728223 47.9814423 11.4729808L47.9814423 12.4625962C47.8000296 12.535798 47.6111001 12.5887783 47.4180769 12.6205769 47.1832802 12.6653647 46.9447004 12.687326 46.7056731 12.6861538 45.4636859 12.6861538 44.8416987 12.0303846 44.8397115 10.7188462L44.8397115 7.38634615 43.9961538 7.38634615 43.9961538 6.79019231 44.8903846 6.31028846 45.3375 5.00173077 46.1482692 5.00173077 46.1482692 6.37884615 47.9099038 6.37884615 47.9099038 7.37144231 46.1482692 7.37144231 46.1482692 10.6800962C46.126965 10.9374813 46.2133045 11.1921828 46.3867308 11.3835577 46.5563847 11.5456604 46.7841313 11.6326768 47.0186538 11.625z"/>
    <path fill="#000" fill-rule="nonzero" d="M49.1379808,4.76923077 C49.1246994,4.56991736 49.1936416,4.37386317 49.32875,4.22673077 C49.4801624,4.09309449 49.6786895,4.02548797 49.8801923,4.03894231 C50.0800325,4.01710613 50.2790195,4.08688289 50.4214582,4.22874252 C50.5638968,4.37060216 50.6344835,4.56930327 50.6134615,4.76923077 C50.6293899,4.96712888 50.5568184,5.16191396 50.4152848,5.30114619 C50.2737512,5.44037843 50.0778027,5.50974713 49.8801923,5.49057692 C49.6775185,5.50484815 49.4779565,5.43473175 49.32875,5.29682692 C49.1956741,5.15445697 49.126731,4.96378629 49.1379808,4.76923077 Z M50.53,12.5877885 L49.2154808,12.5877885 L49.2154808,6.39375 L50.53,6.39375 L50.53,12.5877885 Z"/>
    <path fill="#000" d="M54.8998077 12.6861538C53.9638462 12.6861538 53.2544231 12.4119231 52.7655769 11.8664423 52.2767308 11.3209615 52.0382692 10.5370192 52.0382692 9.51759615 52.0382692 8.49817308 52.2916346 7.67846154 52.8013462 7.13298077 53.3110577 6.5875 54.0443269 6.29538462 55.0041346 6.29538462 55.6108822 6.28623174 56.2122435 6.41037063 56.7657692 6.65903846L56.3693269 7.71423077C55.9340018 7.5262689 55.4687056 7.41726242 54.9951923 7.39230769 53.9260897 7.39230769 53.3915385 8.10173077 53.3915385 9.52057692 53.3515042 10.0707809 53.4917128 10.6190592 53.7909615 11.0825 54.0711129 11.437763 54.5078951 11.6327551 54.9594231 11.6041346 55.5477246 11.6043239 56.1256296 11.4490505 56.6346154 11.1540385L56.6346154 12.2986538C56.4018831 12.4377478 56.1482423 12.5383989 55.8834615 12.5967308 55.5598467 12.6625094 55.2299791 12.6924974 54.8998077 12.6861538zM62.2265385 10.8142308C62.2543387 11.3585264 62.0068493 11.8803819 61.5677885 12.2032692 61.0043805 12.5591292 60.3430402 12.7281151 59.6779808 12.6861538 58.9962615 12.7140699 58.3171953 12.5855979 57.6927885 12.3105769L57.6927885 11.1778846C58.3254888 11.4889772 59.0178998 11.6597923 59.7226923 11.6786538 60.5294872 11.6786538 60.9338782 11.4352244 60.9358654 10.9483654 60.9398098 10.805366 60.8922019 10.6657161 60.8017308 10.5549038 60.6743633 10.4229371 60.5251073 10.3140206 60.3605769 10.2329808 60.0833703 10.0886689 59.7976884 9.9612567 59.5050962 9.85144231 58.9699755 9.68214818 58.4771197 9.40066147 58.0594231 9.02576923 57.8020416 8.72901772 57.6676981 8.34517918 57.6838462 7.95269231 57.6650142 7.45787018 57.9071491 6.98944089 58.3217308 6.71865385 58.8446632 6.40072682 59.4513686 6.24801159 60.0625 6.28048077 60.7738969 6.27643599 61.477684 6.42695694 62.1251923 6.72163462L61.7019231 7.71125C61.171685 7.46820428 60.6002668 7.32762529 60.0177885 7.29692308 59.32625 7.29692308 58.9804808 7.49663462 58.9804808 7.89307692 58.982504 8.09144268 59.0830665 8.27580732 59.24875 8.38490385 59.6247656 8.61266269 60.0245826 8.79857759 60.4410577 8.93932692 60.8314377 9.07646297 61.2045512 9.25851837 61.5528846 9.48182692 61.7676115 9.62663273 61.9444538 9.82085262 62.0685577 10.0481731 62.1813646 10.2873369 62.2355223 10.5499505 62.2265385 10.8142308z"/>
    <path fill="#000" fill-rule="nonzero" d="M66.3459615 12.6861538C65.5080593 12.7366006 64.6877244 12.4314101 64.0865385 11.8455769 63.5213462 11.2142955 63.2297509 10.3845353 63.2757692 9.53846154 63.2757692 8.53096154 63.5291346 7.73509615 64.0328846 7.15384615 64.5595017 6.56133098 65.3279604 6.24187173 66.1194231 6.28644231 66.8402144 6.24910035 67.5431016 6.51877511 68.0539423 7.02865385 68.5514516 7.59084706 68.8064671 8.32696319 68.7633654 9.07644231L68.7633654 9.78586538 64.6290385 9.78586538C64.6133471 10.2912726 64.7865748 10.7843871 65.1149038 11.1689423 65.4574041 11.5053052 65.9264021 11.6807732 66.4055769 11.6518269 66.7491964 11.6551565 67.0921158 11.6201647 67.4279808 11.5475 67.7765381 11.4678528 68.116102 11.3530003 68.4414423 11.2047115L68.4414423 12.2718269C68.1325895 12.420821 67.806068 12.5299954 67.4697115 12.5967308 67.0987401 12.661546 66.7225148 12.6914843 66.3459615 12.6861538zM66.1045192 7.27605769C65.7293066 7.25869194 65.3646555 7.40303302 65.1029808 7.6725 64.8262164 7.99586429 64.6675134 8.40365751 64.6528846 8.82903846L67.4577885 8.82903846C67.480017 8.41040242 67.3485768 7.9980617 67.0881731 7.66951923 66.8337346 7.40063696 66.4742038 7.25682463 66.1045192 7.27605769zM74.1078846 12.5728846L73.8455769 11.7144231 73.8008654 11.7144231C73.5675011 12.0368419 73.2610508 12.2993677 72.9066346 12.4804808 72.5379874 12.6302954 72.141806 12.7003891 71.7441346 12.6861538 71.223703 12.7173975 70.7121994 12.5404623 70.3223077 12.1943269 69.964511 11.8222802 69.7786153 11.3175515 69.8096154 10.8023077 69.7779431 10.2298138 70.0482074 9.6825004 70.5220192 9.35961538 70.9929808 9.03570513 71.7133333 8.85884615 72.6830769 8.82903846L73.7501923 8.79625 73.7501923 8.46538462C73.776914 8.14267408 73.6775555 7.8221625 73.4729808 7.57115385 73.2428656 7.35518631 72.9319967 7.24686962 72.6175 7.27307692 72.3081889 7.27117971 72.0004672 7.31743853 71.7053846 7.41019231 71.4177053 7.50662332 71.1360213 7.62009322 70.8618269 7.75L70.4355769 6.81105769C70.7847164 6.6315411 71.1553385 6.49731581 71.5384615 6.41163462 71.9075915 6.3231713 72.2856193 6.27716791 72.6651923 6.27451923 73.4600641 6.27451923 74.0562179 6.44641026 74.4536538 6.79019231 74.8510897 7.13397436 75.0498077 7.67150641 75.0498077 8.40278846L75.0498077 12.5758654 74.1078846 12.5728846zM72.1525 11.6786538C72.5724342 11.6999233 72.9841164 11.5566365 73.3000962 11.2792308 73.6013347 10.9867649 73.7602208 10.5775788 73.7352885 10.1584615L73.7352885 9.62192308 72.9394231 9.65769231C72.4711098 9.63845623 72.005828 9.74116745 71.5891346 9.95576923 71.3073618 10.1421568 71.1469901 10.4651748 71.1688462 10.8023077 71.1536212 11.0403723 71.2428582 11.2732593 71.4132692 11.4401923 71.6203964 11.61078 71.884733 11.6960498 72.1525 11.6786538z"/>
    <path fill="#000" d="M80.0157692 6.28048077C80.2347725 6.27571795 80.4536469 6.29470705 80.6685577 6.33711538L80.5403846 7.55923077C80.3499239 7.51438053 80.1548006 7.49236662 79.9591346 7.49365385 79.4832456 7.47708209 79.0227216 7.66345887 78.6923077 8.00634615 78.3578832 8.36972091 78.1819702 8.85133638 78.2034615 9.34471154L78.2034615 12.5728846 76.8889423 12.5728846 76.8889423 6.39375 77.9173077 6.39375 78.0961538 7.48173077 78.1647115 7.48173077C78.3551497 7.12762147 78.6307024 6.82645977 78.9665385 6.60538462 79.2764796 6.39575531 79.6415994 6.28269263 80.0157692 6.28048077zM84.3080769 12.6861538C83.3721154 12.6861538 82.6616987 12.4129167 82.1768269 11.8664423 81.6919551 11.3199679 81.4485256 10.5370192 81.4465385 9.51759615 81.4465385 8.4763141 81.7008974 7.68144231 82.2096154 7.13298077 82.7193269 6.57557692 83.4525962 6.29538462 84.4153846 6.29538462 85.021139 6.28657181 85.6214566 6.41070529 86.1740385 6.65903846L85.7775962 7.71423077C85.342271 7.5262689 84.8769749 7.41726242 84.4034615 7.39230769 83.3323718 7.39230769 82.7978205 8.10173077 82.7998077 9.52057692 82.7597735 10.0707809 82.899982 10.6190592 83.1992308 11.0825 83.480321 11.4382455 83.9182135 11.6332358 84.3706731 11.6041346 84.9525197 11.6058324 85.5247605 11.4558375 86.0309615 11.1689423L86.0309615 12.3135577C85.7971711 12.4526673 85.5425478 12.5533089 85.2768269 12.6116346 84.9575759 12.6715908 84.6327418 12.696578 84.3080769 12.6861538zM92.9195192 12.5728846L91.6020192 12.5728846 91.6020192 8.77240385C91.6285154 8.39298597 91.5232267 8.01605256 91.3039423 7.70528846 91.0710442 7.45272956 90.7339947 7.3227562 90.3918269 7.35355769 89.9306789 7.31477407 89.4787536 7.49864562 89.1756731 7.84836538 88.9153526 8.17823718 88.7861859 8.73067308 88.7881731 9.50567308L88.7881731 12.5728846 87.4736538 12.5728846 87.4736538 3.875 88.7881731 3.875 88.7881731 6.08076923C88.7862041 6.46029902 88.7633168 6.83943179 88.7196154 7.21644231L88.8269231 7.21644231C89.005577 6.91955281 89.2650902 6.67968403 89.5750962 6.52490385 89.921177 6.35336445 90.3037484 6.26846226 90.6899038 6.2775 92.18625 6.2775 92.9344231 7.03163462 92.9344231 8.53990385L92.9195192 12.5728846z"/>
    <path fill="#343741" d="M-2.49373172e-15,9.83653846 C0.00329653199,10.6414318 0.108459205,11.4426713 0.312980769,12.2211538 L11.9230769,12.2211538 C13.2400636,12.2211538 14.3076923,11.1535252 14.3076923,9.83653846 C14.3076923,8.51955175 13.2400636,7.45192308 11.9230769,7.45192308 L0.324903846,7.45192308 C0.116357761,8.22988931 0.00718774115,9.03113716 -2.49373172e-15,9.83653846 Z"/>
    <path fill="#FEC514" d="M16.0633654,4.86461538 C16.3973085,4.5590206 16.7072306,4.22817133 16.9903846,3.875 C14.9516142,1.32170289 11.7453062,-0.00686185581 8.49813351,0.356153541 C5.25096079,0.719168938 2.41719339,2.72297968 0.992596154,5.66346154 L14.0275,5.66346154 C14.7824333,5.66267195 15.5093479,5.37744046 16.0633654,4.86461538 Z"/>
    <path fill="#00BFB3" d="M14.0275,14.0096154 L0.992596154,14.0096154 C2.41719339,16.9500972 5.25096079,18.953908 8.49813351,19.3169234 C11.7453062,19.6799388 14.9516142,18.351374 16.9903846,15.7980769 C16.7072306,15.4449056 16.3973085,15.1140563 16.0633654,14.8084615 C15.5093479,14.2956365 14.7824333,14.010405 14.0275,14.0096154 Z"/>
  </g>
</svg>
