<svg xmlns="http://www.w3.org/2000/svg" width="93" height="93" viewBox="0 0 93 93">
  <g fill="none" fill-rule="evenodd" transform="translate(0 14)">
    <polygon points=".263 .281 92.851 .281 92.851 64.549 .263 64.549"/>
    <path fill="#5D87A1" fill-rule="nonzero" d="M28.6042812,52.1857836 L26.0976406,52.1857836 C26.009,47.9486567 25.764875,43.9652239 25.36575,40.2325746 L25.3434687,40.2325746 L21.5270781,52.1857836 L19.6186406,52.1857836 L15.8250156,40.2325746 L15.8032188,40.2325746 C15.5217969,43.816306 15.3445156,47.800709 15.2708906,52.1857836 L12.9860938,52.1857836 C13.1333437,46.8533582 13.5034063,41.8541791 14.0948281,37.1877612 L17.2016094,37.1877612 L20.8174687,48.2081716 L20.83975,48.2081716 L24.4778906,37.1877612 L27.4505,37.1877612 C28.1015,42.6535821 28.4860937,47.6532463 28.6042812,52.1857836 Z M39.4751094,41.1202612 C38.4545313,46.6666045 37.1079687,50.6966045 35.436875,53.2122015 C34.134875,55.1486194 32.7083906,56.1177985 31.155,56.1177985 C30.7408594,56.1177985 30.2298438,55.9926493 29.624375,55.744291 L29.624375,54.4069403 C29.9203281,54.4496269 30.267625,54.4738806 30.66675,54.4738806 C31.3923437,54.4738806 31.9755312,54.2740299 32.4201875,53.8733582 C32.9520312,53.3853731 33.2179531,52.8367537 33.2179531,52.2299254 C33.2179531,51.8137313 33.0106406,50.9629104 32.5969844,49.6745522 L29.8462187,41.1197761 L32.3087813,41.1197761 L34.2830937,47.5179104 C34.7267813,48.970709 34.9118125,49.985 34.8377031,50.5627239 C35.917375,47.6750746 36.6715469,44.5264552 37.1011875,41.119291 L39.4751094,41.119291 L39.4751094,41.1202612 Z"/>
    <path fill="#F8981D" fill-rule="nonzero" d="M72.8412813,52.1857836 L65.7209687,52.1857836 L65.7209687,37.1877612 L68.1162031,37.1877612 L68.1162031,50.3395896 L72.8412813,50.3395896 L72.8412813,52.1857836 Z M63.8570938,52.5481343 L61.1039063,51.1875 C61.3480313,50.9866791 61.5815,50.7693657 61.7917188,50.5176119 C62.9619687,49.1409701 63.5456406,47.1051119 63.5456406,44.4085821 C63.5456406,39.4467537 61.6013594,36.9646269 57.7113437,36.9646269 C55.803875,36.9646269 54.315875,37.5942537 53.2517031,38.8539925 C52.0824219,40.2316045 51.49875,42.2601866 51.49875,44.9421642 C51.49875,47.5785448 52.0160625,49.5125373 53.0511719,50.739291 C53.998125,51.850597 55.4255781,52.4069776 57.3345,52.4069776 C58.0465312,52.4069776 58.6999531,52.3196642 59.29525,52.1435821 L62.879625,54.2332836 L63.8570938,52.5481343 Z M54.9382969,49.1846269 C54.3318594,48.2076866 54.0286406,46.6389552 54.0286406,44.4760075 C54.0286406,40.6997015 55.1741875,38.8093657 57.4677031,38.8093657 C58.6665312,38.8093657 59.5451875,39.2614552 60.1070625,40.163694 C60.7125312,41.1420896 61.0172031,42.6967537 61.0172031,44.8296269 C61.0172031,48.6369776 59.8706875,50.5408955 57.578625,50.5408955 C56.3793125,50.5413806 55.5006562,50.0907463 54.9382969,49.1846269 Z M50.4549219,48.028694 C50.4549219,49.3005597 49.9889531,50.3439552 49.0579844,51.161306 C48.1260469,51.9752612 46.8763594,52.383209 45.310375,52.383209 C43.845625,52.383209 42.4254375,51.9146269 41.0507812,50.9823134 L41.6945156,49.6944403 C42.8773594,50.2876866 43.9483125,50.5826119 44.9097969,50.5826119 C45.8121875,50.5826119 46.5174375,50.3822761 47.0289375,49.985 C47.5399531,49.5862687 47.844625,49.0269776 47.844625,48.3197388 C47.844625,47.4286567 47.2241406,46.6670896 46.0858594,46.0292164 C45.0362187,45.4519776 42.9369375,44.2451119 42.9369375,44.2451119 C41.7991406,43.4146642 41.2295156,42.523097 41.2295156,41.054291 C41.2295156,39.838694 41.6543125,38.8573881 42.5043906,38.1108582 C43.3554375,37.3614179 44.4535156,36.9879104 45.7995937,36.9879104 C47.18975,36.9879104 48.4534844,37.3609328 49.5917656,38.0992164 L49.0143906,39.3875746 C48.0407969,38.9733209 47.0797969,38.766194 46.131875,38.766194 C45.3641406,38.766194 44.7712656,38.9510075 44.3590625,39.3220896 C43.9434688,39.6917164 43.6872344,40.1646642 43.6872344,40.7448134 C43.6872344,41.6315299 44.3207969,42.4027985 45.4900781,43.0532836 C46.5537656,43.6314925 48.7053594,44.8592164 48.7053594,44.8592164 C49.8722188,45.688209 50.4549219,46.5715299 50.4549219,48.028694 Z"/>
    <path fill="#5D87A1" fill-rule="nonzero" d="M75.8482813,32.1643284 C74.4,32.1274627 73.2786719,32.2734701 72.3375313,32.6722015 C72.0657969,32.7808582 71.6337344,32.7808582 71.5959531,33.1247761 C71.7427188,33.2702985 71.7596719,33.5050746 71.8870625,33.7058955 C72.1040625,34.0682463 72.4823594,34.5557463 72.8277188,34.8099254 C73.2069844,35.1009701 73.5877031,35.3891045 73.9868281,35.6427985 C74.690625,36.0788806 75.4883906,36.3325746 76.1742656,36.7672015 C76.573875,37.0199254 76.9710625,37.3468657 77.3711563,37.6189925 C77.5678125,37.7640299 77.69375,37.999291 77.9490156,38.09 L77.9490156,38.0347015 C77.8211406,37.8717164 77.7848125,37.6359701 77.6593594,37.4545522 L77.1158906,36.9297015 C76.5908281,36.2234328 75.938375,35.606903 75.2345781,35.1004851 C74.6552656,34.7007836 73.3881406,34.1575 73.1532188,33.4890672 L73.1164063,33.4522015 C73.5145625,33.4148507 73.9868281,33.2702985 74.365125,33.1592164 C74.9807656,32.9967164 75.5421563,33.0335821 76.1737813,32.8710821 C76.4644063,32.7983209 76.7526094,32.7071269 77.0442031,32.6173881 L77.0442031,32.4539179 C76.7167656,32.1274627 76.4832969,31.693806 76.1389063,31.3852985 C75.217625,30.5883209 74.202375,29.808806 73.1532188,29.1563806 C72.5913438,28.7930597 71.8686563,28.5592537 71.2704531,28.2502612 C71.0549063,28.1411194 70.691625,28.0872761 70.5647188,27.9058582 C70.2401875,27.5071269 70.0575781,26.9822761 69.8221719,26.5102985 C69.2990469,25.5144403 68.7909375,24.4094403 68.3395,23.3563433 C68.0130313,22.6500746 67.8144375,21.9447761 67.4162813,21.2913806 C65.5514375,18.2111567 63.5262656,16.3455597 60.4136719,14.514403 C59.74475,14.1331343 58.9489219,13.9706343 58.0988438,13.7707836 L56.7411406,13.6989925 C56.4514844,13.571903 56.1613438,13.2270149 55.9085,13.0640299 C54.8758125,12.4120896 52.2170781,10.9990672 51.4575781,12.8646642 C50.9683594,14.0438806 52.1812344,15.203209 52.5977969,15.801306 C52.905375,16.2165299 53.3040156,16.6889925 53.5190781,17.1604851 C53.6464688,17.4685075 53.6823125,17.7954478 53.8097031,18.1209328 C54.0993594,18.9183955 54.370125,19.805597 54.7508438,20.5497015 C54.9494375,20.9290299 55.1659531,21.3277612 55.4197656,21.671194 C55.5650781,21.8720149 55.8179219,21.9607836 55.8731406,22.288209 C55.6207813,22.6491045 55.6009219,23.1938433 55.4560938,23.646903 C54.8050938,25.694403 55.0593906,28.2308582 55.982125,29.7355597 C56.2708125,30.1886194 56.9595938,31.1859328 57.880875,30.803694 C58.6965625,30.4777239 58.5158906,29.445 58.7503281,28.5393657 C58.8040938,28.320597 58.7687344,28.1770149 58.8772344,28.0334328 L58.8772344,28.0688433 C59.1295938,28.5757463 59.384375,29.0642164 59.6183281,29.5725746 C60.1797188,30.4597761 61.1571875,31.3843284 61.9714219,31.9989179 C62.4049375,32.3268284 62.7483594,32.8875746 63.2913438,33.0879104 L63.2913438,33.0335821 L63.2555,33.0335821 C63.1455469,32.8710821 62.9847344,32.7983209 62.8403906,32.6722015 C62.5139219,32.3457463 62.1525781,31.9470149 61.89925,31.5851493 C61.1407188,30.5698881 60.469375,29.4459701 59.8735938,28.2861567 C59.582,27.7234701 59.3306094,27.1083955 59.0956875,26.5466791 C58.9862188,26.3298507 58.9862188,26.0029104 58.8045781,25.8937687 C58.5323594,26.2920149 58.1356563,26.636903 57.9370625,27.1248881 C57.5926719,27.9053731 57.5568281,28.8653358 57.4289531,29.8636194 L57.35775,29.8985448 C56.7813438,29.7535075 56.5808125,29.1563806 56.361875,28.6494776 C55.8198594,27.3620896 55.7287969,25.2956716 56.199125,23.8103731 C56.3250625,23.4305597 56.8699844,22.2343657 56.6525,21.8725 C56.5435156,21.5256716 56.1812031,21.3282463 55.9826094,21.0551493 C55.7491406,20.7117164 55.4933906,20.2770896 55.3306406,19.8958209 C54.8966406,18.8815299 54.6781875,17.7576119 54.2107656,16.743806 C53.9923125,16.2713433 53.6130469,15.7823881 53.3059531,15.3472761 C52.9610781,14.8583209 52.5818125,14.5139179 52.3091094,13.9342537 C52.2190156,13.7348881 52.0925938,13.4089179 52.2374219,13.1920896 C52.2727813,13.0465672 52.3464063,12.9922388 52.49075,12.9558582 C52.7251875,12.7574627 53.3950781,13.0097015 53.63,13.1188433 C54.3008594,13.3904851 54.8617656,13.6441791 55.4217031,14.0244776 C55.6750313,14.2063806 55.9467656,14.5507836 56.2717813,14.6414925 L56.6525,14.6414925 C57.2303594,14.7676119 57.8818438,14.6764179 58.4257969,14.8403731 C59.384375,15.1488806 60.2528594,15.6014552 61.0317344,16.0899254 C63.4017813,17.5951119 65.3562344,19.733806 66.6756719,22.288209 C66.8921875,22.704403 66.9842188,23.0856716 67.1818438,23.5198134 C67.5630469,24.4084701 68.0343438,25.3145896 68.4126406,26.1843284 C68.792875,27.0356343 69.1551875,27.9048881 69.6981719,28.6121269 C69.9689375,28.9924254 71.0568438,29.191791 71.5446094,29.3911567 C71.9054688,29.5536567 72.4673438,29.698209 72.7928438,29.8975746 C73.4084844,30.2773881 74.0217031,30.7134701 74.6005313,31.1311194 C74.8887344,31.3484328 75.7945156,31.8014925 75.8482813,32.1643284 M57.3906875,16.4168657 C57.1408733,16.4142653 56.8918223,16.4449319 56.6500781,16.5080597 L56.6500781,16.5444403 L56.6849531,16.5444403 C56.83075,16.8340299 57.0840781,17.0348507 57.26475,17.2875746 C57.4105469,17.5781343 57.5369688,17.8662687 57.6798594,18.1563433 L57.7147344,18.1204478 C57.97,17.9395149 58.0969063,17.6494403 58.0969063,17.2143284 C57.9869531,17.0862687 57.97,16.9611194 57.8784531,16.8340299 C57.7718906,16.6526119 57.5369688,16.5623881 57.3906875,16.4168657"/>
    <path fill="#F8981D" fill-rule="nonzero" d="M77.5716875,52.1833582 L77.9465938,52.1833582 L77.9465938,50.3458955 L77.3842344,50.3458955 L76.9255313,51.5998134 L76.4271094,50.3458955 L75.8855781,50.3458955 L75.8855781,52.1833582 L76.2396562,52.1833582 L76.2396562,50.7853731 L76.2595156,50.7853731 L76.7816719,52.1833582 L77.0514687,52.1833582 L77.5716875,50.7853731 L77.5716875,52.1833582 Z M74.5516094,52.1833582 L74.9483125,52.1833582 L74.9483125,50.6573134 L75.4675625,50.6573134 L75.4675625,50.3454104 L74.0105625,50.3454104 L74.0105625,50.6573134 L74.5506406,50.6573134 L74.5516094,52.1833582 Z"/>
  </g>
</svg>
