<svg xmlns="http://www.w3.org/2000/svg" width="93" height="93" viewBox="0 0 93 93">
  <g fill-rule="evenodd" transform="translate(0 23)">
    <path fill-rule="nonzero" d="M7.34215625,9.80665625 L21.1022813,9.80665625 C25.141,9.8405625 28.0675938,11.005 29.8820625,13.2980313 C31.6965313,15.5910625 32.2952188,18.7230312 31.6790938,22.6939375 C31.4398125,24.5084063 30.9089375,26.288 30.0874375,28.0336875 C29.2998438,29.779375 28.2051563,31.3535938 26.8014375,32.7573125 C25.0896563,34.5369063 23.2587188,35.6664687 21.3076563,36.146 C19.3565938,36.6255312 17.33675,36.8648125 15.2490938,36.8648125 L9.08784375,36.8648125 L7.13678125,46.620125 L0,46.620125 L7.34215625,9.80665625 M13.349375,15.6598437 L10.26875,31.0629688 C10.474125,31.096875 10.6795,31.1143125 10.884875,31.1143125 C11.1241563,31.1143125 11.3644063,31.1143125 11.6036875,31.1143125 C14.8896875,31.1482187 17.6283438,30.8236875 19.8186875,30.1387812 C22.0090313,29.4199687 23.4815313,26.9215625 24.23425,22.6425937 C24.850375,19.0485312 24.23425,16.9773437 22.385875,16.43 C20.5714063,15.8826562 18.2958125,15.6259375 15.5571563,15.6598437 C15.1464063,15.69375 14.7530938,15.7111875 14.37625,15.7111875 C14.0342813,15.7111875 13.674875,15.7111875 13.2980313,15.7111875 L13.349375,15.6598437"/>
    <path d="M39.8088437,0 L46.8942812,0 L44.891875,9.80665625 L51.2585,9.80665625 C54.749875,9.8754375 57.3509688,10.59425 59.06275,11.9630937 C60.8084375,13.3319375 61.321875,15.934 60.6030625,19.7673437 L57.1630313,36.8648125 L49.9749062,36.8648125 L53.2609063,20.5375 C53.602875,18.8257188 53.5001875,17.6109062 52.9528437,16.8920938 C52.4055,16.1732813 51.2245937,15.813875 49.410125,15.813875 L43.7109687,15.7625313 L39.5007813,36.8648125 L32.4153437,36.8648125 L39.8088437,0"/>
    <path fill-rule="nonzero" d="M68.211625,9.80665625 L81.97175,9.80665625 C86.0104688,9.8405625 88.9370625,11.005 90.7515312,13.2980313 C92.566,15.5910625 93.1646875,18.7230312 92.5485625,22.6939375 C92.3092812,24.5084063 91.7784063,26.288 90.9569063,28.0336875 C90.1693125,29.779375 89.074625,31.3535938 87.6709063,32.7573125 C85.959125,34.5369063 84.1281875,35.6664687 82.177125,36.146 C80.2260625,36.6255312 78.2062188,36.8648125 76.1185625,36.8648125 L69.9573125,36.8648125 L68.00625,46.620125 L60.8694688,46.620125 L68.211625,9.80665625 M74.2188437,15.6598437 L71.1382187,31.0629688 C71.3435937,31.096875 71.5489688,31.1143125 71.7543437,31.1143125 C71.993625,31.1143125 72.233875,31.1143125 72.4731562,31.1143125 C75.7591562,31.1482187 78.4978125,30.8236875 80.6881562,30.1387812 C82.8785,29.4199687 84.351,26.9215625 85.1037187,22.6425937 C85.7198437,19.0485312 85.1037187,16.9773437 83.2553438,16.43 C81.440875,15.8826562 79.1652813,15.6259375 76.426625,15.6598437 C76.015875,15.69375 75.6225625,15.7111875 75.2457187,15.7111875 C74.90375,15.7111875 74.5443437,15.7111875 74.1675,15.7111875 L74.2188437,15.6598437"/>
  </g>
</svg>
