<svg xmlns="http://www.w3.org/2000/svg" width="93" height="93" viewBox="0 0 93 93">
  <path fill="#CF649A" d="M80.0561404,39.9918129 C76.8111111,40.0099415 74.0011696,40.7894737 71.6444444,41.9497076 C70.774269,40.2274854 69.9040936,38.722807 69.7590643,37.5988304 C69.5959064,36.2935673 69.3964912,35.4959064 69.5959064,33.9368421 C69.7953216,32.3777778 70.7017544,30.1660819 70.7017544,29.9847953 C70.6836257,29.8216374 70.5023392,29.0239766 68.6350877,29.005848 C66.7678363,28.9877193 65.154386,29.3684211 64.9730994,29.8578947 C64.7918129,30.3473684 64.4292398,31.471345 64.1935673,32.6315789 C63.8672515,34.3356725 60.4590643,40.3725146 58.5192982,43.5450292 C57.8847953,42.3122807 57.3409357,41.2245614 57.2321637,40.354386 C57.0690058,39.0491228 56.8695906,38.251462 57.0690058,36.6923977 C57.2684211,35.1333333 58.1748538,32.9216374 58.1748538,32.7403509 C58.1567251,32.577193 57.9754386,31.7795322 56.1081871,31.7614035 C54.2409357,31.7432749 52.6274854,32.1239766 52.4461988,32.6134503 C52.2649123,33.102924 52.0654971,34.2631579 51.6666667,35.3871345 C51.2859649,36.5111111 46.7538012,46.5906433 45.5754386,49.2192982 C44.977193,50.5608187 44.451462,51.6304094 44.0707602,52.3555556 C43.6900585,53.0807018 44.0526316,52.4099415 44.0163743,52.4824561 C43.6900585,53.0988304 43.5087719,53.4432749 43.5087719,53.4432749 L43.5087719,53.4614035 C43.2549708,53.9146199 42.9830409,54.3497076 42.8561404,54.3497076 C42.7654971,54.3497076 42.5842105,53.1350877 42.8923977,51.4672515 C43.5631579,47.9684211 45.1947368,42.5116959 45.1766082,42.3122807 C45.1766082,42.2216374 45.4847953,41.2608187 44.1251462,40.771345 C42.8017544,40.2818713 42.3304094,41.0976608 42.2216374,41.0976608 C42.1128655,41.0976608 42.0222222,41.3877193 42.0222222,41.3877193 C42.0222222,41.3877193 43.4906433,35.2421053 39.2122807,35.2421053 C36.5292398,35.2421053 32.8309942,38.1608187 31,40.825731 C29.8397661,41.4602339 27.374269,42.8017544 24.7637427,44.2339181 C23.7666667,44.7777778 22.7333333,45.3578947 21.754386,45.8836257 L21.5549708,45.6660819 C16.3701754,40.1368421 6.78011696,36.2210526 7.17894737,28.7883041 C7.32397661,26.0871345 8.26666667,18.9625731 25.5976608,10.3333333 C39.7923977,3.26315789 51.1590643,5.20292398 53.1350877,9.51754386 C55.9450292,15.6812865 47.0619883,27.1385965 32.3052632,28.7883041 C26.6853801,29.422807 23.7304094,27.2473684 22.9871345,26.4315789 C22.2076023,25.5795322 22.0988304,25.5432749 21.8087719,25.7064327 C21.3374269,25.9602339 21.6274854,26.7216374 21.8087719,27.1748538 C22.2438596,28.3169591 24.0567251,30.3473684 27.1385965,31.3625731 C29.8397661,32.2508772 36.4385965,32.7403509 44.4152047,29.6584795 C53.3526316,26.1959064 60.3321637,16.5877193 58.2836257,8.55672515 C56.1988304,0.380701754 42.6385965,-2.30233918 29.8216374,2.24795322 C22.1894737,4.96725146 13.922807,9.20935673 7.97660819,14.7748538 C0.906432749,21.3736842 -0.21754386,27.1385965 0.25380117,29.5315789 C1.90350877,38.0701754 13.6690058,43.6356725 18.3824561,47.7508772 C18.1467836,47.8777778 17.9292398,48.0046784 17.7298246,48.1134503 C15.3730994,49.2736842 6.3994152,53.9690058 4.15146199,58.9362573 C1.61345029,64.5561404 4.5502924,68.5988304 6.50818713,69.1426901 C12.5631579,70.828655 18.7631579,67.8011696 22.1169591,62.8157895 C25.4526316,57.8304094 25.0538012,51.3584795 23.5128655,48.4035088 L23.4584795,48.2947368 L25.3076023,47.2070175 C26.5040936,46.5 27.6824561,45.8473684 28.7157895,45.2853801 C28.1356725,46.8625731 27.7187135,48.7298246 27.5011696,51.4491228 C27.2473684,54.6397661 28.5526316,58.7730994 30.2748538,60.4046784 C31.0362573,61.1116959 31.9426901,61.1298246 32.5046784,61.1298246 C34.4988304,61.1298246 35.4052632,59.480117 36.4023392,57.5040936 C37.6350877,55.0929825 38.722807,52.3011696 38.722807,52.3011696 C38.722807,52.3011696 37.3631579,59.8608187 41.0795322,59.8608187 C42.4391813,59.8608187 43.7988304,58.1023392 44.4152047,57.1959064 L44.4152047,57.2140351 C44.4152047,57.2140351 44.451462,57.1596491 44.5239766,57.0327485 C44.6690058,56.8152047 44.7415205,56.6883041 44.7415205,56.6883041 L44.7415205,56.6520468 C45.2853801,55.7093567 46.5,53.5520468 48.3128655,49.9807018 C50.651462,45.3760234 52.8994152,39.6111111 52.8994152,39.6111111 C52.8994152,39.6111111 53.1169591,41.0251462 53.7877193,43.345614 C54.1865497,44.7233918 55.0567251,46.2280702 55.7274854,47.6964912 C55.1836257,48.4578947 54.8573099,48.8929825 54.8573099,48.8929825 L54.8754386,48.9111111 C54.4403509,49.4912281 53.9508772,50.1076023 53.4432749,50.7239766 C51.594152,52.9356725 49.3824561,55.4555556 49.0923977,56.1807018 C48.7479532,57.0327485 48.8204678,57.6672515 49.4912281,58.1748538 C49.9807018,58.5374269 50.8508772,58.6099415 51.7754386,58.5374269 C53.4432749,58.428655 54.6035088,58.0116959 55.1836257,57.7578947 C56.0900585,57.4315789 57.1233918,56.9421053 58.1204678,56.2169591 C59.9333333,54.8754386 61.0391813,52.9719298 60.9304094,50.4339181 C60.8760234,49.0380117 60.422807,47.6602339 59.8608187,46.3549708 C60.0239766,46.1192982 60.1871345,45.8836257 60.3502924,45.6298246 C63.2146199,41.4421053 65.4263158,36.8374269 65.4263158,36.8374269 C65.4263158,36.8374269 65.6438596,38.251462 66.3146199,40.5719298 C66.6590643,41.7502924 67.3479532,43.0374269 67.9643275,44.3064327 C65.2812865,46.5 63.5953216,49.0380117 63.0152047,50.705848 C61.945614,53.7877193 62.7795322,55.1836257 64.3567251,55.5099415 C65.0637427,55.6549708 66.0789474,55.328655 66.8403509,55.0023392 C67.7830409,54.694152 68.9251462,54.1684211 69.9766082,53.3888889 C71.7894737,52.0473684 73.5298246,50.180117 73.4391813,47.6602339 C73.3847953,46.5 73.0766082,45.3578947 72.6596491,44.2701754 C74.9438596,43.3274854 77.8988304,42.7836257 81.651462,43.2368421 C89.7187135,44.1795322 91.3140351,49.2192982 91.005848,51.3222222 C90.6976608,53.4251462 89.0116959,54.5853801 88.4497076,54.9479532 C87.8877193,55.2923977 87.7064327,55.4192982 87.7608187,55.6730994 C87.8333333,56.0538012 88.0871345,56.0356725 88.5766082,55.9631579 C89.2473684,55.854386 92.8187135,54.2409357 92.9637427,50.3614035 C93.1812865,45.3760234 88.4497076,39.9374269 80.0561404,39.9918129 Z M17.8385965,60.9666667 C15.1736842,63.8853801 11.4210526,64.9912281 9.82573099,64.048538 C8.10350877,63.051462 8.77426901,58.7549708 12.0555556,55.6549708 C14.0497076,53.7695906 16.6421053,52.0292398 18.3461988,50.9596491 C18.7269006,50.7239766 19.3070175,50.3795322 19.9959064,49.9625731 C20.1046784,49.8900585 20.177193,49.8538012 20.177193,49.8538012 C20.3040936,49.7812865 20.4491228,49.6906433 20.594152,49.6 C21.8087719,54.0233918 20.648538,57.902924 17.8385965,60.9666667 Z M37.3269006,47.7146199 C36.4023392,49.9807018 34.4444444,55.8 33.2660819,55.4736842 C32.2508772,55.2017544 31.6345029,50.7964912 33.0666667,46.445614 C33.7918129,44.2520468 35.3327485,41.6415205 36.2391813,40.6263158 C37.7076023,38.9947368 39.302924,38.4508772 39.7017544,39.1216374 C40.1730994,39.9918129 37.9070175,46.3005848 37.3269006,47.7146199 Z M53.4070175,55.4011696 C53.0081871,55.6005848 52.645614,55.745614 52.4824561,55.6368421 C52.3555556,55.5643275 52.645614,55.2923977 52.645614,55.2923977 C52.645614,55.2923977 54.6578947,53.1350877 55.4555556,52.1380117 C55.9087719,51.5578947 56.4526316,50.8871345 57.0327485,50.125731 L57.0327485,50.3432749 C57.0327485,52.9538012 54.5309942,54.694152 53.4070175,55.4011696 Z M65.8070175,52.5730994 C65.5169591,52.3555556 65.5532164,51.6847953 66.5321637,49.5818713 C66.9128655,48.7479532 67.7830409,47.3520468 69.2877193,46.028655 C69.4690058,46.5725146 69.5777778,47.0982456 69.5596491,47.5877193 C69.5415205,50.8508772 67.2210526,52.0654971 65.8070175,52.5730994 Z" transform="translate(0 12)"/>
</svg>
