<svg xmlns="http://www.w3.org/2000/svg" width="93" height="93" viewBox="0 0 93 93">
  <g fill="none" fill-rule="evenodd" transform="translate(0 18)">
    <path fill="#FFA64D" d="M25.3371617,33.9326373 C28.4591506,30.7146431 68.3132378,0.321662669 68.993158,1.01156549 C69.5162241,1.54179939 39.8832539,42.4197061 36.7435451,45.6197375 C33.6044927,48.819769 28.511654,48.7845087 25.3719453,45.5665145 C22.2151729,42.3485204 22.2151729,37.1326687 25.3371617,33.9326373 Z" opacity=".5"/>
    <path fill="#FFA64D" d="M26.9837061,31.8530033 C30.7980385,29.6093318 69.5284844,14.1981621 69.9968768,15.0326666 C70.3608921,15.6760531 38.7907187,43.6983846 34.959425,45.9243843 C31.1450925,48.1510384 26.2739414,46.8112497 24.0715836,42.9155867 C21.8692258,39.0539584 23.1693736,34.0973293 26.9837061,31.8530033 Z" opacity=".3"/>
    <path fill="#FFA64D" d="M38.1629841,43.9353376 C40.4056466,40.0330908 55.7917224,0.478107123 54.968116,0.00314302436 C54.3205728,-0.365979492 26.3159761,31.8932116 24.0726542,35.79612 C21.8471365,39.6990283 23.1962948,44.6735827 27.0868295,46.90684 C30.9602195,49.1566352 35.9196622,47.8210467 38.1629841,43.9353376 Z" opacity=".3"/>
    <path fill="#FFA64D" d="M28.906669,31.8606782 C33.1507788,30.681977 68.7401516,26.1936414 68.9991605,27.1266696 C69.1887108,27.8484586 37.2222161,46.5374957 32.9781063,47.716197 C28.7339965,48.8955605 24.3866726,46.2911604 23.2655993,41.9087756 C22.1438768,37.5270529 24.679437,33.0400417 28.906669,31.8606782 Z" opacity=".2"/>
    <path fill="#FFA64D" d="M28.0437731,31.1375887 C32.3787536,29.9778739 61.7522584,36.5048534 61.9989107,37.4059127 C62.1925195,38.1154236 36.5187993,45.5610536 32.1844818,46.7207685 C27.8495012,47.8811349 23.4097597,45.3186863 22.26402,41.0068925 C21.1361825,36.7126899 23.7260317,32.2979551 28.0437731,31.1375887 Z" opacity=".1"/>
    <path fill="#FFA64D" d="M38.8608377,41.966481 C40.0284948,37.626563 33.4909269,8.24602205 32.567297,8.00107447 C31.852271,7.80880378 24.4258405,33.479574 23.275239,37.8194921 C22.1246376,42.1594102 24.6869234,46.6040236 28.993479,47.7240662 C33.281667,48.8783488 37.7102362,46.3063991 38.8608377,41.966481 Z" opacity=".1"/>
    <path fill="#FFA64D" d="M38.1388963,41.9501901 C39.327073,37.6101706 43.7980882,1.24645748 42.8755825,1.0008457 C42.1479912,0.808570522 23.4682525,33.4624264 22.2800759,37.8202247 C21.1092546,42.1602441 23.7165681,46.6049613 28.0988038,47.7250301 C32.4616816,48.8799981 36.9680751,46.2902095 38.1388963,41.9501901 Z" opacity=".2"/>
    <path fill="#333" fill-rule="nonzero" d="M33.4147321,30 C31.5102679,30 29.1792411,30.5005169 27.2747768,32.4155947 C27.2747768,31.9150778 27.4174107,31.2769349 27.4174107,31.0698468 C27.4174107,30.707605 27.1328125,30.9322209 27.04375,30.431704 L23.6801339,30.431704 L19,56.3618571 C19,56.5689452 19.2136161,56.7935611 19.3736607,57 L22.6662946,57 L24.5700893,47.2181722 C26.0292411,48.9261619 27.7200893,49.3403381 29.2508929,49.3403381 C36.7073661,49.3403381 40,41.9734558 40,36.7982015 C39.9993304,32.9673968 38.0948661,30 33.4147321,30 Z M29.3212054,46.0106994 C26.9004464,46.0106994 25.5122768,44.3890505 25.5122768,42.318819 C25.5122768,42.1117309 25.796875,40.4037412 25.9575893,39.4202351 C26.4738839,35.6595417 29.0366071,33.3302878 32.2395089,33.3302878 C35.0158482,33.3302878 35.9767857,35.1765526 35.9767857,37.2980693 C35.9767857,40.3342791 34.1439732,46.0106994 29.3212054,46.0106994 Z"/>
    <path fill="#333" d="M18.155785,22.6519048 C16.8095892,22.2108909 14.893874,22 13.4788423,22 C9.37141905,22 3.05475401,24.0976347 3.05475401,30.4071181 C3.05475401,36.6986957 12.9086735,37.0694127 12.9086735,41.2640189 C12.9086735,44.6654631 9.64741191,45.458625 7.38621857,45.458625 C5.90170163,45.458625 4.05547169,44.8770172 2.63979062,44.1541522 C2.13910708,43.9425982 1.57023708,43.2906934 1.43191594,43.2906934 C1.22475894,43.2906934 0.862396542,43.5022474 0.655239541,43.5022474 L0,47.1848795 C1.20787467,48.2777982 4.74577856,49 6.52317264,49 C9.64741191,49 14.7555529,47.9780414 16.3777416,43.3603272 C16.6537344,42.4259082 16.947261,41.4039496 16.947261,40.6107877 C16.947261,34.2482499 7.09269204,33.6666421 7.09269204,29.6132931 C7.09269204,26.2118488 10.6305959,25.630241 12.7015165,25.630241 C13.9788765,25.630241 14.5483959,25.559944 16.1010993,26.1415518 C16.6017828,26.2828089 17.4472951,27.0759708 17.6544521,27.0759708 C17.7921238,27.0759708 18.1551356,26.8644168 18.2928074,26.705917 C18.5688002,25.6136615 18.9999985,23.3747697 18.9999985,23.2341758 C19.0012973,22.9337558 18.155785,22.6519048 18.155785,22.6519048 Z"/>
    <path fill="#333" fill-rule="nonzero" d="M52.361298,29 C50.0589289,29 48.2643042,29.373932 45.8262393,30.9051767 C45.8262393,31.0479142 45.8262393,31.1899816 45.7587099,31.3508125 C45.6230141,32.2233205 45.3350587,33.7726587 45.3350587,33.9153962 C45.3350587,34.1291674 45.8262393,34.5030993 45.961298,34.5030993 C46.1645232,34.5030993 47.4170018,33.4697604 48.2636671,33.1139219 C48.7548477,32.8291171 49.4486164,32.5972525 50.0073263,32.5262188 C50.4985069,32.3841514 51.4636671,32.3841514 51.5987259,32.3841514 C52.6486164,32.3841514 53.9692614,32.4551851 54.2400159,34.2893282 L54.2400159,35.8922768 C54.1724866,35.9633104 54.1724866,36.1060479 54.1049572,36.1060479 C50.3462473,37.0495895 45.2668923,35.8922768 42.6262393,41.2352153 C42.2025881,42.1077232 42,43.425867 42,44.3875021 C42,47.8245937 44.7088194,49 47.1468843,49 C48.8230141,49 50.6176389,48.3412632 52.2937687,46.8093483 C52.2937687,47.3260178 52.2262393,47.6818563 52.2262393,47.8420171 C52.2262393,48.0557882 52.4294645,48.3586865 52.6498905,48.5724577 L55.7823611,48.5724577 C55.9855863,46.0795778 58,35.6248953 58,34.3074217 C57.9821621,30.3181437 55.561298,29 52.361298,29 Z M53.5296835,39.5967499 C53.1060323,43.3367398 50.6851682,45.5273915 48.179574,45.5273915 C46.9264583,45.5273915 45.8772049,45.0107221 45.8772049,43.550511 C45.8772049,39.5257162 50.3978499,40.0423857 52.4122636,39.59742 C52.6830181,39.5263863 53.1741987,39.5263863 53.5296835,39.4546825 L53.5296835,39.5967499 Z"/>
    <path fill="#333" d="M71.977522 30C70.448035 30 68.7657272 30.7830462 67.5086321 32.2790834 67.5764104 31.7742936 67.7126064 31.0613025 67.7126064 30.8524466 67.7126064 30.7136458 67.4408539 30.4871123 67.2873936 30.3476568L64.0755988 30.3476568 61 48.3564094C61.0677783 48.5652653 61.2717525 48.7917988 61.4252127 49L64.5692293 49C65.0622203 46.0766713 65.3678619 43.0839421 66.0302986 40.2830462 66.5060253 38.2645417 67.9165806 33.4968642 71.0605971 33.4968642 71.1961537 33.4968642 71.8931189 33.5662646 72.3176922 33.7057202 72.4538882 33.7057202 72.5216664 33.9839766 72.7429049 33.9839766 72.8784615 33.9839766 73.3036742 33.7751206 73.4392307 33.6186423 73.643205 32.6967953 74 30.7653687 74 30.6088904 74 30.0694004 72.2665388 30 71.977522 30zM93 31.2124979C92.930365 31.0054098 92.8607299 30.711981 92.7208029 30.5048929L88.9151825 30.5048929 80.8138686 37.7335 80.7442336 37.6646871 83.3982482 22.6381429C83.3286131 22.4310548 83.1190511 22.2064389 82.9613869 22L79.7312409 22 75 48.4306701C75.1392701 48.6377582 75.3665693 48.8617249 75.5064964 49L78.7366423 49 80.1681022 41.2020629 86.0516058 49 90.2067153 49C90.3459854 48.7929119 90.4859124 48.4994831 90.5732847 48.292395L83.6248905 39.5109519 93 31.2124979z"/>
  </g>
</svg>
