<svg xmlns="http://www.w3.org/2000/svg" width="93" height="93" viewBox="0 0 93 93">
  <g fill="none" fill-rule="evenodd">
    <polyline fill="#019833" points="46.605 0 .989 45.899 46.605 92.011 92.011 45.899 46.605 0"/>
    <polyline fill="#66FE98" points="46.5 4.859 46.5 .989 .989 46.5 4.889 46.5 46.5 4.859"/>
    <polyline fill="#45FE02" points="45.511 4.859 45.511 .989 91.021 46.5 86.814 46.5 45.511 4.859"/>
    <polyline fill="#017D17" points="46.5 87.691 46.5 92.011 .989 45.511 4.889 45.511 46.5 87.691"/>
    <polyline fill="#005D04" points="45.511 87.691 45.511 92.011 91.021 45.511 86.814 45.511 45.511 87.691"/>
    <polyline fill="#000" points="23.157 83.106 14.397 83.106 10.976 79.768 10.976 16.028 8.261 16.028 5.936 13.698 5.936 6.573 8.344 3.957 38.98 3.957 41.734 6.719 41.734 13.481 39.445 16.274 37.131 16.274 37.131 37.821 58.912 16.274 57.696 16.274 55.163 13.539 55.163 6.368 57.652 4.08 88.574 4.08 91.021 6.534 91.021 13.316 23.157 83.106"/>
    <path fill="#000" fill-rule="nonzero" d="M46.1002051,93 L0,46.4045845 L46.1002051,0 L92.0106383,46.4045845 L46.1002051,93 Z M1.41214765,46.4045845 L46.1002051,91.5734839 L90.5977718,46.4045845 L46.1002051,1.42760453 L1.41214765,46.4045845 Z"/>
    <polyline fill="#FEFEFE" points="39.191 8.277 40.564 7.391 39.161 5.936 9.426 5.936 7.915 7.448 7.915 13.165 9.59 14.84 10.389 13.165 9.338 12.113 9.338 8.083 10.126 7.382 38.2 7.416 39.191 8.277"/>
    <polyline fill="#FEFEFE" points="14.808 12.862 14.808 79.796 15.83 80.692 15.011 82.117 12.862 80.167 12.862 14.597 14.808 12.862"/>
    <polyline fill="gray" points="9.524 12.862 8.904 14.84 12.665 14.84 14.84 12.862 9.524 12.862"/>
    <path fill="#FEFEFE" fill-rule="nonzero" d="M60.1459717,12.9536539 L58.8954488,12.0619537 L58.8954488,8.44841332 L60.2034878,7.12619932 L87.4961423,7.12619932 L88.5426459,8.53641486 L90.0319149,7.35003726 L88.4988758,5.93617021 L59.1569842,5.93617021 L57.6962924,7.41247819 L57.6962924,13.2077995 L59.2343958,14.6129029 M35.4990578,42.4776226 L32.6489362,49.4680851 L64.8246712,16.8567596 L64.6673158,12.9116615 L35.4990578,42.4776226"/>
    <polyline fill="gray" points="39.094 7.778 40.564 6.926 40.564 12.511 38.886 14.138 35.625 14.138 35.565 41.61 32.649 48.479 32.649 12.511 38.094 12.511 39.107 11.713 39.094 7.778"/>
    <polyline fill="gray" points="87.472 7.708 89.043 6.926 89.043 12.034 22.159 81.128 14.84 81.128 15.555 79.77 21.176 79.77 87.482 10.826 87.472 7.708"/>
    <path fill="gray" d="M64.3085106,12.8617021 L62.5109408,13.8319519 L58.3723404,13.8510638 L59.3829794,12.8763546 C59.4165752,12.8763546 64.3085106,12.8617021 64.3085106,12.8617021"/>
    <polyline fill="#CCC" points="59.952 6.926 58.922 7.97 58.922 11.803 59.824 12.718 64.592 12.718 64.592 16.422 33.054 48.821 33.054 12.764 38.295 12.764 39.371 11.674 39.371 7.794 38.378 7.017 10.796 7.017 9.894 7.932 9.894 11.895 10.811 12.825 15.609 12.825 15.609 79.224 16.511 80.138 21.963 80.138 88.053 11.018 88.053 7.97 87.023 6.926 59.952 6.926"/>
    <path fill="gray" fill-rule="nonzero" d="M21.2243571,81.1276596 L15.6419292,81.1276596 L14.6786839,80.1505717 L14.6786839,13.0682697 L9.88263012,13.0682697 L8.90425532,12.0758578 L8.90425532,7.99492872 L9.86750061,7.01820567 L37.8034152,7.01820567 L38.8642818,7.84935065 L38.8642818,11.8525652 L37.7263267,13.0066089 L32.4817911,13.0066089 L32.4817911,49.1570369 L64.1716246,16.5796566 L64.1716246,12.9606368 L59.4061901,12.9606368 L58.4429448,11.9835489 L58.4429448,8.03360359 L59.5351511,6.92553191 L86.9606249,6.92553191 L88.0531915,8.03360359 L88.0531915,11.1888897 L88.0286961,11.2147946 L21.2243571,81.1276596 Z M15.7150551,80.9492443 L21.1497903,80.9492443 L87.877401,11.1170128 L87.877401,8.10730477 L86.8878592,7.10394714 L59.6082771,7.10394714 L58.6187353,8.10730477 L58.6187353,11.9098478 L59.4789558,12.7822216 L64.3477753,12.7822216 L64.3477753,16.6529929 L64.3225595,16.6788978 L32.3060007,49.5919469 L32.3060007,12.8285585 L37.6532008,12.8285585 L38.6881311,11.7784991 L38.6881311,7.9369164 L37.7432574,7.19625605 L9.94026634,7.19625605 L9.08004578,8.06899475 L9.08004578,12.0021567 L9.95575607,12.8902194 L14.8544744,12.8902194 L14.8544744,80.0765056 L15.7150551,80.9492443 Z"/>
    <path fill="#CCC" fill-rule="nonzero" d="M48.639821,51.4484229 C48.5898707,51.4588267 48.5438173,51.4825044 48.5052033,51.5165858 L47.2351919,52.6226187 C47.1972864,52.6577765 47.1689458,52.701903 47.1530043,52.7514108 L45.8826386,56.3583051 C45.8443789,56.4662895 45.8705939,56.5868302 45.9499474,56.6689844 L46.9213202,57.6537591 C46.977647,57.7086482 47.0527495,57.7384247 47.1306861,57.7373484 L51.053374,57.7373484 C51.1313105,57.7384247 51.206413,57.7086482 51.2623856,57.6537591 L52.2861884,56.6083553 C52.3216141,56.5724801 52.3471206,56.5279948 52.3609366,56.4795633 L53.4520482,52.6832479 C53.4821601,52.5784922 53.4534653,52.4651265 53.3773,52.3879948 L52.5327513,51.5316534 C52.4767787,51.4767643 52.4013219,51.4469879 52.3237397,51.4484229 L48.6996904,51.4484229 C48.679852,51.4462704 48.6596594,51.4462704 48.639821,51.4484229 Z M41.4519461,61.6165356 C41.3417722,61.640572 41.2549792,61.725955 41.2277014,61.8364507 L40.7420151,63.7912912 C40.7026926,63.9512947 40.7986962,64.1138094 40.9566948,64.1536309 C40.9793673,64.159371 41.002394,64.162241 41.0257749,64.1625997 L43.3348222,64.1625997 L37.6110916,80.7333624 C37.5593701,80.8901371 37.6426205,81.0594681 37.7970765,81.1118459 C37.8261256,81.121891 37.8565917,81.1272723 37.8877663,81.127631 L46.2188285,81.127631 C46.3474238,81.1294248 46.4622031,81.046553 46.5029426,80.9227835 L47.0484985,79.1422965 C47.0959689,78.9844456 47.0084674,78.8172671 46.8525943,78.7688355 C46.8242538,78.7602255 46.7944962,78.7555617 46.7643843,78.7559204 L44.8815083,78.7559204 L50.5453694,62.0108042 C50.597091,61.8540295 50.5138406,61.6846985 50.3593845,61.6323207 C50.3303354,61.6222756 50.2995151,61.6168944 50.2686947,61.6165356 L41.5114613,61.6165356 C41.4916229,61.6147418 41.4717845,61.6147418 41.4519461,61.6165356 Z M67.9627698,61.6771647 C67.8986493,61.6907973 67.8405511,61.7252375 67.7980403,61.7758216 L66.0646607,63.7607973 L63.3074784,63.7607973 L61.4692387,61.8289169 C61.4143289,61.7711578 61.3392264,61.7385113 61.2602271,61.7377938 L54.6774233,61.7377938 C54.5534333,61.7381526 54.4429051,61.8167193 54.4007485,61.9347488 L53.7956775,63.7686899 C53.743956,63.9251058 53.8268522,64.0944368 53.9813082,64.1471734 C54.0107116,64.1568597 54.0411777,64.162241 54.071998,64.1625997 L55.8354894,64.1625997 L50.3508823,80.551475 C50.2991608,80.7082497 50.3824112,80.8775808 50.5368673,80.9303173 C50.5659163,80.9400036 50.5967367,80.9453849 50.6275571,80.9457437 L57.6361778,80.9457437 C57.7601678,80.9453849 57.8703417,80.8668182 57.9128526,80.7487887 L58.4506147,79.1498303 C58.5023362,78.9934144 58.4194401,78.8237246 58.264984,78.7713468 C58.2355807,78.7613017 58.2051146,78.7562792 58.1742942,78.7559204 L56.9489192,78.7559204 L60.4457902,67.5947817 L66.7745918,67.5947817 L62.784595,80.5593676 C62.7367703,80.7172185 62.8242718,80.884397 62.9801449,80.9324698 C63.0088397,80.9414386 63.0385973,80.9457437 63.0683549,80.9457437 L69.8304128,80.9457437 C69.9480261,80.9446674 70.0535947,80.8732757 70.0996481,80.7638563 L70.7047191,79.2936899 C70.7649428,79.1405028 70.6909031,78.966508 70.5396353,78.9058788 C70.5063352,78.892605 70.4712637,78.88543 70.435838,78.8847125 L69.210463,78.8847125 L72.7672034,67.5341526 L78.7895727,67.5341526 L74.7397065,80.5593676 C74.6922361,80.7172185 74.7797375,80.884397 74.9352564,80.9324698 C74.9639512,80.9414386 74.9937088,80.9457437 75.0238206,80.9457437 L82.4508189,80.9457437 C82.5726833,80.9464612 82.6828573,80.8711232 82.7274937,80.7563225 L83.3325646,79.1573641 C83.3885372,79.0023832 83.3098922,78.8308996 83.1568532,78.7742168 C83.1246158,78.7620192 83.0906071,78.7559204 83.0562442,78.7559204 L81.583952,78.7559204 L86.0599894,64.0187401 C86.089747,63.9254646 86.0730969,63.8239377 86.0149987,63.7457297 L84.6252485,61.8515183 C84.5678588,61.7776153 84.4789403,61.7352826 84.386125,61.7377938 L79.0736868,61.7377938 C78.9918534,61.7363588 78.9135626,61.769364 78.8568815,61.8289169 L77.1830171,63.6926344 L74.2540201,63.6926344 L72.5206406,61.7682878 C72.4639594,61.7087349 72.3853144,61.6757297 72.3038353,61.6771647 L68.022285,61.6771647 C68.0024466,61.675371 67.9826082,61.675371 67.9627698,61.6771647 Z"/>
    <path fill="#000" fill-rule="nonzero" d="M45.7775687 59.0737097C45.9612299 59.2597288 46.2014292 59.3615964 46.4451402 59.3615964 46.4504077 59.3615964 46.4556753 59.3615964 46.461294 59.3612273L50.3378439 59.3612273C50.598411 59.3697163 50.8449314 59.2641578 51.0447463 59.062268L52.0571653 57.9885981C52.1744556 57.8653235 52.2604919 57.7114148 52.3050903 57.5475408L53.3863384 53.6426155C53.4864214 53.2812807 53.3916059 52.8915263 53.1387645 52.626892L52.2927994 51.7362885C52.1049242 51.5458403 51.8580527 51.44102 51.6090742 51.4484017L48.0412014 51.4484017C47.9899308 51.4454491 47.9386602 51.4465563 47.8880919 51.4520926L47.8161024 51.4639033C47.6510531 51.5004428 47.4968901 51.5812726 47.3764393 51.6927364L46.1171488 52.8309963 46.1027508 52.8446525C45.980193 52.9620217 45.8878357 53.1103941 45.8344581 53.2753753L44.5779769 56.9776727C44.4519073 57.3471273 44.5396995 57.7664086 44.8051829 58.0506044L45.7775687 59.0737097zM51.450346 52.8911572L52.0034365 53.4732052 51.0145458 57.0444772 50.1907043 57.9184718 46.6200222 57.9188409 45.9538554 57.2175783 47.0976114 53.847827 48.1560335 52.8911572 51.450346 52.8911572zM86.8652468 63.7051256L85.4578261 61.8013419 85.4452695 61.7851165C85.2536909 61.5406533 84.9573541 61.3989513 84.6470256 61.4029175L79.2842615 61.4029175C79.0055039 61.3964273 78.7410969 61.5096448 78.5491596 61.7086767L77.0481022 63.3676367 74.7014445 63.3676367 73.1544657 61.6632455 73.1401153 61.6477412C72.9485367 61.4487093 72.6834121 61.3423426 72.4168525 61.341982L68.1059765 61.341982C68.0539562 61.3390975 68.0012182 61.3401792 67.9495566 61.3455876L67.8770868 61.3567652C67.6614713 61.4018358 67.4637938 61.5197406 67.3285408 61.6787498L65.7822795 63.436144 63.6042396 63.436144 61.9485562 61.7090372C61.7637941 61.5168561 61.5047684 61.4050809 61.2328273 61.4029175L54.5641721 61.4029175C54.1462152 61.4039992 53.7698745 61.6700962 53.6270875 62.0652756L53.008583 63.9239886C52.8331488 64.4493319 53.1154939 65.020467 53.6385679 65.1971439 53.737586 65.2303159 53.8409093 65.2479836 53.9532016 65.2490653L54.761132 65.2490653 49.5196293 80.7930263C49.3452713 81.3176485 49.6276164 81.888423 50.1499729 82.0650999 50.2493498 82.0982719 50.352673 82.1159396 50.4649653 82.1170213L57.5648517 82.1170213C57.9831674 82.1159396 58.3598668 81.849482 58.5066001 81.4416829L59.0526348 79.8313992C59.2273516 79.3064164 58.9450065 78.7356419 58.4222912 78.558965 58.3229143 78.5254324 58.2195911 78.5077647 58.1076576 78.506683L57.8245949 78.506683 60.9210638 68.6989521 65.8640771 68.6989521 62.1056936 80.8179053C61.9446098 81.3479359 62.2423817 81.910778 62.7683258 82.0726718 62.8655501 82.1025987 62.9695908 82.1148579 63.0639451 82.1170213L69.9180799 82.1170213C70.316305 82.1137762 70.6743488 81.8736398 70.831845 81.5008155L71.449632 80.0116817C71.6523321 79.4964342 71.4008404 78.9112371 70.8906818 78.7078784 70.7769545 78.6620866 70.657487 78.6382893 70.5251041 78.6361259L70.2424002 78.6361259 73.3991409 68.6380166 78.0289557 68.6380166 74.2128116 80.8186264C74.0524453 81.3482965 74.3502172 81.9111386 74.8758025 82.0726718 74.9708742 82.1022381 75.0698924 82.1170213 75.1660404 82.1170213L75.1714218 82.1170213 82.6881888 82.1170213C83.1036344 82.1144973 83.4753111 81.8639046 83.6277847 81.4741337L84.2444954 79.8569993C84.4335626 79.3367039 84.1666442 78.7583575 83.6489516 78.5679791 83.5402469 78.5279564 83.4258021 78.5074042 83.3059758 78.506683L82.7642462 78.506683 87.0144915 64.6184369C87.1156622 64.3069087 87.0589779 63.9640113 86.8652468 63.7051256zM80.8656813 79.916132L82.7201186 79.916132 82.4180415 80.7075723 75.7178153 80.7075723 79.9411534 67.2285676 72.3727248 67.2285676 68.3258972 80.0459354 69.9159274 80.0459354 69.641475 80.7075723 63.6089035 80.7075723 67.770176 67.2895031 59.8946476 67.2895031 55.9084507 79.916132 57.5422497 79.916132 57.2738963 80.7075723 51.0292969 80.7075723 56.7170987 63.8396164 54.5153805 63.8396164 54.8569213 62.8123664 61.0588281 62.8123664 63.0079783 64.845593 66.414417 64.845593 68.2566563 62.7514309 72.2439295 62.7510704 74.0822225 64.7770856 77.6684005 64.7770856 79.4460628 62.8123664 84.4579584 62.8123664 85.61891 64.3829879 80.8656813 79.916132zM46.1170852 79.2246129C46.018166 79.1936245 45.9192468 79.1813038 45.8151984 79.1786903L44.8699706 79.1786903 50.4043162 62.7141162C50.5834699 62.1697648 50.2947724 61.5787441 49.7606087 61.3958003 49.6598577 61.3614516 49.5543439 61.3431573 49.4393045 61.3420372L40.4083487 61.3420372C40.354859 61.3390504 40.3013694 61.3401704 40.2482461 61.3457707L40.1702099 61.3584648C39.7869896 61.4424696 39.4894993 61.7355532 39.3946101 62.1223488L38.8919541 64.1586259C38.7560318 64.7149246 39.0894261 65.2805572 39.6371453 65.4205652 39.7148152 65.4399797 39.7950497 65.4504336 39.8804133 65.450807L41.2590537 65.450807 35.6701194 81.7346774C35.4909657 82.2790287 35.7800296 82.8700494 36.3134605 83.0526199 36.4149442 83.0869685 36.520458 83.1052629 36.635131 83.106383L45.2407344 83.106383 45.2557554 83.106383C45.6968618 83.106383 46.0848448 82.8215133 46.2288272 82.3798345L46.7937657 80.5238877C46.9582647 79.9754295 46.6541797 79.3922492 46.1170852 79.2246129zM37.2172888 81.646939L43.2773716 63.991363 40.4101805 63.991363 40.7040071 62.8014812 48.8608104 62.8014812 42.8655747 80.6381343 45.2594191 80.6381343 44.9524033 81.646939 37.2172888 81.646939z"/>
  </g>
</svg>
