<svg xmlns="http://www.w3.org/2000/svg" width="93" height="93" viewBox="0 0 93 93">
  <g fill="none" fill-rule="evenodd" transform="translate(5)">
    <path fill="#A9B9CB" d="M82.6624688,27.342 C82.6618229,25.7781146 82.3276042,24.3963542 81.6520625,23.2106042 C80.9884687,22.0442292 79.9942083,21.0670833 78.6612083,20.2940208 C67.6558854,13.94225 56.6399063,7.60985417 45.6384583,1.251625 C42.6724688,-0.46209375 39.7965729,-0.399770833 36.8525417,1.3388125 C32.4721771,3.92472917 10.5409688,16.5016875 4.00578125,20.2904688 C1.31459375,21.8501563 0.00484375,24.2368333 0.00419791667,27.3390938 C0,40.1130313 0.00419791667,52.8863229 0,65.6605833 C0.000645833333,67.1899167 0.32065625,68.544875 0.966489583,69.7131875 C1.63040625,70.9144375 2.63822917,71.9187083 4.00222917,72.7092083 C10.5377396,76.4979896 32.4718542,89.0739792 36.85125,91.6605417 C39.7965729,93.4000938 42.6724688,93.4620938 45.6394271,91.7477292 C56.6411979,85.3891771 67.6578229,79.0571042 78.6647604,72.7053333 C80.0287604,71.9151563 81.0365833,70.9102396 81.7005,69.7099583 C82.3453646,68.5416458 82.6660208,67.1866875 82.6666667,65.6570313 C82.6666667,65.6570313 82.6666667,40.1162604 82.6624688,27.342"/>
    <path fill="#7F8B99" d="M45.5638646,1.3349375 C42.6027187,-0.374583333 39.7316667,-0.312260417 36.7924792,1.42180208 C32.4192187,4.0009375 10.5238542,16.5452812 3.99932292,20.324375 C1.31233333,21.8798646 0.00484375,24.2604062 0.00419791667,27.3545937 C0,40.0952708 0.00419791667,52.835625 0,65.576625 C0.000645833333,67.1020833 0.320010417,68.4534896 0.964875,69.6185729 C1.62782292,70.8169167 2.63403125,71.8186042 3.99577083,72.6068437 C6.16404698,73.8604094 8.33394115,75.1111744 10.5054479,76.3591354 L70.9205729,15.9440104 C62.4672604,11.0763646 54.0116875,6.21259375 45.5638646,1.3349375"/>
    <path fill="#FFF" d="M49.8764167,40.6771667 L62.7410937,40.7679063 C62.7410937,35.4078125 57.3154479,22.28125 41.7602292,22.28125 C31.8495937,22.28125 18.5260521,28.582 18.5260521,46.6969792 C18.5260521,64.8116354 31.5870625,70.71875 41.7602292,70.71875 C58.2344687,70.71875 62.1717917,59.3191458 62.1717917,52.8769583 L49.8986979,52.1752604 C49.8986979,52.1752604 50.2271042,59.6265625 41.6946771,59.6265625 C33.8187396,59.6265625 32.5044687,49.9784583 32.5044687,46.6969792 C32.5044687,41.7088854 34.27825,33.7015208 41.6946771,33.7015208 C49.1114271,33.7015208 49.8764167,40.6771667 49.8764167,40.6771667"/>
  </g>
</svg>
