<svg xmlns="http://www.w3.org/2000/svg" xmlns:xlink="http://www.w3.org/1999/xlink" width="93" height="93" viewBox="0 0 93 93">
  <defs>
    <rect id="docker-a" width="93" height="78.64"/>
    <polygon id="docker-c" points="0 0 92.856 0 92.856 78.495 0 78.495"/>
    <path id="docker-e" d="M0.0737089783,2.27505826 C3.99756037,5.56028979 10.9883963,11.7601054 22.5129102,8.2201622 C20.4084613,7.6459767 15.4437585,5.72479712 12.1130341,0.242279682 C6.88228793,2.06400316 1.25103715,2.32738835 0.0737089783,2.27505826 Z"/>
    <polygon id="docker-g" points="0 0 92.856 0 92.856 78.495 0 78.495"/>
  </defs>
  <g fill="none" fill-rule="evenodd" transform="translate(0 7)">
    <mask id="docker-b" fill="#fff">
      <use xlink:href="#docker-a"/>
    </mask>
    <g mask="url(#docker-b)">
      <polygon fill="#089CEB" points="37.342 18.412 30.289 18.412 30.289 24.85 37.342 24.85"/>
      <polygon fill="#089CEB" points="29.007 18.412 21.955 18.412 21.955 24.85 29.007 24.85"/>
      <polygon fill="#089CEB" points="45.676 18.412 38.624 18.412 38.624 24.85 45.676 24.85"/>
      <polygon fill="#089CEB" points="54.011 18.412 46.959 18.412 46.959 24.85 54.011 24.85"/>
      <polygon fill="#089CEB" points="62.345 18.412 55.293 18.412 55.293 24.85 62.345 24.85"/>
      <polygon fill="#089CEB" points="37.342 10.687 30.289 10.687 30.289 17.125 37.342 17.125"/>
      <polygon fill="#089CEB" points="45.676 10.687 38.624 10.687 38.624 17.125 45.676 17.125"/>
      <polygon fill="#089CEB" points="54.011 10.687 46.959 10.687 46.959 17.125 54.011 17.125"/>
      <polygon fill="#089CEB" points="54.011 2.962 46.959 2.962 46.959 9.4 54.011 9.4"/>
      <mask id="docker-d" fill="#fff">
        <use xlink:href="#docker-c"/>
      </mask>
      <path fill="#089CEB" d="M83.3504582,20.4000649 C81.9030557,19.4216944 78.1004211,19.0042101 75.3351827,19.7518655 C75.186613,16.9861765 73.7662755,14.6556078 71.1680341,12.6231184 L70.2063622,11.974919 L69.5651517,12.9469289 C68.3054768,14.8672412 67.7745418,17.4256337 67.9625573,19.7518655 C68.110839,21.1847272 68.6072229,22.7959739 69.5651517,23.964583 C68.8312291,24.5373229 66.5497059,25.643772 63.4746594,25.5847923 L17.6348731,25.5847923 C16.8197554,30.44542 18.2156192,48.9159209 39.4328638,48.9159209 C55.1841269,48.9159209 68.1269628,41.8030751 74.0530495,26.8809018 C76.0028824,26.9129938 81.1507059,27.2318893 83.6697678,22.3443738 C83.731096,22.2619756 84.3109783,21.0482642 84.3109783,21.0482642 L83.3504582,20.4000649 Z" mask="url(#docker-d)"/>
      <g transform="translate(22.458 39.898)">
        <mask id="docker-f" fill="#fff">
          <use xlink:href="#docker-e"/>
        </mask>
        <polygon fill="#FFF" points="-3.132 12.498 25.718 12.498 25.718 -2.976 -3.132 -2.976" mask="url(#docker-f)"/>
      </g>
      <mask id="docker-h" fill="#fff">
        <use xlink:href="#docker-g"/>
      </mask>
      <g mask="url(#docker-h)">
        <g transform="translate(.576 1.446)">
          <path fill="#066CA4" d="M33.4111858,37.5605786 C30.8947152,39.002403 27.9777399,39.8127967 24.8842663,39.8127967 C23.3165108,39.8127967 21.7982786,39.6031872 20.3531796,39.2111451 L21.2684954,40.7553167 C22.4380495,40.9871882 23.6467616,41.1089062 24.8842663,41.1089062 C28.2181579,41.1089062 31.3274675,40.2340395 34.0362724,38.6947829 C33.8119783,38.3221117 33.6035201,37.9494404 33.4111858,37.5605786 Z"/>
          <path fill="#FFF" d="M38.2897988,36.7201168 C39.5206811,36.7201168 40.5186316,35.7113891 40.5186316,34.4670314 C40.5186316,33.2223846 39.5206811,32.2136569 38.2897988,32.2136569 C37.0586285,32.2136569 36.060678,33.2223846 36.060678,34.4670314 C36.060678,35.7113891 37.0586285,36.7201168 38.2897988,36.7201168 Z"/>
          <path fill="#4D5C63" d="M38.6252322,33.8338661 C38.6252322,33.6274369 38.72687,33.451654 38.8757276,33.3331162 C38.7012446,33.2420445 38.506031,33.1859559 38.2961331,33.1859559 C37.5927307,33.1859559 37.0223498,33.7621652 37.0223498,34.4733919 C37.0223498,35.1843296 37.5927307,35.7611171 38.2961331,35.7611171 C38.9995356,35.7611171 39.5699164,35.1843296 39.5699164,34.4733919 C39.5699164,34.4482388 39.56387,34.4242421 39.5624303,34.3993781 C39.4725975,34.4476606 39.3749907,34.4820654 39.2664427,34.4820654 C38.9122941,34.4820654 38.6252322,34.1917924 38.6252322,33.8338661 Z"/>
          <path fill="#000" d="M66.4662074,1.20388138 C65.0234118,0.231871486 61.0791176,-0.223487105 58.4440217,0.545852076 L57.8557895,1.37850779 C49.2646625,19.2334795 38.513517,26.7814457 23.823548,27.1173992 C7.80393808,27.0731643 3.79543653,18.5916408 2.6667678,7.02668901 L0.102501548,7.02668901 C-0.227749226,11.8873167 1.00802786,29.7625266 22.3893901,29.7625266 C38.160808,29.7625266 51.1433777,22.6661605 57.1379907,7.75988862 C59.0932941,7.7925588 64.5425759,7.7925588 66.9470433,2.89926092 L67.4345015,1.86306715 L66.4662074,1.20388138 Z" opacity=".05" transform="translate(16.124 17.636)"/>
          <polygon fill="#066CA4" points="22.661 22.117 23.303 22.117 23.303 18.255 22.661 18.255"/>
          <polygon fill="#066CA4" points="24.585 22.117 25.226 22.117 25.226 18.255 24.585 18.255"/>
          <polygon fill="#066CA4" points="26.508 22.117 27.149 22.117 27.149 18.255 26.508 18.255"/>
          <polygon fill="#066CA4" points="30.996 22.117 31.637 22.117 31.637 18.255 30.996 18.255"/>
          <polygon fill="#066CA4" points="32.919 22.117 33.561 22.117 33.561 18.255 32.919 18.255"/>
          <polygon fill="#066CA4" points="34.843 22.117 35.484 22.117 35.484 18.255 34.843 18.255"/>
          <polygon fill="#066CA4" points="39.33 22.117 39.972 22.117 39.972 18.255 39.33 18.255"/>
          <polygon fill="#066CA4" points="41.254 22.117 41.895 22.117 41.895 18.255 41.254 18.255"/>
          <polygon fill="#066CA4" points="43.177 22.117 43.818 22.117 43.818 18.255 43.177 18.255"/>
          <polygon fill="#066CA4" points="47.665 22.117 48.306 22.117 48.306 18.255 47.665 18.255"/>
          <polygon fill="#066CA4" points="49.588 22.117 50.23 22.117 50.23 18.255 49.588 18.255"/>
          <polygon fill="#066CA4" points="51.512 22.117 52.153 22.117 52.153 18.255 51.512 18.255"/>
          <polygon fill="#066CA4" points="56 22.117 56.641 22.117 56.641 18.255 56 18.255"/>
          <polygon fill="#066CA4" points="57.923 22.117 58.564 22.117 58.564 18.255 57.923 18.255"/>
          <polygon fill="#066CA4" points="59.846 22.117 60.487 22.117 60.487 18.255 59.846 18.255"/>
          <polygon fill="#066CA4" points="32.919 14.392 33.561 14.392 33.561 10.529 32.919 10.529"/>
          <polygon fill="#066CA4" points="34.843 14.392 35.484 14.392 35.484 10.529 34.843 10.529"/>
          <polygon fill="#066CA4" points="39.33 14.392 39.972 14.392 39.972 10.529 39.33 10.529"/>
          <polygon fill="#066CA4" points="41.254 14.392 41.895 14.392 41.895 10.529 41.254 10.529"/>
          <polygon fill="#066CA4" points="43.177 14.392 43.818 14.392 43.818 10.529 43.177 10.529"/>
          <polygon fill="#066CA4" points="47.665 14.392 48.306 14.392 48.306 10.529 47.665 10.529"/>
          <polygon fill="#066CA4" points="49.588 14.392 50.23 14.392 50.23 10.529 49.588 10.529"/>
          <polygon fill="#066CA4" points="51.512 14.392 52.153 14.392 52.153 10.529 51.512 10.529"/>
          <polygon fill="#066CA4" points="49.588 6.667 50.23 6.667 50.23 2.804 49.588 2.804"/>
          <polygon fill="#066CA4" points="47.665 6.667 48.306 6.667 48.306 2.804 47.665 2.804"/>
          <polygon fill="#066CA4" points="51.512 6.667 52.153 6.667 52.153 2.804 51.512 2.804"/>
          <polygon fill="#066CA4" points="30.996 14.392 31.637 14.392 31.637 10.529 30.996 10.529"/>
          <path fill="#066CA4" fill-rule="nonzero" d="M12.3914582 70.3224005C12.1389474 70.9081507 11.7945882 71.4219108 11.3586687 71.86397 10.9224613 72.3068966 10.4105294 72.6578841 9.82316099 72.915487 9.23521672 73.1742463 8.606387 73.3031923 7.93552012 73.3031923 7.25601548 73.3031923 6.62257895 73.1742463 6.03463467 72.915487 5.4466904 72.6578841 4.93706192 72.3094987 4.50632508 71.871198 4.07414861 71.4334755 3.7323808 70.9197153 3.47986997 70.3293393 3.22735913 69.7395415 3.10095975 69.1118695 3.10095975 68.4483469 3.10095975 67.7845353 3.22735913 67.1574415 3.47986997 66.5673546 3.7323808 65.9775568 4.07414861 65.4632184 4.50632508 65.0246286 4.93706192 64.5877734 5.4466904 64.239388 6.03463467 63.9806286 6.62257895 63.7230258 7.25601548 63.5937907 7.93552012 63.5937907 8.606387 63.5937907 9.23521672 63.7230258 9.82316099 63.9806286 10.4105294 64.239388 10.9224613 64.5895081 11.3586687 65.0318565 11.7945882 65.4747831 12.1389474 65.9885432 12.3914582 66.5742934 12.643969 67.1600435 12.7703684 67.7845353 12.7703684 68.4483469 12.7703684 69.1118695 12.643969 69.7372286 12.3914582 70.3224005zM14.2030867 54.0639304C13.7896254 54.0639304 13.4472817 54.2003935 13.1769195 54.472163 12.9056935 54.7445108 12.7703684 55.0874031 12.7703684 55.5019962L12.7703684 62.4037869C11.3745046 61.2695826 9.76298452 60.7032033 7.93552012 60.7032033 5.80515789 60.7032033 3.98719505 61.458954 2.48105573 62.9710336.975204334 64.4839806.222278638 66.3091735.222278638 68.4483469.222278638 70.5875204.975204334 72.4130024 2.48105573 73.9253712 3.98719505 75.4374508 5.80515789 76.1934906 7.93552012 76.1934906 10.0474551 76.1934906 11.8657059 75.4374508 13.3902724 73.9253712 14.8964118 72.4312167 15.6490495 70.6054456 15.6490495 68.4483469L15.6490495 55.5019962C15.6490495 55.0874031 15.5091176 54.7445108 15.2289659 54.472163 14.9488142 54.2003935 14.6070464 54.0639304 14.2030867 54.0639304zM29.2045913 70.3224005C28.9520805 70.9081507 28.6071455 71.4219108 28.171226 71.86397 27.7350186 72.3068966 27.2227988 72.6578841 26.6357183 72.915487 26.047774 73.1742463 25.4189443 73.3031923 24.7480774 73.3031923 24.0685728 73.3031923 23.4351362 73.1742463 22.8477678 72.915487 22.2598235 72.6578841 21.750195 72.3094987 21.3188824 71.871198 20.8867059 71.4334755 20.5449381 70.9197153 20.2924272 70.3293393 20.0399164 69.7395415 19.913517 69.1118695 19.913517 68.4483469 19.913517 67.7845353 20.0399164 67.1574415 20.2924272 66.5673546 20.5449381 65.9775568 20.8867059 65.4632184 21.3188824 65.0246286 21.750195 64.5877734 22.2598235 64.239388 22.8477678 63.9806286 23.4351362 63.7230258 24.0685728 63.5937907 24.7480774 63.5937907 25.4189443 63.5937907 26.047774 63.7230258 26.6357183 63.9806286 27.2227988 64.239388 27.7350186 64.5895081 28.171226 65.0318565 28.6071455 65.4747831 28.9520805 65.9885432 29.2045913 66.5742934 29.4565263 67.1600435 29.5826378 67.7845353 29.5826378 68.4483469 29.5826378 69.1118695 29.4565263 69.7372286 29.2045913 70.3224005zM30.2028297 62.9710336C28.6782632 61.458954 26.8600124 60.7032033 24.7480774 60.7032033 22.6177152 60.7032033 20.7994644 61.458954 19.2941889 62.9710336 17.7874737 64.4839806 17.0348359 66.3091735 17.0348359 68.4483469 17.0348359 70.5875204 17.7874737 72.4130024 19.2941889 73.9253712 20.7994644 75.4374508 22.6177152 76.1934906 24.7480774 76.1934906 26.8600124 76.1934906 28.6782632 75.4374508 30.2028297 73.9253712 31.7086811 72.4312167 32.4621827 70.6054456 32.4621827 68.4483469 32.4523932 67.3789048 32.2620743 66.3875241 31.8903622 65.4747831 31.5183622 64.5617529 30.9560433 63.7273625 30.2028297 62.9710336z"/>
          <path fill="#066CA4" d="M61.7617895 62.1415582C61.7617895 61.9478501 61.7232074 61.7636828 61.6451796 61.5881891 61.5668638 61.4129844 61.4634985 61.2588853 61.3347957 61.1250243 61.205805 60.9917416 61.054644 60.8879487 60.880161 60.8133567 60.7059659 60.7396319 60.5173746 60.7032033 60.3155387 60.7032033 60.0307802 60.7032033 59.7736625 60.7775062 59.5441858 60.9240883L51.3077833 66.3048367 51.3077833 55.5164521C51.3077833 55.1108215 51.1672755 54.7679293 50.8871238 54.4860406 50.607548 54.2050193 50.2698111 54.0642196 49.8747771 54.0642196 49.4702415 54.0642196 49.1284737 54.2050193 48.8488978 54.4860406 48.5687461 54.7679293 48.4285263 55.1108215 48.4285263 55.5164521L48.4285263 74.7412581C48.4285263 75.137926 48.5687461 75.4799509 48.8488978 75.7650199 49.1284737 76.050667 49.4702415 76.1937797 49.8747771 76.1937797 50.2698111 76.1937797 50.607548 76.050667 50.8871238 75.7650199 51.1672755 75.4799509 51.3077833 75.137926 51.3077833 74.7412581L51.3077833 69.7485041 52.9881176 68.6423442 59.3518514 75.8205302C59.6083932 76.0691705 59.9300062 76.1937797 60.3155387 76.1937797 60.5173746 76.1937797 60.7059659 76.1567728 60.880161 76.0830481 61.054644 76.0096125 61.205805 75.9058196 61.3347957 75.7722478 61.4634985 75.638965 61.5668638 75.4834203 61.6451796 75.3082157 61.7232074 75.1338784 61.7617895 74.9488438 61.7617895 74.7557139 61.7617895 74.3775495 61.6284799 74.0410178 61.3624365 73.7455407L55.439517 67.0516248 61.2109876 63.2893509C61.577805 63.0401325 61.7617895 62.6584986 61.7617895 62.1415582zM38.1040867 65.0113292C38.5443251 64.5736067 39.0585604 64.2278233 39.6465046 63.9742681 40.2344489 63.7204237 40.8632786 63.5937907 41.5341455 63.5937907 42.1399412 63.5937907 42.6993808 63.6952706 43.2144799 63.8973631 43.7278514 64.1009011 44.2196285 64.4010041 44.6877957 64.7968047 44.9633406 65.018268 45.275452 65.1289996 45.624418 65.1289996 46.0378793 65.1289996 46.3796471 64.9905128 46.6508731 64.7138283 46.9212353 64.4371437 47.0571362 64.0913603 47.0571362 63.6767671 47.0571362 63.2433814 46.8918669 62.8790945 46.5610402 62.5836174 45.1467492 61.3302971 43.4715975 60.7032033 41.5341455 60.7032033 39.4029195 60.7032033 37.5846687 61.458954 36.0793932 62.9710336 34.5732539 64.4839806 33.8200402 66.3091735 33.8200402 68.4483469 33.8200402 70.5875204 34.5732539 72.4132915 36.0793932 73.9253712 37.5846687 75.4377399 39.4029195 76.1934906 41.5341455 76.1934906 43.461808 76.1934906 45.1378235 75.5666859 46.5610402 74.3124982 46.864226 74.0077694 47.0156749 73.6538907 47.0156749 73.2476819 47.0156749 72.8325105 46.879774 72.4893292 46.6096997 72.2169814 46.3384737 71.9452118 45.99613 71.8087488 45.5832446 71.8087488 45.2345666 71.8185787 44.9310929 71.9197695 44.6742632 72.1131885 44.2153096 72.5098565 43.7278514 72.8073574 43.2144799 73.0054022 42.6993808 73.2037362 42.1399412 73.3031923 41.5341455 73.3031923 40.8632786 73.3031923 40.2344489 73.175981 39.6465046 72.9224258 39.0585604 72.6688706 38.5443251 72.3230872 38.1040867 71.8853647 37.6629845 71.4476422 37.3160341 70.9330147 37.0640991 70.3429278 36.8115882 69.75313 36.6851889 69.1216994 36.6851889 68.4483469 36.6851889 67.7758618 36.8115882 67.1435639 37.0640991 66.5531879 37.3160341 65.9633901 37.6629845 65.4496299 38.1040867 65.0113292zM91.0130248 61.6708764C90.7556192 61.4225253 90.4319907 61.2267934 90.0424272 61.0831024 89.6517121 60.9408571 89.2247183 60.8411119 88.7614458 60.7856015 88.2970217 60.7303802 87.8634056 60.7032033 87.4591579 60.7032033 86.5412508 60.7032033 85.6777616 60.8509418 84.8698421 61.1455516 84.0619226 61.4410287 83.3138916 61.8645845 82.6245975 62.4182427L82.6245975 62.1415582C82.6245975 61.7454685 82.4849536 61.4063347 82.2045139 61.1250243 81.925226 60.8437139 81.5866254 60.7032033 81.1924551 60.7032033 80.7876316 60.7032033 80.4461517 60.8437139 80.1657121 61.1250243 79.8861362 61.4063347 79.7459164 61.7454685 79.7459164 62.1415582L79.7459164 74.7557139C79.7459164 75.1520927 79.8861362 75.4906482 80.1657121 75.7719587 80.4461517 76.0532691 80.7876316 76.1934906 81.1924551 76.1934906 81.5866254 76.1934906 81.925226 76.0532691 82.2045139 75.7719587 82.4849536 75.4906482 82.6245975 75.1520927 82.6245975 74.7557139L82.6245975 68.4483469C82.6245975 67.7758618 82.7515728 67.1435639 83.0035077 66.5531879 83.2563065 65.9636792 83.6003777 65.449919 84.0365851 65.0116183 84.4727926 64.5738958 84.9847245 64.2281124 85.5723808 63.9742681 86.1597492 63.7207129 86.7885789 63.5937907 87.4591579 63.5937907 88.1389505 63.5937907 88.7677802 63.7091482 89.3467988 63.9395741 89.5756997 64.0413431 89.7781115 64.0916494 89.9523065 64.0916494 90.1538545 64.0916494 90.3424458 64.0555098 90.5172167 63.9809178 90.6911238 63.9074822 90.8431486 63.8036893 90.9718514 63.6698283 91.1002663 63.5365456 91.2033437 63.3821574 91.2816594 63.2063745 91.3596873 63.0320372 91.3988452 62.8426658 91.3988452 62.6391278 91.3988452 62.2430381 91.2701424 61.9200949 91.0130248 61.6708764z"/>
          <path fill="#066CA4" fill-rule="nonzero" d="M66.1373963 67.0094138C66.2836625 66.5028816 66.5093963 66.0400059 66.8120062 65.6196305 67.115192 65.2004114 67.4730836 64.8407504 67.886257 64.5406474 68.3000062 64.24199 68.7546409 64.0080947 69.250161 63.8421418 69.7456811 63.6767671 70.2553096 63.5937907 70.7790464 63.5937907 71.3022074 63.5937907 71.8092446 63.6767671 72.3004458 63.8421418 72.7916471 64.0080947 73.2422508 64.24199 73.6502415 64.5406474 74.059096 64.8407504 74.4175635 65.2004114 74.7244923 65.6196305 75.0331486 66.0400059 75.2643529 66.5028816 75.4206966 67.0094138L66.1373963 67.0094138zM76.2335108 62.9710336C74.7086563 61.458954 72.8904056 60.7032033 70.7790464 60.7032033 68.6481084 60.7032033 66.8298576 61.458954 65.324582 62.9710336 63.8178669 64.4839806 63.0652291 66.3091735 63.0652291 68.4483469 63.0652291 70.5875204 63.8178669 72.4130024 65.324582 73.9253712 66.8298576 75.4374508 68.6481084 76.1934906 70.7790464 76.1934906 72.7159226 76.1934906 74.3965449 75.5666859 75.8203375 74.3124982 76.0958824 74.0271402 76.2335108 73.6813568 76.2335108 73.2754371 76.2335108 72.8599766 76.0978978 72.5170844 75.8263839 72.2444474 75.5560217 71.972967 75.2142539 71.836504 74.8007926 71.836504 74.4431889 71.8460448 74.1256068 71.9666064 73.8506378 72.196165 73.4184613 72.5653668 72.9500062 72.8420514 72.4452724 73.0262186 71.939387 73.2109641 71.38513 73.3031923 70.7790464 73.3031923 70.245808 73.3031923 69.7341641 73.2196376 69.242387 73.0536847 68.7517616 72.8877318 68.3014458 72.6552821 67.8928793 72.3551791 67.4846006 72.0559434 67.1284365 71.6968607 66.8261146 71.2764852 66.5226409 70.8572662 66.2925882 70.3938123 66.1373963 69.8864127L77.0460372 69.8864127C77.4491331 69.8864127 77.7917647 69.750528 78.0716285 69.4781801 78.3520681 69.2066997 78.4922879 68.8629401 78.4922879 68.4483469 78.4922879 67.3789048 78.3034087 66.3855002 77.9276656 65.4675551 77.5507709 64.5501883 76.9858607 63.7178217 76.2335108 62.9710336zM78.1793127 24.1273556C76.7759628 24.6226123 75.504195 24.7336331 73.5975511 24.6940241 73.578548 24.693735 73.4590588 24.6911329 73.2641331 24.6873744L72.822743 24.6801465 72.6586254 25.0938723C67.0498328 39.2166383 54.8023375 46.7223935 38.6332941 46.7223935 29.3903034 46.7223935 23.3588359 43.2076034 20.0312786 37.2104585 18.74713 34.8966586 17.9308607 32.2998136 17.5479195 29.641965 17.2827399 27.7982687 17.2467492 26.0095045 17.3930155 24.6873744L20.0966378 24.6873744 20.0966378 24.6920003 28.4312229 24.6920003 29.713644 24.6920003 36.765808 24.6920003 38.0482291 24.6920003 45.1003932 24.6920003 46.3825263 24.6920003 53.4349783 24.6920003 54.7171115 24.6920003 63.0516966 24.6920003 63.0516966 24.6795683C65.5912012 24.6509457 67.9654365 23.8619466 69.1574489 22.9321478L69.6829133 22.5221805 69.2593746 22.0055292C68.4652755 21.0369887 67.9536316 19.6177155 67.8004551 18.1388842 67.6184861 15.8826185 68.1632415 13.4924919 69.2999721 11.7598163L69.5844427 11.3281653 69.9938731 11.6039825C72.4827028 13.5563867 73.7602291 15.72505 73.8955542 18.2418097L73.9384551 19.0389041 74.7014582 18.8324749C77.1980619 18.1573877 80.8532786 18.4869806 82.1944365 19.393361L82.6902446 19.7275797C82.6672105 19.7747057 82.6447523 19.8212535 82.6130805 19.8860156 82.5339009 20.0484991 82.4665263 20.1852513 82.4146997 20.2878877 82.386483 20.3436871 82.3637368 20.3882111 82.3015449 20.4992319 81.3502384 22.3458194 79.9520712 23.5014183 78.1793127 24.1273556zM21.3790588 16.9668057L28.4312229 16.9668057 28.4312229 23.3912649 21.3790588 23.3912649 21.3790588 16.9668057zM29.713644 16.9668057L36.765808 16.9668057 36.765808 23.3912649 29.713644 23.3912649 29.713644 16.9668057zM29.713644 9.24161102L36.765808 9.24161102 36.765808 15.6793696 29.713644 15.6793696 29.713644 9.24161102zM38.0482291 16.9668057L45.1003932 16.9668057 45.1003932 23.3912649 38.0482291 23.3912649 38.0482291 16.9668057zM38.0482291 9.24161102L45.1003932 9.24161102 45.1003932 15.6793696 38.0482291 15.6793696 38.0482291 9.24161102zM46.3825263 16.9668057L53.4346904 16.9668057 53.4346904 23.3912649 46.3825263 23.3912649 46.3825263 16.9668057zM46.3825263 9.24161102L53.4346904 9.24161102 53.4346904 15.6793696 46.3825263 15.6793696 46.3825263 9.24161102zM46.3825263 1.51641639L53.4346904 1.51641639 53.4346904 7.95417496 46.3825263 7.95417496 46.3825263 1.51641639zM54.7171115 16.9668057L61.7692755 16.9668057 61.7692755 23.3912649 54.7171115 23.3912649 54.7171115 16.9668057zM83.4273344 21.1211216C83.4889505 21.017907 83.579935 20.8348962 83.7731331 20.4390956 83.8428111 20.2959829 83.917096 20.142462 83.990805 19.9892302 84.0164303 19.9354546 84.0403282 19.8857265 84.0886997 19.7845357L84.3314211 19.2765579 82.9067647 18.3155344C81.3666502 17.2747148 77.8553963 16.8823836 75.1039783 17.4117561 74.7492539 14.8076831 73.2949412 12.5473698 70.7430557 10.55102L69.2291424 9.53072759 68.2323437 11.0419399C66.928904 13.029038 66.3182136 15.7088595 66.5240805 18.2591567 66.6752415 19.7217974 67.1255573 21.1326863 67.8479628 22.2498327 66.7573003 22.860736 64.9661146 23.3603294 63.0516966 23.3860608L63.0516966 15.6793696 54.7171115 15.6793696 54.7171115 9.24161102 54.7171115 7.95417496 54.7171115.228691204 45.1003932.228691204 45.1003932 7.95417496 38.0482291 7.95417496 36.765808 7.95417496 28.4312229 7.95417496 28.4312229 15.6793696 20.0966378 15.6793696 20.0966378 23.3912649 16.8353034 23.3912649 16.2937152 23.3912649 16.2033065 23.9307564C15.953387 25.4197067 15.95713 27.5915503 16.2793189 29.8287343 16.6832786 32.6360562 17.5473437 35.3835309 18.9129752 37.8444911 22.4688576 44.2536271 28.9296223 48.0185031 38.6332941 48.0185031 55.1446811 48.0185031 67.7926811 40.3638529 73.6810495 25.9921575 75.6703282 26.0280079 77.0454613 25.9005075 78.6022755 25.350897 80.6646873 24.6229014 82.3185325 23.2591386 83.4273344 21.1211216zM85.6267988 75.3605458L85.7166316 75.3605458C85.8223003 75.3605458 85.9075263 75.3252736 85.9075263 75.239406 85.9075263 75.1639465 85.8522446 75.1136402 85.7318916 75.1136402 85.6817926 75.1136402 85.6466656 75.1185552 85.6267988 75.1237593L85.6267988 75.3605458zM85.6216161 75.8283364L85.4310093 75.8283364 85.4310093 75.0031977C85.5064458 74.9878745 85.6115387 74.9777555 85.7471517 74.9777555 85.9026316 74.9777555 85.9723096 75.0031977 86.032774 75.0384699 86.0774025 75.0731639 86.1125294 75.1385043 86.1125294 75.2194569 86.1125294 75.3099504 86.0422755 75.3804948 85.9426533 75.410563L85.9426533 75.420682C86.0224087 75.4507502 86.067613 75.5111755 86.0926625 75.6216181 86.118 75.7476729 86.1326842 75.7979792 86.1531269 75.8283364L85.9472601 75.8283364C85.9224985 75.7979792 85.9075263 75.7225197 85.8821889 75.6268222 85.8675046 75.5360395 85.8171176 75.4961415 85.7120248 75.4961415L85.6216161 75.4961415 85.6216161 75.8283364zM85.1154427 75.3952398C85.1154427 75.7629961 85.3863808 76.0544256 85.7569412 76.0544256 86.118 76.0544256 86.3831796 75.7629961 86.3831796 75.400733 86.3831796 75.0329767 86.118 74.7363431 85.7520464 74.7363431 85.3863808 74.7363431 85.1154427 75.0329767 85.1154427 75.3952398zM86.5936533 75.3952398C86.5936533 75.8636086 86.2282755 76.2307867 85.7520464 76.2307867 85.281 76.2307867 84.905257 75.8636086 84.905257 75.3952398 84.905257 74.9375683 85.281 74.5701011 85.7520464 74.5701011 86.2282755 74.5701011 86.5936533 74.9375683 86.5936533 75.3952398z"/>
        </g>
      </g>
    </g>
  </g>
</svg>
