<svg xmlns="http://www.w3.org/2000/svg" xmlns:xlink="http://www.w3.org/1999/xlink" width="93" height="93" viewBox="0 0 93 93">
  <defs>
    <polygon id="git-a" points="0 0 93 0 93 93 0 93"/>
  </defs>
  <g fill="none" fill-rule="evenodd">
    <mask id="git-b" fill="#fff">
      <use xlink:href="#git-a"/>
    </mask>
    <path fill="#DE4C36" d="M91.2450252,42.358297 L50.6407385,1.75424912 C48.3038084,-0.584749705 44.511484,-0.584749705 42.1705056,1.75424912 L33.7397444,10.1871951 L44.4345647,20.8832313 C46.9202729,20.0431754 49.7713479,20.6069237 51.7520201,22.5876337 C53.7448375,24.5815011 54.3025025,27.455909 53.4422207,29.9507736 L63.7504203,40.2591696 C66.2452374,39.3988714 69.1216148,39.9545228 71.1144322,41.9504145 C73.8976967,44.7327199 73.8976967,49.2437185 71.1144322,52.0280481 C68.3291435,54.8133899 63.8192429,54.8133899 61.0329421,52.0280481 C58.9389151,49.9329691 58.4217339,46.8561381 59.4824107,44.2772679 L49.867497,34.6631832 L49.867497,59.9620212 C50.5456015,60.2980435 51.1862583,60.7464107 51.7520201,61.310159 C54.5352846,64.0934765 54.5352846,68.603463 51.7520201,71.3908289 C48.9687556,74.1731343 44.4558187,74.1731343 41.6745784,71.3908289 C38.8913139,68.603463 38.8913139,64.0934765 41.6745784,61.310159 C42.3617917,60.6229326 43.1593235,60.1027052 44.0084722,59.7545375 L44.0084722,34.2208888 C43.1593235,33.8737332 42.3638159,33.3575543 41.6745784,32.6662794 C39.5663821,30.559055 39.0593219,27.464006 40.1402406,24.8750146 L29.5962226,14.3287716 L1.75345663,42.1700436 C-0.584485545,44.5110666 -0.584485545,48.3034632 1.75345663,50.6424621 L42.3597675,91.24651 C44.6977097,93.5844967 48.489022,93.5844967 50.8310126,91.24651 L91.2450252,50.8307155 C93.5849916,48.4917167 93.5849916,44.6962837 91.2450252,42.358297" mask="url(#git-b)"/>
  </g>
</svg>
