<svg xmlns="http://www.w3.org/2000/svg" width="93" height="93" viewBox="0 0 93 93">
  <path fill-rule="evenodd" d="M46.5,0 C20.80875,0 0,20.8762643 0,46.6508699 C0,67.2938798 13.310625,84.7296424 31.794375,90.9108826 C34.119375,91.3190777 34.99125,89.9195516 34.99125,88.6949663 C34.99125,87.5870082 34.933125,83.9132522 34.933125,80.0062418 C23.25,82.1638445 20.2275,77.148876 19.2975,74.5247646 C18.774375,73.1835521 16.5075,69.0432874 14.53125,67.9353292 C12.90375,67.0606254 10.57875,64.9030227 14.473125,64.8447091 C18.135,64.7863955 20.750625,68.2268972 21.6225,69.6264233 C25.8075,76.6823673 32.491875,74.6997054 35.165625,73.47512 C35.5725,70.4428135 36.793125,68.4018379 38.13,67.2355662 C27.78375,66.0692944 16.9725,62.0456569 16.9725,44.2016992 C16.9725,39.1284171 18.774375,34.9298388 21.73875,31.6642779 C21.27375,30.4980062 19.64625,25.716292 22.20375,19.3017974 C22.20375,19.3017974 26.098125,18.0772121 34.99125,24.0835116 C38.71125,23.033867 42.66375,22.5090447 46.61625,22.5090447 C50.56875,22.5090447 54.52125,23.033867 58.24125,24.0835116 C67.134375,18.0188985 71.02875,19.3017974 71.02875,19.3017974 C73.58625,25.716292 71.95875,30.4980062 71.49375,31.6642779 C74.458125,34.9298388 76.26,39.0701035 76.26,44.2016992 C76.26,62.1039705 65.390625,66.0692944 55.044375,67.2355662 C56.73,68.6934059 58.183125,71.4924581 58.183125,75.8659771 C58.183125,82.1055309 58.125,87.1204995 58.125,88.6949663 C58.125,89.9195516 58.996875,91.3773913 61.321875,90.9108826 C80.2499684,84.5002152 92.9948926,66.693274 93,46.6508699 C93,20.8762643 72.19125,1.0358574e-14 46.5,0 Z" transform="translate(0 1)"/>
</svg>
