<svg xmlns="http://www.w3.org/2000/svg" width="93" height="93" viewBox="0 0 93 93">
  <g fill="none" fill-rule="evenodd">
    <rect width="93" height="93" fill="#F7DF1E"/>
    <path fill="#000" fill-rule="nonzero" d="M61.8056312,72.7920893 C63.6700547,75.8847315 66.0957152,78.1579429 70.3857993,78.1579429 C73.9897637,78.1579429 76.2920109,76.3280301 76.2920109,73.7995861 C76.2920109,70.7696326 73.9265878,69.6964619 69.9597293,67.9337155 L67.7853031,66.9859222 C61.5088514,64.2694121 57.3392423,60.8663116 57.3392423,53.6720377 C57.3392423,47.0449473 62.3095691,42 70.0772658,42 C75.6073605,42 79.5830343,43.9552902 82.4479877,49.0748669 L75.674944,53.4929272 C74.183699,50.7764171 72.5749175,49.7062316 70.0772658,49.7062316 C67.5296611,49.7062316 65.9150028,51.3480783 65.9150028,53.4929272 C65.9150028,56.1437634 67.5311303,57.2169341 71.2629158,58.8587808 L73.4373419,59.8050816 C80.8274525,63.0245938 85,66.3067947 85,73.6861495 C85,81.6416432 78.8484308,86 70.5870806,86 C62.5093812,86 57.2907584,82.0894196 54.7372769,76.9638726 L61.8056312,72.7920893 Z M31.0801079,73.5577869 C32.4464703,76.020557 33.6894193,78.1027172 36.6777861,78.1027172 C39.5353934,78.1027172 41.3381103,76.9668578 41.3381103,72.55029 L41.3381103,42.5044947 L50.0358149,42.5044947 L50.0358149,72.6696971 C50.0358149,81.8192612 44.7554854,85.9835815 37.0480262,85.9835815 C30.0839856,85.9835815 26.0510128,82.3222633 24,77.9124122 L31.0801079,73.5577869 Z"/>
  </g>
</svg>
