<svg xmlns="http://www.w3.org/2000/svg" width="93" height="93" viewBox="0 0 93 93">
  <path fill="#FB503B" d="M92.5263889,29.8810811 C91.9020833,29.1891892 83.4201389,18.5081081 81.9131944,16.6918919 C80.40625,14.8756757 79.6958333,15.2 78.7701389,15.3513514 C77.8444444,15.5027027 67.1020833,17.2972973 65.8534722,17.5135135 C64.6048611,17.7297297 63.8298611,18.227027 64.5833333,19.3081081 C65.2722222,20.2594595 72.3333333,30.3351351 73.8833333,32.5405405 L45.7895833,39.3081081 L23.4868056,1.79459459 C22.6041667,0.475675676 22.4104167,5.96744876e-15 20.3868056,0.108108108 C18.3631944,0.194594595 2.86319444,1.49189189 1.76527778,1.57837838 C0.667361111,1.66486486 -0.559722222,2.16216216 0.559722222,4.77837838 C1.65763889,7.39459459 19.2673611,45.4918919 19.7625,46.5945946 C20.2576389,47.6972973 21.5277778,49.4918919 24.5201389,48.7783784 C27.5770833,48.0432432 38.1902778,45.2540541 43.98125,43.7405405 C47.0381944,49.3189189 53.3027778,60.6054054 54.44375,62.227027 C55.99375,64.3891892 57.0486111,64.0216216 59.4166667,63.3081081 C61.2680556,62.7459459 88.35,52.972973 89.5770833,52.4540541 C90.8041667,51.9567568 91.5576389,51.5891892 90.7180556,50.3567568 C90.1152778,49.4486486 82.9680556,39.8486486 79.2222222,34.8108108 C81.7840278,34.1189189 90.8902778,31.6972973 91.8805556,31.4162162 C93,31.1351351 93.1506944,30.572973 92.5263889,29.8810811 Z M41.4625,40.3675676 C41.1180556,40.4324324 25.4027778,44.2162162 24.5631944,44.4108108 C23.7236111,44.6054054 23.7236111,44.4972973 23.6375,44.2162162 C23.5513889,43.9351351 4.92986111,5.38378378 4.67152778,4.90810811 C4.41319444,4.43243243 4.43472222,4.04324324 4.67152778,4.04324324 C4.90833333,4.04324324 19.5256944,2.72432432 20.0423611,2.7027027 C20.5590278,2.68108108 20.4944444,2.78918919 20.6881944,3.11351351 C20.6881944,3.11351351 41.2902778,38.8324324 41.65625,39.4594595 C42.0222222,40.1081081 41.8069444,40.3027027 41.4625,40.3675676 Z M85.83125,48.7135135 C86.0895833,49.1027027 86.3263889,49.3621622 85.5513889,49.6432432 C84.7548611,49.9243243 58.9215278,58.6810811 58.4263889,58.8972973 C57.93125,59.1135135 57.5222222,59.1783784 56.8763889,58.2486486 C56.2305556,57.3189189 47.8347222,42.7027027 47.8347222,42.7027027 L75.2180556,35.5459459 C75.9069444,35.3297297 76.1222222,35.1783784 76.5527778,35.8702703 C76.9833333,36.5621622 85.5729167,48.3243243 85.83125,48.7135135 Z M87.575,29.1891892 C86.9506944,29.3189189 76.8972222,31.827027 76.8972222,31.827027 L68.6736111,20.4972973 C68.4368056,20.172973 68.2430556,19.8486486 68.8243056,19.7621622 C69.4055556,19.6756757 78.7486111,17.9891892 79.1576389,17.9027027 C79.5881944,17.8162162 79.9541667,17.6864865 80.4708333,18.4 C80.9875,19.1135135 88.0916667,28.1513514 88.3715278,28.4972973 C88.6513889,28.8432432 88.1993056,29.0594595 87.575,29.1891892 Z" transform="translate(0 15)"/>
</svg>
