<svg xmlns="http://www.w3.org/2000/svg" width="93" height="93" viewBox="0 0 93 93">
  <g fill="none" fill-rule="evenodd" transform="translate(0 28)">
    <g transform="translate(.267 .736)">
      <path fill="#599636" d="M8.39120653,0.26090284 C8.65721464,0.760954654 9.01822674,1.54949958 9.322237,2.03031814 C9.53124327,2.35727634 9.75925062,2.64576804 10.0252601,2.9150265 C10.8042848,3.70357142 11.5453086,4.53058143 12.210331,5.41528838 C13.7873814,7.51166188 14.8514166,9.83882874 15.6114415,12.3583239 C16.0674562,13.8969472 16.3144633,15.4740357 16.3334643,17.0703559 C16.4094631,21.8400878 14.7944147,25.9366699 11.5263076,29.3408734 C10.9942913,29.8793917 10.424273,30.3794435 9.81625246,30.821797 C9.49324251,30.821797 9.34123669,30.5717718 9.20823333,30.3409784 C8.9612249,29.9178568 8.80922047,29.4370368 8.73321756,28.9562169 C8.61921944,28.3792335 8.54321097,27.8022501 8.58121312,27.2060348 C8.58121312,27.1098686 8.58121312,27.0329384 8.58121312,26.936775 C8.56220648,26.8790724 8.27720286,0.39553277 8.39120653,0.26090284 Z"/>
      <path fill="#6CAC48" d="M8.39120653,0.2032045 C8.35320716,0.126277132 8.31520779,0.183965621 8.27720842,0.222429305 C8.29621506,0.607085845 8.16321031,0.953275887 7.95419848,1.28023268 C7.72618974,1.60719088 7.42218087,1.85721608 7.11817061,2.12647594 C5.42711518,3.60739954 4.09707325,5.3960495 3.03303803,7.39625816 C1.62699179,10.0888483 0.885967913,12.9737667 0.676961641,16.0125469 C0.581956262,17.1088154 1.01897266,20.9746042 1.36098368,22.0901059 C2.29201415,25.0519545 3.9640685,27.5329846 6.1301383,29.6870564 C6.66215591,30.2063415 7.23217428,30.6871615 7.82119373,31.1487482 C7.99219924,31.1487482 8.01120031,30.994885 8.04920107,30.8794883 C8.12519982,30.6294631 8.18220582,30.3794365 8.22020659,30.1294099 C8.3912121,29.1677714 8.48621469,28.2061314 8.60021837,27.2444929 C8.60021837,27.1291018 8.44821393,0.299360894 8.3912121,0.203197463 L8.39120653,0.2032045 Z"/>
      <path fill="#C2BFBF" d="M9.322237,31.9949971 C9.36023637,31.5526436 9.56924404,31.1872203 9.79725277,30.821797 C9.56924404,30.7256308 9.39823852,30.5333053 9.26523517,30.3217452 C9.15123705,30.1294169 9.0562275,29.8986236 8.98022598,29.6870635 C8.71421648,28.8792867 8.65721464,28.0330434 8.58121312,27.2060334 C8.58121312,27.2060334 8.58121312,27.2060334 8.58121312,27.2060334 C8.58121312,27.129106 8.58121312,27.0329384 8.58121312,26.9560082 C8.58121312,26.9560082 8.58121312,26.9560082 8.58121312,26.9560082 C8.58121312,26.8790808 8.58121312,26.7829132 8.58121312,26.7059816 C8.48620774,26.782909 8.46721501,27.4368282 8.46721501,27.5329916 C8.410209,28.4177 8.2962095,29.2831751 8.12520399,30.1294169 C8.06819798,30.475607 8.03019861,30.821797 7.82119373,31.129522 C7.82119373,31.1679856 7.82119373,31.2064493 7.84020036,31.2641519 C8.18221139,32.2834888 8.27721398,33.3220603 8.33421582,34.3798623 C8.33421582,34.5144922 8.33421582,34.6298889 8.33421582,34.7645188 C8.33421582,35.2261055 8.31520918,35.1299421 8.69522792,35.2838039 C8.84723235,35.3415064 9.01823786,35.3607312 9.1702423,35.4761321 C9.28424041,35.4761321 9.30324705,35.3799659 9.30324705,35.3030371 C9.28424041,35.0914756 9.24624104,34.8799155 9.24624104,34.668354 C9.24624104,34.0721387 9.2272344,33.4951553 9.24624104,32.8989387 C9.2272344,32.5912137 9.28424041,32.2834888 9.32223978,31.9949971 L9.322237,31.9949971 Z"/>
    </g>
    <g transform="translate(20.769 16.998)">
      <path fill="#47474A" d="M3.25018312,7.69073393 C3.25018312,8.30535907 3.25018312,8.91998421 3.25018312,9.52255758 C3.25018312,9.59486289 3.25018312,9.66717526 3.26209289,9.7394841 C3.28590372,9.95641061 3.41687111,10.0889774 3.61927272,10.1492345 C3.79786264,10.197438 3.98835884,10.2335951 4.16694875,10.2576977 C4.2741027,10.269753 4.30982069,10.3179566 4.32172697,10.426419 C4.33363674,10.8361685 4.29791614,10.8843746 3.90501659,10.860272 C2.98825531,10.8120685 2.07149317,10.8000132 1.15473102,10.860272 C1.11901042,10.860272 1.08329854,10.860272 1.05948336,10.860272 C0.773739491,10.8723185 0.749927792,10.8482167 0.749927792,10.5589849 C0.749927792,10.5107813 0.761837562,10.4505216 0.761837562,10.4023154 C0.761837562,10.3059039 0.821368986,10.2697495 0.904709494,10.2697495 C1.09520569,10.2456477 1.27379561,10.1974442 1.45238553,10.1612862 C1.70241141,10.1010274 1.84528334,9.94435973 1.86909591,9.69127879 C1.90481651,9.41409432 1.90481651,9.12485896 1.90481651,8.84767537 C1.9405371,7.77509366 1.92862733,6.69046106 1.91671756,5.61787935 C1.91671756,5.4130046 1.83337531,5.25633516 1.65478627,5.15992366 C1.44047837,5.03940864 1.21426419,4.94299714 0.976143718,4.8706883 C0.904711237,4.84658653 0.833271786,4.83453124 0.773742104,4.79838299 C0.607058474,4.71402239 0.595152189,4.55735294 0.761832335,4.46094145 C0.821363759,4.42478438 0.892798854,4.40068261 0.96423482,4.38863613 C1.69050077,4.28017288 2.39295414,4.09940078 3.08350211,3.84631984 C3.22637404,3.7981163 3.26209202,3.81016277 3.27399831,3.9547831 C3.28590808,4.05119459 3.27399831,4.14760696 3.26208854,4.23196669 C3.23827771,4.38863613 3.23827771,4.54530558 3.23827771,4.68992326 C3.23827771,4.7501821 3.25017877,4.81043741 3.30971019,4.84659183 C3.36924161,4.88274889 3.42876955,4.84659183 3.47639382,4.81043476 C3.7264197,4.61761178 3.97644558,4.43683968 4.25028404,4.28017023 C4.64318185,4.06324371 5.05989136,3.87041984 5.51231973,3.81016277 C6.05999489,3.73785746 6.53623495,3.88246808 6.95294534,4.24401581 C7.13153525,4.40068526 7.27440718,4.58145736 7.40537283,4.77428034 C7.52443307,4.94300155 7.53633935,4.95505244 7.6911167,4.83453918 C8.14354506,4.49709763 8.61978513,4.1958105 9.1317423,3.97888399 C9.66751205,3.7499057 10.2151881,3.71375128 10.7628641,3.90657867 C11.3224464,4.11145431 11.703438,4.50915293 11.9296521,5.05146922 C12.1201483,5.48532226 12.2034897,5.94327795 12.2034897,6.40123452 C12.2034897,7.11227115 12.2034897,7.82330866 12.2034897,8.54639706 C12.2034897,8.90794126 12.2034897,9.26948546 12.2034897,9.63102966 C12.2034897,9.84795617 12.2987383,9.99257385 12.5011399,10.0889862 C12.7273541,10.1853977 12.9773799,10.2215521 13.2154995,10.2697583 C13.3702777,10.3059154 13.3702777,10.3059154 13.3702777,10.4625822 C13.3464669,10.8602808 13.3107463,10.8843835 12.9297557,10.8602808 C11.9772755,10.800022 11.01289,10.8120773 10.0604107,10.8602808 C9.86991454,10.8723273 9.86991454,10.8723273 9.85800825,10.6795087 C9.85800825,10.6554069 9.85800825,10.6433516 9.85800825,10.6192499 C9.84609848,10.2938601 9.84609848,10.2938601 10.1556584,10.2215513 C10.2628123,10.1974495 10.35806,10.1733477 10.465214,10.1371907 C10.7033344,10.0648853 10.8223938,9.90821236 10.8343001,9.66718231 C10.8462098,9.36589607 10.8581109,9.06460894 10.8700207,8.76332182 C10.8700207,7.97997635 10.8938315,7.18457823 10.8462098,6.40123276 C10.8343001,6.19635713 10.7985882,5.99148237 10.7152433,5.78660762 C10.4175941,5.05146746 9.76276407,4.78633475 9.13174579,4.85864359 C8.6555066,4.90684713 8.23879621,5.09967276 7.8458984,5.37685724 C7.76255615,5.43711607 7.70302647,5.50942315 7.71493275,5.62993818 C7.8220867,6.40123276 7.75065335,7.17252734 7.7625544,7.94382193 C7.77446417,8.49818911 7.7625544,9.06460894 7.7625544,9.61897701 C7.7625544,9.92026325 7.88161464,10.0648818 8.1673585,10.1371907 C8.34594842,10.1853942 8.52453833,10.2215513 8.71503453,10.2577048 C8.79837679,10.2697601 8.84600018,10.3059083 8.84600018,10.4023225 C8.84600018,10.4384795 8.84600018,10.4746278 8.84600018,10.4987348 C8.83409041,10.8361755 8.81027959,10.860279 8.47691494,10.8482273 C7.52443481,10.8000237 6.57195468,10.8120702 5.63138083,10.8482273 C5.30991899,10.8602826 5.274201,10.8241255 5.29801357,10.4866831 C5.30992334,10.2938592 5.33373417,10.2818083 5.51232147,10.2456539 C5.64328712,10.2215521 5.77425277,10.1974504 5.90521928,10.1733486 C6.26239912,10.1010433 6.38145935,9.96847296 6.40527105,9.594877 C6.41718082,9.32974517 6.44099164,9.0525607 6.44099164,8.78742888 C6.45290141,7.97997987 6.47671224,7.17253087 6.41718082,6.36508187 C6.39336999,6.06379474 6.32193228,5.77455938 6.16715494,5.49737579 C5.92903447,5.05147099 5.54804294,4.8224927 5.04799118,4.79839005 C4.53603313,4.76223298 4.08360476,4.95505861 3.65498896,5.19608867 C3.35733881,5.364809 3.22637317,5.58173552 3.25018487,5.93122883 C3.26209464,6.5338022 3.23828381,7.11227292 3.25018487,7.69074452 C3.23828381,7.69074452 3.25018487,7.69074452 3.25018487,7.69074452 L3.25018312,7.69073393 Z"/>
      <g transform="translate(13.94)">
        <path fill="#47474A" d="M11.7413375,7.76304277 C11.7413375,8.32946172 11.7413375,8.89588155 11.7413375,9.4623005 C11.7413375,9.58281553 11.7532386,9.70332968 11.7651483,9.8238447 C11.7889592,10.0046168 11.8842086,10.1130801 12.0508922,10.1612862 C12.2532938,10.2215451 12.4676026,10.2576977 12.6819105,10.2697495 C12.8009698,10.2818048 12.8247824,10.3300083 12.8366878,10.426419 C12.8366878,10.4505207 12.8366878,10.4746225 12.8366878,10.5107796 C12.8247781,10.9325817 12.7771564,10.980787 12.3723541,10.9566844 C11.4674982,10.8964255 10.5626423,10.9084808 9.65778646,10.9566844 C9.5387271,10.9566844 9.41966687,10.9687397 9.30060663,10.9687397 C9.22917415,10.9687397 9.20535897,10.9325826 9.19345268,10.8843791 C9.15773209,10.7156587 9.15773209,10.5469375 9.19345268,10.3782172 C9.20536245,10.3059119 9.25298411,10.2818057 9.3244192,10.2697539 C9.49110283,10.2456521 9.64588105,10.2094951 9.81256468,10.1733424 C10.1102148,10.1010371 10.2173688,9.98051856 10.2292751,9.66717967 C10.2530859,9.329739 10.2649957,8.99229746 10.2649957,8.65485591 C10.2649957,7.66663481 10.2649957,6.67841371 10.2649957,5.6901926 C10.2649957,5.47326608 10.1816534,5.34070017 9.99115721,5.24428868 C9.77684931,5.12377365 9.55063513,5.03941305 9.31251553,4.95505244 C9.24108305,4.93095067 9.1696436,4.9068489 9.11011392,4.87069183 C8.9553357,4.76222857 8.94342942,4.60555913 9.08630309,4.4850441 C9.15773557,4.42478526 9.22917502,4.40068349 9.32442356,4.38863261 C10.0864075,4.26811758 10.8245788,4.09939725 11.5389385,3.81016189 C11.6222808,3.77400482 11.6579987,3.7981066 11.6937167,3.87042073 C11.7294373,3.94272604 11.7413384,4.02709017 11.7294373,4.11145078 C11.7175276,4.30427376 11.7056265,4.48504586 11.6937167,4.67786973 C11.6937167,4.75017504 11.6579961,4.84659006 11.7175276,4.88274448 C11.78896,4.93094802 11.8365878,4.82248565 11.8961175,4.78633299 C12.2532973,4.49709763 12.6342897,4.23196492 13.0509992,4.03914194 C13.4200853,3.87042073 13.8010777,3.7499057 14.2296935,3.77400923 C15.0273954,3.82221278 15.5988832,4.23196492 15.9679693,4.94300244 C16.1584646,5.3165984 16.2418069,5.7263479 16.2775248,6.14815006 C16.3013357,6.43738542 16.3132454,6.73867254 16.3132454,7.03995879 C16.3132454,7.87151132 16.3251552,8.69101121 16.3251552,9.52256287 C16.3251552,9.5828217 16.3251552,9.64307789 16.3251552,9.70333497 C16.337065,9.9082106 16.4084975,10.0407765 16.6108991,10.1130854 C16.825207,10.1853907 17.0276086,10.2336004 17.2538228,10.2697548 C17.444319,10.2938566 17.4562244,10.3300136 17.4681307,10.510784 C17.4681307,10.5348857 17.4681307,10.546941 17.4681307,10.5710428 C17.4443198,10.9807923 17.420509,10.9928441 17.0157023,10.9687414 C16.1227527,10.9205379 15.2298032,10.9205379 14.348759,10.9687414 C14.2296996,10.9807879 14.1106394,10.9687414 13.9915792,10.9807879 C13.9201467,10.9807879 13.8725198,10.9687414 13.8606135,10.8964273 C13.8368027,10.7397578 13.8129919,10.5830884 13.8487037,10.4143681 C13.8606135,10.3420628 13.8963254,10.3059048 13.9796703,10.293853 C14.1582602,10.2697513 14.3487555,10.2456495 14.5273454,10.1974415 C14.7178416,10.149238 14.8249956,10.0287212 14.8488081,9.83589735 C14.8607179,9.72743409 14.872619,9.60691907 14.872619,9.49845581 C14.872619,8.65485238 14.872619,7.81124896 14.8607092,6.9796973 C14.8607092,6.69046195 14.8487994,6.40122659 14.7892767,6.11199123 C14.6464048,5.48531432 14.182071,5.06351217 13.5510527,4.99120333 C13.0033776,4.9309445 12.5152312,5.07556394 12.0508974,5.37685106 C11.8246832,5.52146874 11.7294356,5.7263435 11.7294356,5.97942443 C11.7294356,6.40122659 11.7294356,6.82302786 11.7294356,7.2568809 C11.7294356,7.43765299 11.7294356,7.61842598 11.7294356,7.79919807 C11.7294356,7.76304101 11.7294356,7.76304101 11.7413454,7.76304101 L11.7413375,7.76304277 Z"/>
        <path fill="#C2BFBF" fill-rule="nonzero" d="M46.6140023 4.35247466C46.4830383 3.47271682 46.1615791 2.68937047 45.6019942 2.00243649 45.1019407 1.38781135 44.4947341.929855662 43.7684734.628568536 43.0183922.315229643 42.2206903.218818151 41.4110821.194715498 41.0777149.182660203 36.5296239.254974334 36.1962557.194715498 36.1129135.182660203 36.0533838.206761974 36.0057595.279076105 35.9462281.375488479 35.8866993.459849086 35.8509813.556260578 35.7081094.881650357 35.7081094.857547704 36.0533838.905753009 36.3391277.953956551 36.6129652.978058321 36.8868037 1.06242246 37.1368296 1.14678306 37.3154195 1.29140074 37.3749492 1.56858433 37.39876 1.70115113 37.4225708 5.94327001 37.4225708 7.91971222 37.4225708 8.38971968 37.4106611 8.85972802 37.3749492 9.32973547 37.3630394 9.43819873 37.3511383 9.54666199 37.3154178 9.64307349 37.2677961 9.78769116 37.1844512 9.90820619 37.0415793 9.96846326 36.886802 10.0407686 36.7201175 10.0889783 36.5415275 10.1010301 36.2200657 10.1371871 36.1724414 10.1492336 36.0652875 10.5107796 36.0533864 10.5589831 36.0414766 10.6071919 36.0295669 10.6433464 36.0057561 10.8000149 36.0176571 10.8241185 36.1724388 10.8241185 36.8867993 10.8361737 39.1370323 10.8602755 39.7323326 10.8602755 40.0657007 10.8482202 40.6014705 10.8843773 41.1253339 10.8361737 41.4467958 10.8000167 41.7682576 10.7759149 42.0897195 10.7156596 43.1850715 10.510784 44.1613651 10.0528283 44.9947876 9.31768812 45.4829226 8.88383508 45.8520209 8.3776732 46.1377509 7.79920248 46.4711199 7.12431939 46.6139935 6.38917923 46.6497228 5.64198818 46.7092281 5.22018603 46.6854434 4.78633299 46.6140023 4.35247995L46.6140023 4.35247466zM44.8876345 6.06378416C44.839978 6.83507874 44.6852294 7.58226979 44.2923377 8.25715288 43.7922842 9.13691073 43.0779219 9.75153586 42.0897238 9.96846238 41.661108 10.0648748 41.2324922 10.1010292 40.7919701 10.0407677 40.4705083 10.0046106 40.1609527 9.96846238 39.8633026 9.85999559 39.3275328 9.66717173 39.1370366 9.32973106 39.1251312 8.81151742 39.1013204 8.0522746 39.1251312 2.73757313 39.1132214 1.54447727 39.1132214 1.11062423 39.3037176 1.01421186 39.6132732 1.00216097 40.077607.966003909 40.5538471.978059203 41.0181808 1.02626274 41.5182326 1.07446629 41.9944727 1.19498308 42.4588064 1.38780694 42.8040809 1.53242462 43.1255427 1.73730026 43.3993803 1.97832943 44.042311 2.53269749 44.4709233 3.23168324 44.6971392 4.05118312 44.8876345 4.71401445 44.9233551 5.38889754 44.8876345 6.06377975L44.8876345 6.06378416zM56.5078844 7.24482913C56.5078844 7.17252382 56.5078844 7.11226233 56.4959485 7.03995349 56.3887955 6.37712217 56.0435167 5.87096029 55.5077513 5.48531344 55.1624725 5.2322325 54.7695808 5.06351129 54.3647706 4.94299714 54.2933294 4.91889537 54.2338067 4.8947936 54.1623742 4.88273831 54.1743101 4.82247947 54.2100307 4.810433 54.2457513 4.7983777 54.4838683 4.67786267 54.7100842 4.54529676 54.9124806 4.36452466 55.2815702 4.05118577 55.531597 3.66553892 55.6506511 3.19553146 55.7220923 2.94245052 55.7220923 2.6893687 55.6983076 2.42423688 55.6388023 1.76140555 55.3530288 1.24319191 54.8291645.857545059 54.2814893.447794673 53.6385709.279073459 52.9718329.267022574 51.6859872.242920803 50.3882318.267022574 49.1023861.267022574 48.7332965.267022574 48.3642069.291124345 47.9832163.230865509 47.9117751.218810214 47.8165318.194708443 47.7570091.27906905 47.6617571.435738497 47.566505.592407943 47.5307931.773180042 47.5188572.857540649 47.5427291.905745954 47.6379462.917797722 47.9117838.953954787 48.1856214 1.00215833 48.459459 1.03831275 48.7809182 1.08651629 49.0071341 1.26729015 49.030945 1.55652639 49.0547296 1.76140114 49.0666656 1.95422501 49.0666656 2.15909976 49.0666656 2.90629169 49.0547296 3.66553451 49.0428809 4.41272556 49.0190962 5.89505765 49.030945 7.38944063 49.030945 8.87177185 49.030945 9.13690455 48.9952244 9.38998549 48.9475679 9.6551182 48.9118473 9.8358903 48.8166039 9.95640444 48.6380097 10.0166624 48.3998927 10.0889677 48.1736768 10.1612801 47.92365 10.1612801 47.7688753 10.1612801 47.673632 10.2215389 47.6141006 10.3661548 47.566444 10.4746181 47.5188485 10.5951331 47.5069475 10.7035964 47.4831628 10.8482141 47.5188834 10.8964202 47.6617222 10.8723167 47.7688753 10.8602702 51.6978534 10.9566773 52.4360239 10.884372 52.876546 10.8361685 53.3170681 10.7759087 53.7456891 10.6433428 54.4957606 10.4023128 55.1863095 10.0528203 55.7339846 9.46229786 56.1864165 8.98023863 56.4483443 8.40176792 56.4721638 7.72688571 56.5078844 7.57021626 56.5078844 7.41354681 56.5078844 7.24482648L56.5078844 7.24482913zM50.7334757 2.31577538C50.7572604 1.9903856 50.7572604 1.67704671 50.7691963 1.35165693 50.7691963 1.17088483 50.8406375 1.08652423 51.0192231 1.05036981 51.3049704.990110971 51.5907091 1.01421274 51.8764564 1.02626804 52.162195 1.05036981 52.4360326 1.08652687 52.72178 1.17088572 53.2456443 1.32755516 53.6504458 1.62884229 53.8885715 2.13500417 53.9957246 2.36398157 54.0552473 2.61706251 54.0552473 2.87014433 54.0671832 3.20758499 54.0433114 3.53297477 53.9123823 3.85836455 53.7099772 4.30426935 53.388518 4.59350471 52.9241851 4.67786532 52.4598522 4.76222593 51.1382859 4.72606886 50.9358808 4.72606886 50.7572865 4.72606886 50.7453855 4.70196709 50.7453855 4.52119323 50.7453855 4.13554638 50.7453855 3.74989864 50.7453855 3.37630356 50.7453855 3.37630356 50.7453855 3.37630356 50.7453855 3.37630356 50.7216008 3.03886202 50.7096649 2.67731782 50.7334496 2.31577362L50.7334757 2.31577538zM54.6029311 8.79946918C54.400526 9.34178548 54.0314364 9.71538144 53.5075721 9.92025619 53.2218335 10.0287203 52.9360861 10.0889774 52.626528 10.0769256 52.2574471 10.0648703 51.8883575 10.0769256 51.5192766 10.0046203 51.0192231 9.89615707 50.7930071 9.41409784 50.7572865 9.06460541 50.6977813 8.44998028 50.7335019 7.82330337 50.721566 7.3653468 50.721566 6.72661901 50.721566 6.25661155 50.721566 5.77455233 50.721566 5.58172846 50.7453506 5.52147139 50.9477732 5.52147139 51.3168628 5.50941609 51.6859524 5.49736962 52.066943 5.53352668 52.3288708 5.55762845 52.5788976 5.58173023 52.8289243 5.62993818 53.3646984 5.7504532 53.8528422 5.95532795 54.2338328 6.37713011 54.543391 6.71457077 54.7100755 7.12432116 54.7457874 7.57022596 54.781508 7.99202723 54.7577233 8.40177762 54.6029224 8.79947624L54.6029311 8.79946918z"/>
        <path fill="#47474A" fill-rule="nonzero" d="M24.3497882 5.15992366C24.4569421 5.17197014 24.5640961 5.19608073 24.6593446 5.2081272 24.9927118 5.22017368 25.3856097 5.09966306 25.5046699 4.62965561 25.5642013 4.4006782 25.5761024 4.18375168 25.5046699 3.94272163 25.4332374 3.94272163 25.3975159 4.00298047 25.361798 4.02708224 25.183208 4.17169992 24.9808064 4.25606052 24.7664985 4.28016317 24.3378827 4.32836672 23.9092661 4.30426495 23.4925566 4.14759726 23.3020604 4.07529195 23.1115642 4.00297958 22.9091625 3.94272163 22.5043584 3.81015572 22.0757426 3.74989776 21.6471269 3.7740013 21.0399211 3.82220484 20.4684334 4.02708224 19.9326637 4.31631759 19.3611751 4.62965561 18.9563718 5.09966306 18.7658756 5.73839173 18.6587217 6.1119877 18.6468154 6.49763455 18.6944432 6.88328228 18.8135034 7.76304013 19.2659309 8.37766526 20.0755391 8.70305504 20.1231607 8.71511034 20.1588813 8.73921211 20.2065047 8.75125858 20.3136587 8.81151742 20.325565 8.87177361 20.2303156 8.95613422 20.1350679 9.02843953 20.0398202 9.1007519 19.9326663 9.16100897 19.6945458 9.30562665 19.4564262 9.45024433 19.2183057 9.60691377 19.0397158 9.71537703 19.0159041 9.79973764 19.0754338 9.99256063 19.1468663 10.2215389 19.2778363 10.4143628 19.4564262 10.5710322 19.6231098 10.7156499 19.8016998 10.8241132 20.0041022 10.9084729 20.1350679 10.9687317 20.1350679 11.0048853 20.016012 11.1012968 19.7897987 11.270018 19.5635845 11.4266865 19.3373703 11.5954077 19.1111562 11.7641281 18.8849428 11.9569519 18.6944466 12.1738785 18.4206091 12.4872165 18.3253605 12.8487607 18.4087028 13.2585111 18.5039504 13.6923641 18.7063529 14.0418574 19.0278148 14.3431437 19.3373703 14.632379 19.7064565 14.8372546 20.123166 14.9457179 20.7899022 15.1385418 21.4804502 15.1505927 22.1590919 15.0180232 23.1353837 14.8372511 23.980709 14.3913463 24.6593516 13.6562061 25.1236853 13.162096 25.3975229 12.5836253 25.4213346 11.8846396 25.4570552 11.0410362 24.9450954 10.3299986 24.1354872 10.1251239 23.9211793 10.0769204 23.7068714 10.0407633 23.4925635 10.0046089 22.8377335 9.92024826 22.1829036 9.88409384 21.5280736 9.83588853 21.3137657 9.82383324 21.0994578 9.78768499 20.9208679 9.67921909 20.6946537 9.53460141 20.635124 9.25741782 20.7779959 9.07664572 20.8851499 8.94407892 21.0161164 8.8597192 21.1828 8.84766743 21.3137657 8.83561214 21.4328259 8.82356566 21.5637916 8.81151036 22.3376818 8.72714976 23.0044172 8.41381175 23.5759058 7.88354633 23.8735551 7.60636274 24.0759575 7.25686943 24.1831115 6.85917081 24.3259834 6.34095717 24.3259834 5.81069264 24.2069223 5.28042811 24.1712017 5.14786131 24.1831115 5.13580955 24.3497943 5.15991308L24.3497882 5.15992366zM21.432819 11.1615582C21.5042514 11.1736135 21.5756909 11.1615582 21.6471269 11.1615582 22.1471786 11.18566 22.6591367 11.2218171 23.147283 11.3543821 23.3139666 11.4025856 23.4568386 11.4628454 23.6116168 11.5351542 24.087856 11.8002869 24.2664459 12.2582426 24.2069162 12.7523536 24.1354837 13.2946699 23.8378301 13.6803176 23.3734963 13.9333986 23.0639408 14.1021189 22.7186663 14.1864795 22.3614865 14.2226339 22.2305209 14.2346804 22.1114606 14.2226339 21.980495 14.2226339 21.5637846 14.2346804 21.1589814 14.1864769 20.7660836 14.0177583 20.4922451 13.909295 20.2660309 13.7526265 20.0636293 13.5356991 19.6469198 13.1138978 19.4445173 12.3426032 20.0755391 11.7159263 20.4565306 11.3543821 20.8851464 11.1133529 21.4328224 11.1615582L21.432819 11.1615582zM22.7901023 7.40149769C22.5400764 8.04022636 21.9924013 8.23305023 21.4447252 8.14868962 20.9446735 8.07638431 20.5755874 7.79919719 20.3374669 7.34124062 20.0279113 6.72661548 19.9445691 6.08788681 20.123159 5.42505637 20.2541255 4.93094538 20.5517748 4.55734941 21.0756391 4.47298969 21.7423745 4.35247466 22.3733928 4.59350383 22.7186663 5.26838692 22.8853508 5.5937767 22.9686922 5.99147532 22.9686922 6.55789515 22.9567825 6.78687256 22.9091608 7.10021145 22.7901023 7.40149769zM7.78854593 6.5819978C7.68139198 5.93121825 7.44327238 5.34069576 7.0027503 4.84658477 6.34792032 4.11144549 5.51450043 3.7981066 4.57392658 3.78605483 3.75241297 3.77400835 2.97852363 4.01503311 2.28797567 4.44888615 1.5974277 4.88273919 1.12118764 5.49736521.894973454 6.29276245.69257184 6.99174819.704478125 7.70278482.859252857 8.41382233 1.27596324 10.3179557 2.72849426 11.1374556 4.46677002 11.0169406 4.97872807 10.9807835 5.46687442 10.8120658 5.9312082 10.5830875 6.62175616 10.2576977 7.12180792 9.7394841 7.46708147 9.05255012 7.74091992 8.48613117 7.85997928 7.88355692 7.84807387 7.19662294 7.8361641 7.02790261 7.82426304 6.79892432 7.78854245 6.5819978L7.78854593 6.5819978zM6.09789444 9.25742575C5.88358654 9.83589647 5.47878244 10.1853889 4.87157673 10.2697495 4.34771327 10.3420583 3.85956692 10.2094924 3.41904484 9.89615354 3.09758299 9.65512437 2.84755711 9.35383724 2.66896719 8.99229305 2.18082172 7.97996929 2.09747946 6.91943935 2.34750535 5.83480587 2.4308476 5.49736521 2.59753123 5.19607808 2.84755711 4.95504803 3.28807919 4.54529853 3.80003724 4.44888615 4.37152497 4.56940118 4.919201 4.68991621 5.33591051 4.99120245 5.66927864 5.44915902 6.00264678 5.90711471 6.16933041 6.43738012 6.26457807 6.99174819 6.31219973 7.26893178 6.31219973 7.55816714 6.3241095 7.73893924 6.3241095 8.31740996 6.27648784 8.78741741 6.09789531 9.25742575L6.09789444 9.25742575zM33.80315 6.6784093C33.7079023 5.97942355 33.4578765 5.34069576 32.9697301 4.81043035 32.3268064 4.09939372 31.4933865 3.7981066 30.564719 3.78605483 29.767017 3.77400835 29.0288448 4.00298223 28.3502031 4.40068085 27.5882192 4.85863654 27.0643557 5.50941609 26.8619541 6.38917394 26.6238337 7.37739504 26.7190822 8.34151349 27.147698 9.25742575 27.5405958 10.1010292 28.2073312 10.6433455 29.0883754 10.8843746 30.0646672 11.1495074 30.9933347 11.0289923 31.8981906 10.5830875 32.6839862 10.1974407 33.2435686 9.59486642 33.5650304 8.77536653 33.7555257 8.2933073 33.8269617 7.77509366 33.838868 7.17252029 33.8507778 7.06405703 33.8269582 6.87123316 33.8031474 6.6784093L33.80315 6.6784093zM32.1601228 9.10075631C31.9696266 9.75153586 31.5648225 10.173338 30.8861808 10.2697495 30.386129 10.3420548 29.909889 10.221546 29.4812732 9.93230796 29.1121871 9.67922702 28.8502549 9.34178548 28.6597596 8.94408686 28.4454517 8.52228559 28.3263914 8.07638078 28.2787672 7.61842509 28.2073347 7.05200526 28.2073347 6.4976372 28.3382986 5.93121825 28.3621094 5.82275499 28.39783 5.71429173 28.4454525 5.60582847 28.7788198 4.76222505 29.516992 4.37657731 30.3861299 4.56940118 30.9695239 4.70196709 31.4100451 5.02735687 31.7434133 5.52146786 32.0648751 6.00352709 32.2196533 6.53379162 32.2910893 7.10021145 32.3268099 7.32918885 32.3387109 7.57021891 32.3268099 7.77509366 32.3268099 8.24510112 32.2910893 8.67895415 32.1601263 9.10075631L32.1601228 9.10075631z"/>
      </g>
    </g>
  </g>
</svg>
