<svg xmlns="http://www.w3.org/2000/svg" width="1600" height="1600" viewBox="0 0 1600 1600">
  <g fill="none" fill-rule="evenodd">
    <rect width="1600" height="1600" fill="#F8E71C"/>
    <g fill="#FFF" font-family="'Libre Barcode 39 Extended', cursive" font-size="50" font-style="expanded" letter-spacing="1.017" transform="translate(498 -466)">
      <text transform="rotate(-90 1077.5 1763)">
        <tspan x="802" y="1768">bitbytejoy</tspan>
      </text>
      <text transform="rotate(-90 1077.5 1177)">
        <tspan x="802" y="1182">bitbytejoy</tspan>
      </text>
      <text transform="rotate(-90 1077.5 591)">
        <tspan x="802" y="596">bitbytejoy</tspan>
      </text>
      <text transform="rotate(-90 977.5 1763)">
        <tspan x="702" y="1768">bitbytejoy</tspan>
      </text>
      <text transform="rotate(-90 977.5 1177)">
        <tspan x="702" y="1182">bitbytejoy</tspan>
      </text>
      <text transform="rotate(-90 977.5 591)">
        <tspan x="702" y="596">bitbytejoy</tspan>
      </text>
      <text transform="rotate(-90 877.5 1763)">
        <tspan x="602" y="1768">bitbytejoy</tspan>
      </text>
      <text transform="rotate(-90 877.5 1177)">
        <tspan x="602" y="1182">bitbytejoy</tspan>
      </text>
      <text transform="rotate(-90 877.5 591)">
        <tspan x="602" y="596">bitbytejoy</tspan>
      </text>
      <text transform="rotate(-90 1027.5 866)">
        <tspan x="752" y="871">bitbytejoy</tspan>
      </text>
      <text transform="rotate(-90 1027.5 280)">
        <tspan x="752" y="285">bitbytejoy</tspan>
      </text>
      <text transform="rotate(-90 1027.5 1452)">
        <tspan x="752" y="1457">bitbytejoy</tspan>
      </text>
      <text transform="rotate(-90 1027.5 2038)">
        <tspan x="752" y="2043">bitbytejoy</tspan>
      </text>
      <text transform="rotate(-90 927.5 866)">
        <tspan x="652" y="871">bitbytejoy</tspan>
      </text>
      <text transform="rotate(-90 927.5 280)">
        <tspan x="652" y="285">bitbytejoy</tspan>
      </text>
      <text transform="rotate(-90 927.5 1452)">
        <tspan x="652" y="1457">bitbytejoy</tspan>
      </text>
      <text transform="rotate(-90 927.5 2038)">
        <tspan x="652" y="2043">bitbytejoy</tspan>
      </text>
      <text transform="rotate(-90 827.5 866)">
        <tspan x="552" y="871">bitbytejoy</tspan>
      </text>
      <text transform="rotate(-90 827.5 280)">
        <tspan x="552" y="285">bitbytejoy</tspan>
      </text>
      <text transform="rotate(-90 827.5 1452)">
        <tspan x="552" y="1457">bitbytejoy</tspan>
      </text>
      <text transform="rotate(-90 827.5 2038)">
        <tspan x="552" y="2043">bitbytejoy</tspan>
      </text>
      <text transform="rotate(-90 777 1762.5)">
        <tspan x="501.5" y="1767.5">bitbytejoy</tspan>
      </text>
      <text transform="rotate(-90 777 1176.5)">
        <tspan x="501.5" y="1181.5">bitbytejoy</tspan>
      </text>
      <text transform="rotate(-90 777 590.5)">
        <tspan x="501.5" y="595.5">bitbytejoy</tspan>
      </text>
      <text transform="rotate(-90 677 1762.5)">
        <tspan x="401.5" y="1767.5">bitbytejoy</tspan>
      </text>
      <text transform="rotate(-90 677 1176.5)">
        <tspan x="401.5" y="1181.5">bitbytejoy</tspan>
      </text>
      <text transform="rotate(-90 677 590.5)">
        <tspan x="401.5" y="595.5">bitbytejoy</tspan>
      </text>
      <text transform="rotate(-90 577 1762.5)">
        <tspan x="301.5" y="1767.5">bitbytejoy</tspan>
      </text>
      <text transform="rotate(-90 577 1176.5)">
        <tspan x="301.5" y="1181.5">bitbytejoy</tspan>
      </text>
      <text transform="rotate(-90 577 590.5)">
        <tspan x="301.5" y="595.5">bitbytejoy</tspan>
      </text>
      <text transform="rotate(-90 727 865.5)">
        <tspan x="451.5" y="870.5">bitbytejoy</tspan>
      </text>
      <text transform="rotate(-90 727 279.5)">
        <tspan x="451.5" y="284.5">bitbytejoy</tspan>
      </text>
      <text transform="rotate(-90 727 1451.5)">
        <tspan x="451.5" y="1456.5">bitbytejoy</tspan>
      </text>
      <text transform="rotate(-90 727 2037.5)">
        <tspan x="451.5" y="2042.5">bitbytejoy</tspan>
      </text>
      <text transform="rotate(-90 627 865.5)">
        <tspan x="351.5" y="870.5">bitbytejoy</tspan>
      </text>
      <text transform="rotate(-90 627 279.5)">
        <tspan x="351.5" y="284.5">bitbytejoy</tspan>
      </text>
      <text transform="rotate(-90 627 1451.5)">
        <tspan x="351.5" y="1456.5">bitbytejoy</tspan>
      </text>
      <text transform="rotate(-90 627 2037.5)">
        <tspan x="351.5" y="2042.5">bitbytejoy</tspan>
      </text>
      <text transform="rotate(-90 527 865.5)">
        <tspan x="251.5" y="870.5">bitbytejoy</tspan>
      </text>
      <text transform="rotate(-90 527 279.5)">
        <tspan x="251.5" y="284.5">bitbytejoy</tspan>
      </text>
      <text transform="rotate(-90 527 1451.5)">
        <tspan x="251.5" y="1456.5">bitbytejoy</tspan>
      </text>
      <text transform="rotate(-90 527 2037.5)">
        <tspan x="251.5" y="2042.5">bitbytejoy</tspan>
      </text>
      <text transform="rotate(-90 476.5 1762.5)">
        <tspan x="201" y="1767.5">bitbytejoy</tspan>
      </text>
      <text transform="rotate(-90 476.5 1176.5)">
        <tspan x="201" y="1181.5">bitbytejoy</tspan>
      </text>
      <text transform="rotate(-90 476.5 590.5)">
        <tspan x="201" y="595.5">bitbytejoy</tspan>
      </text>
      <text transform="rotate(-90 376.5 1762.5)">
        <tspan x="101" y="1767.5">bitbytejoy</tspan>
      </text>
      <text transform="rotate(-90 376.5 1176.5)">
        <tspan x="101" y="1181.5">bitbytejoy</tspan>
      </text>
      <text transform="rotate(-90 376.5 590.5)">
        <tspan x="101" y="595.5">bitbytejoy</tspan>
      </text>
      <text transform="rotate(-90 276.5 1762.5)">
        <tspan x="1" y="1767.5">bitbytejoy</tspan>
      </text>
      <text transform="rotate(-90 276.5 1176.5)">
        <tspan x="1" y="1181.5">bitbytejoy</tspan>
      </text>
      <text transform="rotate(-90 276.5 590.5)">
        <tspan x="1" y="595.5">bitbytejoy</tspan>
      </text>
      <text transform="rotate(-90 426.5 865.5)">
        <tspan x="151" y="870.5">bitbytejoy</tspan>
      </text>
      <text transform="rotate(-90 426.5 279.5)">
        <tspan x="151" y="284.5">bitbytejoy</tspan>
      </text>
      <text transform="rotate(-90 426.5 1451.5)">
        <tspan x="151" y="1456.5">bitbytejoy</tspan>
      </text>
      <text transform="rotate(-90 426.5 2037.5)">
        <tspan x="151" y="2042.5">bitbytejoy</tspan>
      </text>
      <text transform="rotate(-90 326.5 865.5)">
        <tspan x="51" y="870.5">bitbytejoy</tspan>
      </text>
      <text transform="rotate(-90 326.5 279.5)">
        <tspan x="51" y="284.5">bitbytejoy</tspan>
      </text>
      <text transform="rotate(-90 326.5 1451.5)">
        <tspan x="51" y="1456.5">bitbytejoy</tspan>
      </text>
      <text transform="rotate(-90 326.5 2037.5)">
        <tspan x="51" y="2042.5">bitbytejoy</tspan>
      </text>
      <text transform="rotate(-90 226.5 865.5)">
        <tspan x="-49" y="870.5">bitbytejoy</tspan>
      </text>
      <text transform="rotate(-90 226.5 279.5)">
        <tspan x="-49" y="284.5">bitbytejoy</tspan>
      </text>
      <text transform="rotate(-90 226.5 1451.5)">
        <tspan x="-49" y="1456.5">bitbytejoy</tspan>
      </text>
      <text transform="rotate(-90 226.5 2037.5)">
        <tspan x="-49" y="2042.5">bitbytejoy</tspan>
      </text>
      <text transform="rotate(-90 175.5 1745.5)">
        <tspan x="-100" y="1750.5">bitbytejoy</tspan>
      </text>
      <text transform="rotate(-90 175.5 1159.5)">
        <tspan x="-100" y="1164.5">bitbytejoy</tspan>
      </text>
      <text transform="rotate(-90 175.5 573.5)">
        <tspan x="-100" y="578.5">bitbytejoy</tspan>
      </text>
      <text transform="rotate(-90 75.5 1758.5)">
        <tspan x="-200" y="1763.5">bitbytejoy</tspan>
      </text>
      <text transform="rotate(-90 75.5 1172.5)">
        <tspan x="-200" y="1177.5">bitbytejoy</tspan>
      </text>
      <text transform="rotate(-90 75.5 586.5)">
        <tspan x="-200" y="591.5">bitbytejoy</tspan>
      </text>
      <text transform="rotate(-90 125.5 861.5)">
        <tspan x="-150" y="866.5">bitbytejoy</tspan>
      </text>
      <text transform="rotate(-90 125.5 275.5)">
        <tspan x="-150" y="280.5">bitbytejoy</tspan>
      </text>
      <text transform="rotate(-90 125.5 1447.5)">
        <tspan x="-150" y="1452.5">bitbytejoy</tspan>
      </text>
      <text transform="rotate(-90 125.5 2033.5)">
        <tspan x="-150" y="2038.5">bitbytejoy</tspan>
      </text>
      <text transform="rotate(-90 25.5 861.5)">
        <tspan x="-250" y="866.5">bitbytejoy</tspan>
      </text>
      <text transform="rotate(-90 25.5 275.5)">
        <tspan x="-250" y="280.5">bitbytejoy</tspan>
      </text>
      <text transform="rotate(-90 25.5 1447.5)">
        <tspan x="-250" y="1452.5">bitbytejoy</tspan>
      </text>
      <text transform="rotate(-90 25.5 2033.5)">
        <tspan x="-250" y="2038.5">bitbytejoy</tspan>
      </text>
    </g>
    <g transform="translate(650 425)">
      <g transform="translate(6.125 455)">
        <path fill="#5D5D5D" d="M65.3068182,57.1729452 L65.3068182,5 C65.3068182,2.23857625 67.5453944,5.07265313e-16 70.3068182,0 L217.806818,0 C220.568242,-5.07265313e-16 222.806818,2.23857625 222.806818,5 L222.806818,53.8035103 L222.806818,308.255993 C222.806818,311.017417 220.568242,313.255993 217.806818,313.255993 L168.147727,313.255993 C165.386304,313.255993 163.147727,311.017417 163.147727,308.255993 L163.147727,62.1729452 L124.965909,62.1729452 L124.965909,308.255993 C124.965909,311.017417 122.727333,313.255993 119.965909,313.255993 L70.3068182,313.255993 C67.5453944,313.255993 65.3068182,311.017417 65.3068182,308.255993 L65.3068182,57.1729452 Z"/>
        <g transform="translate(148.83 246.3)">
          <rect width="95.455" height="71.738" y="31.086" fill="#545454" rx="5"/>
          <path fill="#545454" d="M62.2727273,0 L95.4545455,0 L95.4545455,71.7380137 L57.2727273,71.7380137 L57.2727273,5 C57.2727273,2.23857625 59.5113035,1.39544373e-15 62.2727273,8.8817842e-16 Z"/>
          <path fill="#545454" d="M54.8863636,45.4340753 L130.795455,45.4340753 C136.318302,45.4340753 140.795455,49.9112278 140.795455,55.4340753 L140.795455,102.824486 L54.8863636,102.824486 L54.8863636,45.4340753 Z"/>
          <path fill="#558DEB" d="M5 16.7388699L64.2045455 16.7388699C66.9659692 16.7388699 69.2045455 18.9774461 69.2045455 21.7388699L69.2045455 61.9554795C69.2045455 64.7169032 66.9659692 66.9554795 64.2045455 66.9554795L0 66.9554795 0 21.7388699C-3.38176876e-16 18.9774461 2.23857625 16.7388699 5 16.7388699zM83.1363636 11.9563356L95.4545455 11.9563356 95.4545455 35.8690068 83.1363636 35.8690068C82.0317941 35.8690068 81.1363636 34.9735763 81.1363636 33.8690068L81.1363636 13.9563356C81.1363636 12.8517661 82.0317941 11.9563356 83.1363636 11.9563356z"/>
          <rect width="140.795" height="2.391" y="86.086" fill="#558DEB"/>
          <path fill="#FFF" d="M89.9739259,51.4146949 L103.821529,51.4146949 L103.821529,53.8010585 L89.9739259,53.8010585 C89.6977835,53.8010585 89.4739259,53.5772009 89.4739259,53.3010585 L89.4739259,51.9146949 C89.4739259,51.6385525 89.6977835,51.4146949 89.9739259,51.4146949 Z" transform="rotate(-90 96.648 52.608)"/>
          <path fill="#FFF" d="M97.1330168,51.4146949 L110.98062,51.4146949 L110.98062,53.8010585 L97.1330168,53.8010585 C96.8568744,53.8010585 96.6330168,53.5772009 96.6330168,53.3010585 L96.6330168,51.9146949 C96.6330168,51.6385525 96.8568744,51.4146949 97.1330168,51.4146949 Z" transform="rotate(-90 103.807 52.608)"/>
        </g>
        <g transform="matrix(-1 0 0 1 141.67 246.3)">
          <rect width="95.455" height="71.738" y="31.086" fill="#545454" rx="5"/>
          <path fill="#545454" d="M62.2727273,0 L95.4545455,0 L95.4545455,71.7380137 L57.2727273,71.7380137 L57.2727273,5 C57.2727273,2.23857625 59.5113035,1.39544373e-15 62.2727273,8.8817842e-16 Z"/>
          <path fill="#545454" d="M54.8863636,45.4340753 L130.795455,45.4340753 C136.318302,45.4340753 140.795455,49.9112278 140.795455,55.4340753 L140.795455,102.824486 L54.8863636,102.824486 L54.8863636,45.4340753 Z"/>
          <path fill="#558DEB" d="M5 16.7388699L64.2045455 16.7388699C66.9659692 16.7388699 69.2045455 18.9774461 69.2045455 21.7388699L69.2045455 61.9554795C69.2045455 64.7169032 66.9659692 66.9554795 64.2045455 66.9554795L0 66.9554795 0 21.7388699C-3.38176876e-16 18.9774461 2.23857625 16.7388699 5 16.7388699zM83.1363636 11.9563356L95.4545455 11.9563356 95.4545455 35.8690068 83.1363636 35.8690068C82.0317941 35.8690068 81.1363636 34.9735763 81.1363636 33.8690068L81.1363636 13.9563356C81.1363636 12.8517661 82.0317941 11.9563356 83.1363636 11.9563356z"/>
          <rect width="140.795" height="2.391" y="86.086" fill="#558DEB"/>
          <path fill="#FFF" d="M89.9739259,51.4146949 L103.821529,51.4146949 L103.821529,53.8010585 L89.9739259,53.8010585 C89.6977835,53.8010585 89.4739259,53.5772009 89.4739259,53.3010585 L89.4739259,51.9146949 C89.4739259,51.6385525 89.6977835,51.4146949 89.9739259,51.4146949 Z" transform="rotate(-90 96.648 52.608)"/>
          <path fill="#FFF" d="M97.1330168,51.4146949 L110.98062,51.4146949 L110.98062,53.8010585 L97.1330168,53.8010585 C96.8568744,53.8010585 96.6330168,53.5772009 96.6330168,53.3010585 L96.6330168,51.9146949 C96.6330168,51.6385525 96.8568744,51.4146949 97.1330168,51.4146949 Z" transform="rotate(-90 103.807 52.608)"/>
        </g>
      </g>
      <g transform="translate(0 132.125)">
        <path fill="#FFEDDF" d="M45.3888889,401.953125 L58.1111111,401.953125 L65.2777778,401.953125 C67.4869168,401.953125 69.2777778,403.743986 69.2777778,405.953125 L69.2777778,431.449219 C69.2777778,433.658358 67.4869168,435.449219 65.2777778,435.449219 L62.1111111,435.449219 L62.1111111,455.375 C62.1111111,457.584139 60.3202501,459.375 58.1111111,459.375 L8.77777778,459.375 C6.56863878,459.375 4.77777778,457.584139 4.77777778,455.375 L4.77777778,405.953125 C4.77777778,403.743986 6.56863878,401.953125 8.77777778,401.953125 L11.9444444,401.953125 L11.9444444,391.597656 C11.9444444,389.388517 13.7353054,387.597656 15.9444444,387.597656 L41.3888889,387.597656 C43.5980279,387.597656 45.3888889,389.388517 45.3888889,391.597656 L45.3888889,401.953125 Z"/>
        <path fill="#FFEDDF" d="M272.333333,401.953125 L285.055556,401.953125 L292.222222,401.953125 C294.431361,401.953125 296.222222,403.743986 296.222222,405.953125 L296.222222,431.449219 C296.222222,433.658358 294.431361,435.449219 292.222222,435.449219 L289.055556,435.449219 L289.055556,455.375 C289.055556,457.584139 287.264695,459.375 285.055556,459.375 L235.722222,459.375 C233.513083,459.375 231.722222,457.584139 231.722222,455.375 L231.722222,405.953125 C231.722222,403.743986 233.513083,401.953125 235.722222,401.953125 L238.888889,401.953125 L238.888889,391.597656 C238.888889,389.388517 240.67975,387.597656 242.888889,387.597656 L268.333333,387.597656 C270.542472,387.597656 272.333333,389.388517 272.333333,391.597656 L272.333333,401.953125 Z" transform="matrix(-1 0 0 1 527.944 0)"/>
        <g fill="#3E3E3E" transform="translate(0 74.17)">
          <path d="M236.5,255.199852 L236.5,260.576172 C236.5,263.337596 234.261424,265.576172 231.5,265.576172 L69.5,265.576172 C66.7385763,265.576172 64.5,263.337596 64.5,260.576172 L64.5,256.591646 C53.1297954,250.540495 45.3888889,238.569748 45.3888889,224.791016 L45.3888889,36 C45.3888889,16.117749 61.5066379,1.7863165e-14 81.3888889,1.42108547e-14 L217.222222,0 C237.104473,-3.65231026e-15 253.222222,16.117749 253.222222,36 L253.222222,224.791016 C253.222222,237.58154 246.551851,248.814116 236.5,255.199852 Z"/>
          <path d="M52.5555556 295.827599L52.5555556 318.998047C52.5555556 321.207186 50.7646946 322.998047 48.5555556 322.998047L8.77777778 322.998047C6.56863878 322.998047 4.77777778 321.207186 4.77777778 318.998047L4.77777778 295.827599C1.7589518 291.287247-3.67091037e-14 285.836992-4.26325641e-14 279.975911L0 76.5182292C-1.93888075e-15 60.6860663 12.8345038 47.8515625 28.6666667 47.8515625 44.4988295 47.8515625 57.3333333 60.6860663 57.3333333 76.5182292L57.3333333 279.975911C57.3333333 285.836992 55.5743815 291.287247 52.5555556 295.827599zM296.222222 295.827599L296.222222 318.998047C296.222222 321.207186 294.431361 322.998047 292.222222 322.998047L252.444444 322.998047C250.235305 322.998047 248.444444 321.207186 248.444444 318.998047L248.444444 295.827599C245.425618 291.287247 243.666667 285.836992 243.666667 279.975911L243.666667 76.5182292C243.666667 60.6860663 256.501171 47.8515625 272.333333 47.8515625 288.165496 47.8515625 301 60.6860663 301 76.5182292L301 279.975911C301 285.836992 299.241048 291.287247 296.222222 295.827599z"/>
        </g>
        <g transform="translate(9.556)">
          <rect width="281.889" height="200.977" fill="#3E3E3E" rx="36"/>
          <g fill="#D8D8D8" transform="translate(105.111 155.518)">
            <rect width="11.944" height="110.059" x="59.722" rx="2.5"/>
            <rect width="11.944" height="119.629" rx="2.5"/>
          </g>
        </g>
      </g>
      <g transform="translate(81.375 143.5)">
        <circle cx="68.25" cy="68.25" r="68.25" fill="#FFEDDF"/>
        <path fill="#A99F97" d="M26.3541189,122.131579 C11.2101451,110.339394 1.16798417,92.302821 0.0953863538,71.8896107 C2.85028123,70.3346604 6.03204786,69.4473684 9.42105263,69.4473684 L129.473684,69.4473684 C131.938326,69.4473684 134.293361,69.9166458 136.454313,70.7707226 C135.696505,91.6430458 125.565966,110.124394 110.145881,122.131579 L26.3541189,122.131579 Z"/>
      </g>
      <path fill="#FFEDDF" d="M35.8333333,119.693396 L35.8333333,19 C35.8333333,8.50658975 44.3399231,1.92760819e-15 54.8333333,0 L248.555556,0 C259.048966,1.67124329e-14 267.555556,8.50658975 267.555556,19 L267.555556,119.693396 L282,119.693396 C292.49341,119.693396 301,128.199986 301,138.693396 L301,184.478774 C301,194.972184 292.49341,203.478774 282,203.478774 L267.555556,203.478774 L267.555556,234.75 C267.555556,245.24341 259.048966,253.75 248.555556,253.75 L54.8333333,253.75 C44.3399231,253.75 35.8333333,245.24341 35.8333333,234.75 L35.8333333,203.478774 L19,203.478774 C8.50658975,203.478774 4.83778581e-15,194.972184 3.55271368e-15,184.478774 L3.55271368e-15,138.693396 C2.26764155e-15,128.199986 8.50658975,119.693396 19,119.693396 L35.8333333,119.693396 Z"/>
      <path fill="#9E721E" d="M46.3772301,57.0397471 C51.612987,64.6987674 54.9693396,76.5138792 54.9693396,89.7700472 C54.9693396,112.858618 44.7875134,131.575603 32.2275943,131.575603 C31.8261014,131.575603 31.4270384,131.556477 31.0306604,131.518694 L31.0306604,48.0214002 C31.0389576,48.0206093 31.047256,48.0198266 31.0555556,48.0190521 L31.0555556,19 C31.0555556,8.50658975 39.5621453,1.92760819e-15 50.0555556,0 L250.944444,0 C261.437855,1.67124329e-14 269.944444,8.50658975 269.944444,19 L269.944444,48.0190521 C269.952744,48.0198266 269.961042,48.0206093 269.96934,48.0214002 L269.96934,131.518694 C269.572962,131.556477 269.173899,131.575603 268.772406,131.575603 C256.212487,131.575603 246.03066,112.858618 246.03066,89.7700472 C246.03066,76.0473232 249.627427,63.8688776 255.182513,56.2466235 C253.119189,55.4786667 250.886386,55.0589623 248.555556,55.0589623 L54.8333333,55.0589623 C51.7953663,55.0589623 48.9239288,55.7719602 46.3772301,57.0397471 Z"/>
      <ellipse cx="215" cy="143.632" fill="#84C6FF" rx="11.944" ry="11.969"/>
      <ellipse cx="86" cy="143.632" fill="#84C6FF" rx="11.944" ry="11.969"/>
      <path fill="#FFF" d="M109.888889,181.933962 L195.888889,181.933962 C195.888889,205.731704 176.637133,225.023585 152.888889,225.023585 C129.140645,225.023585 109.888889,205.731704 109.888889,181.933962 Z"/>
      <path fill="#FFC7C7" d="M194.208226,193.903302 C189.032247,211.877811 172.492555,225.023585 152.888889,225.023585 C133.285223,225.023585 116.745531,211.877811 111.569552,193.903302 L194.208226,193.903302 Z"/>
      <rect width="59.722" height="19.151" x="179.167" y="100.542" fill="#9E721E" rx="3"/>
      <rect width="59.722" height="19.151" x="62.111" y="100.542" fill="#9E721E" rx="3"/>
    </g>
    <text fill="#FFF" font-family="'Monoton', cursive" font-size="300" letter-spacing="6.1" transform="rotate(-90 233.5 800.5)">
      <tspan x="-453.794" y="914">myself</tspan>
    </text>
  </g>
</svg>
