<svg xmlns="http://www.w3.org/2000/svg" width="93" height="93" viewBox="0 0 93 93">
  <g fill-rule="evenodd" transform="translate(0 19)">
    <path fill-rule="nonzero" d="M21.988523,14.6191386 L39.4918249,14.6191386 L39.4918249,15.9997117 L23.5929923,15.9997117 L23.5929923,26.3903406 L38.5437293,26.3903406 L38.5437293,27.7709137 L23.5929923,27.7709137 L23.5929923,39.178807 L39.6741509,39.178807 L39.6741509,40.55938 L21.988523,40.55938 L21.988523,14.6191386 Z M41.0598291,14.6191386 L42.9195549,14.6191386 L51.1606928,26.0270319 L59.5841568,14.6191386 L71.0414412,0.128490796 L52.2181838,27.2259506 L61.9179303,40.55938 L59.9852743,40.55938 L51.1606928,28.4248693 L42.2996462,40.55938 L40.4034553,40.55938 L50.1761321,27.2259506 L41.0598291,14.6191386 Z M62.6107696,15.9997116 L62.6107696,14.6191386 L82.5572406,14.6191386 L82.5572406,15.9997117 L73.3680071,15.9997117 L73.3680071,40.55938 L71.7635376,40.55938 L71.7635376,15.9997117 L62.6107696,15.9997116 Z"/>
    <polygon points=".091 14.619 2.097 14.619 29.753 55.688 18.324 40.559 1.769 16.581 1.696 40.559 .091 40.559"/>
    <path fill-rule="nonzero" d="M82.3955839,38.7621795 C82.7272909,38.7621795 82.9692419,38.5101282 82.9692419,38.1844006 C82.9692419,37.8586727 82.7272909,37.6066214 82.3955839,37.6066214 C82.0677794,37.6066214 81.8219258,37.8586727 81.8219258,38.1844006 C81.8219258,38.5101282 82.0677794,38.7621795 82.3955839,38.7621795 Z M83.9721678,37.2421161 C83.9721678,38.2037891 84.6707037,38.8319783 85.6892394,38.8319783 C86.7741163,38.8319783 87.4297253,38.1844006 87.4297253,37.0598636 L87.4297253,33.100719 L86.5555798,33.100719 L86.5555798,37.0559859 C86.5555798,37.6802977 86.2394826,38.0137811 85.6814344,38.0137811 C85.1819228,38.0137811 84.8424107,37.7035639 84.8307035,37.2421161 L83.9721678,37.2421161 Z M88.5731388,37.1917061 C88.6355781,38.1921558 89.4746014,38.8319783 90.7233808,38.8319783 C92.0580137,38.8319783 92.8931348,38.1611343 92.8931348,37.0908855 C92.8931348,36.2494216 92.4170379,35.7840964 91.261917,35.516534 L90.6414298,35.3653033 C89.9077718,35.1946838 89.6111869,34.9658988 89.6111869,34.5664946 C89.6111869,34.0623917 90.071674,33.7327863 90.7624052,33.7327863 C91.4180142,33.7327863 91.8706969,34.0546365 91.9526479,34.5703721 L92.8033788,34.5703721 C92.7526471,33.6280879 91.917526,32.9649991 90.7741125,32.9649991 C89.5448454,32.9649991 88.7253338,33.6280879 88.7253338,34.6246602 C88.7253338,35.4467352 89.1897238,35.935327 90.2082595,36.1718676 L90.9341122,36.3463645 C91.6794776,36.5208618 92.0072821,36.7767908 92.0072821,37.2033391 C92.0072821,37.6996865 91.4921607,38.0603137 90.7897223,38.0603137 C90.0365522,38.0603137 89.5136258,37.7229528 89.4394796,37.1917061 L88.5731388,37.1917061 Z"/>
  </g>
</svg>
