<svg xmlns="http://www.w3.org/2000/svg" xmlns:xlink="http://www.w3.org/1999/xlink" width="93" height="93" viewBox="0 0 93 93">
  <defs>
    <linearGradient id="nodejs-a" x1="68.14%" x2="27.833%" y1="17.48%" y2="89.719%">
      <stop offset="0%" stop-color="#41873F"/>
      <stop offset="32.88%" stop-color="#418B3D"/>
      <stop offset="63.52%" stop-color="#419637"/>
      <stop offset="93.19%" stop-color="#3FA92D"/>
      <stop offset="100%" stop-color="#3FAE2A"/>
    </linearGradient>
    <path id="nodejs-b" d="M10.7153103,0.149031609 C10.3788,-0.039908046 9.96404138,-0.039908046 9.62774483,0.149031609 L0.619786207,5.20280364 C0.282848276,5.3917433 0.0754689655,5.74073084 0.0754689655,6.11902586 L0.0754689655,16.2344684 C0.0754689655,16.6123477 0.282848276,16.9613352 0.619358621,17.1506906 L9.62731724,22.2086197 C9.96404138,22.3975594 10.3788,22.3975594 10.7157379,22.2086197 L19.7215586,17.1506906 C20.058069,16.9615431 20.2652345,16.6123477 20.2652345,16.2344684 L20.2652345,6.11861015 C20.2652345,5.74073084 20.0578552,5.3917433 19.721131,5.20280364 L10.7153103,0.149031609 Z"/>
    <linearGradient id="nodejs-d" x1="43.24%" x2="159.15%" y1="55.222%" y2="-18.301%">
      <stop offset="13.76%" stop-color="#41873F"/>
      <stop offset="40.32%" stop-color="#54A044"/>
      <stop offset="71.36%" stop-color="#66B848"/>
      <stop offset="90.81%" stop-color="#6CC04A"/>
    </linearGradient>
    <path id="nodejs-e" d="M10.7153103,0.149031609 C10.3788,-0.039908046 9.96404138,-0.039908046 9.62774483,0.149031609 L0.619786207,5.20280364 C0.282848276,5.3917433 0.0754689655,5.74073084 0.0754689655,6.11902586 L0.0754689655,16.2344684 C0.0754689655,16.6123477 0.282848276,16.9613352 0.619358621,17.1506906 L9.62731724,22.2086197 C9.96404138,22.3975594 10.3788,22.3975594 10.7157379,22.2086197 L19.7215586,17.1506906 C20.058069,16.9615431 20.2652345,16.6123477 20.2652345,16.2344684 L20.2652345,6.11861015 C20.2652345,5.74073084 20.0578552,5.3917433 19.721131,5.20280364 L10.7153103,0.149031609 Z"/>
    <linearGradient id="nodejs-g" x1="-4407.17%" x2="5334.53%" y1="50%" y2="50%">
      <stop offset="9.19%" stop-color="#6CC04A"/>
      <stop offset="28.64%" stop-color="#66B848"/>
      <stop offset="59.68%" stop-color="#54A044"/>
      <stop offset="86.24%" stop-color="#41873F"/>
    </linearGradient>
    <linearGradient id="nodejs-h" x1="-4.478%" x2="101.565%" y1="50%" y2="50%">
      <stop offset="9.19%" stop-color="#6CC04A"/>
      <stop offset="28.64%" stop-color="#66B848"/>
      <stop offset="59.68%" stop-color="#54A044"/>
      <stop offset="86.24%" stop-color="#41873F"/>
    </linearGradient>
    <linearGradient id="nodejs-i" x1="-9677.72%" x2="63.98%" y1="50%" y2="50%">
      <stop offset="9.19%" stop-color="#6CC04A"/>
      <stop offset="28.64%" stop-color="#66B848"/>
      <stop offset="59.68%" stop-color="#54A044"/>
      <stop offset="86.24%" stop-color="#41873F"/>
    </linearGradient>
    <linearGradient id="nodejs-j" x1="-103.698%" x2="100.586%" y1="50%" y2="50%">
      <stop offset="9.19%" stop-color="#6CC04A"/>
      <stop offset="28.64%" stop-color="#66B848"/>
      <stop offset="59.68%" stop-color="#54A044"/>
      <stop offset="86.24%" stop-color="#41873F"/>
    </linearGradient>
    <linearGradient id="nodejs-k" x1="130.347%" x2="4.358%" y1="-211.047%" y2="201.156%">
      <stop offset="0%" stop-color="#41873F"/>
      <stop offset="32.88%" stop-color="#418B3D"/>
      <stop offset="63.52%" stop-color="#419637"/>
      <stop offset="93.19%" stop-color="#3FA92D"/>
      <stop offset="100%" stop-color="#3FAE2A"/>
    </linearGradient>
  </defs>
  <g fill="none" fill-rule="evenodd" transform="translate(0 18)">
    <g fill="#699F63" transform="translate(36.345 34.207)">
      <path d="M10.1454317,22.2552207 C9.84284905,22.2552207 9.54192435,22.177468 9.27706087,22.0264524 L6.51257424,20.4158906 C6.09994265,20.1883467 6.30159536,20.1079411 6.43755032,20.0612078 C6.98820936,19.8730505 7.09970901,19.8295824 7.68746552,19.5014295 C7.7486038,19.467553 7.82984518,19.4804097 7.89305595,19.5169392 L10.0167305,20.7585329 C10.0938269,20.8005724 10.2024251,20.8005724 10.2730968,20.7585329 L18.552671,16.0529661 C18.6297674,16.0097022 18.6790925,15.922358 18.6790925,15.8323608 L18.6790925,6.42388025 C18.6790925,6.33184232 18.6295602,6.24592665 18.5505985,6.19919342 L10.2745475,1.49770815 C10.1982801,1.4536279 10.0965211,1.4536279 10.0194247,1.49770815 L1.74544616,6.20062194 C1.66503378,6.24592665 1.61405067,6.33469937 1.61405067,6.42388025 L1.61405067,15.8323608 C1.61405067,15.922358 1.66482653,16.0076614 1.74461717,16.0503132 L4.01274384,17.3406809 C5.24338494,17.9465803 5.99673293,17.2329292 5.99673293,16.5160129 L5.99673293,7.22650815 C5.99673293,7.09528777 6.10408761,6.99161755 6.23734835,6.99161755 L7.28726882,6.99161755 C7.41866432,6.99161755 7.52726249,7.09528777 7.52726249,7.22650815 L7.52726249,16.5160129 C7.52726249,18.1333091 6.63277833,19.060831 5.07572097,19.060831 C4.59718438,19.060831 4.22040676,19.060831 3.16862104,18.5504389 L0.997486629,17.3196611 C0.461334975,17.0143646 0.129115764,16.4435661 0.129115764,15.8323608 L0.129115764,6.42388025 C0.129115764,5.81267492 0.461127727,5.24187649 0.997486629,4.93800846 L9.27706087,0.226931661 C9.80098487,-0.0648959248 10.4973395,-0.0648959248 11.0171186,0.226931661 L19.2960711,4.93800846 C19.8322227,5.24330502 20.1656854,5.81267492 20.1656854,6.42388025 L20.1656854,15.8323608 C20.1656854,16.4435661 19.8322227,17.0123238 19.2960711,17.3196611 L11.0171186,22.0266564 C10.7524624,22.177468 10.4521594,22.2552207 10.1454317,22.2552207 Z"/>
      <path d="M12.7028772,15.7733831 C9.07976038,15.7733831 8.32081668,14.1358834 8.32081668,12.762253 C8.32081668,12.6316448 8.42734236,12.5273624 8.5601886,12.5273624 L9.63062667,12.5273624 C9.75020901,12.5273624 9.8498955,12.6120536 9.86854785,12.727152 C10.0302016,13.8001796 10.5120542,14.3417953 12.7030844,14.3417953 C14.4472871,14.3417953 15.1898582,13.9532361 15.1898582,13.0420401 C15.1898582,12.5167505 14.9795011,12.1267627 12.2686918,11.8653423 C10.0034666,11.644737 8.60226003,11.1518953 8.60226003,9.36725737 C8.60226003,7.7222069 10.0103058,6.74121724 12.3712797,6.74121724 C15.023645,6.74121724 16.3361492,7.64771944 16.5023624,9.59255643 C16.5085799,9.6594931 16.4845391,9.72398088 16.4391517,9.77397931 C16.3937643,9.82071254 16.3305535,9.849079 16.2638195,9.849079 L15.1892365,9.849079 C15.0779441,9.849079 14.9795011,9.77132633 14.956911,9.66500313 C14.6990939,8.53585486 14.0721675,8.17504984 12.3712797,8.17504984 C10.466874,8.17504984 10.2455327,8.82829467 10.2455327,9.31766708 C10.2455327,9.91070972 10.506873,10.0833574 13.0779968,10.4184489 C15.6223856,10.7494589 16.8310584,11.2186279 16.8310584,12.979389 C16.8306439,14.7558639 15.3264349,15.7733831 12.7028772,15.7733831 Z"/>
    </g>
    <path fill="#699F63" fill-rule="nonzero" d="M59.862069,40.0864151 C59.862069,40.9685199 59.1408401,41.6896552 58.2586207,41.6896552 C57.3845237,41.6896552 56.6551724,40.9770578 56.6551724,40.0864151 C56.6551724,39.1786968 57.4020182,38.4827586 58.2586207,38.4827586 C59.1241787,38.4827586 59.862069,39.1786968 59.862069,40.0864151 Z M56.9140484,40.0818339 C56.9140484,40.8285826 57.5163568,41.431021 58.2542471,41.431021 C59.0010928,41.431021 59.6036095,40.81588 59.6036095,40.0818339 C59.6036095,39.3355016 58.9929704,38.741601 58.2542471,38.741601 C57.5246875,38.7418092 56.9140484,39.3267555 56.9140484,40.0818339 Z M57.656104,39.1870264 L58.2759069,39.1870264 C58.4879227,39.1870264 58.9038321,39.1870264 58.9038321,39.6622302 C58.9038321,39.9931236 58.6918162,40.0608016 58.5639402,40.1032826 C58.8105285,40.1203583 58.8271898,40.2815361 58.8609291,40.5106001 C58.8782153,40.6547022 58.9038321,40.9008419 58.9542327,40.9855956 L58.5728957,40.9855956 C58.5639402,40.9010502 58.5045841,40.4427138 58.5045841,40.4175168 C58.4798003,40.3154792 58.445228,40.2648768 58.3181851,40.2648768 L58.0045348,40.2648768 L58.0045348,40.9855956 L57.6563123,40.9855956 L57.6563123,39.1870264 L57.656104,39.1870264 Z M57.9959959,39.9758397 L58.2756986,39.9758397 C58.5043758,39.9758397 58.5472789,39.8148701 58.5472789,39.7215786 C58.5472789,39.4752306 58.3773329,39.4752306 58.2840293,39.4752306 L57.9959959,39.4752306 L57.9959959,39.9758397 Z"/>
    <path fill="#333" d="M20.3103448,18.9594896 C20.3103448,18.5767394 20.103044,18.2249669 19.7631049,18.0353589 L10.7019845,12.9677131 C10.5488086,12.8801858 10.3770206,12.8346549 10.2030933,12.8275862 C10.1874763,12.8275862 10.1222268,12.8275862 10.1093908,12.8275862 C9.93631924,12.834447 9.76453126,12.8799779 9.60900217,12.9677131 L0.547881703,18.0353589 C0.210081934,18.2249669 0,18.5767394 0,18.9594896 L0.0198957432,32.6052305 C0.0198957432,32.7948384 0.121299854,32.9715563 0.29308783,33.0644892 C0.46123895,33.1624117 0.669181557,33.1624117 0.836690878,33.0644892 L6.22180537,30.0677693 C6.56238627,29.8713005 6.76968708,29.5243097 6.76968708,29.1450939 L6.76968708,22.7697356 C6.76968708,22.3896881 6.97677395,22.0379155 7.31607125,21.8491392 L9.60900217,20.5657514 C9.77993442,20.469908 9.96669769,20.4229218 10.1575257,20.4229218 C10.344075,20.4229218 10.5357587,20.469908 10.7017705,20.5657514 L12.9940596,21.8491392 C13.3333569,22.0381235 13.5412995,22.389896 13.5412995,22.7697356 L13.5412995,29.1450939 C13.5412995,29.5243097 13.7513815,29.8733796 14.089823,30.0677693 L19.47344,33.0644892 C19.6422329,33.1624117 19.8531706,33.1624117 20.0206799,33.0644892 C20.1875474,32.9713484 20.2925884,32.7948384 20.2925884,32.6052305 L20.3103448,18.9594896 Z"/>
    <path fill="#333" fill-rule="nonzero" d="M62.4609675,0.0670068978 C62.2913938,-0.0242954477 62.0846124,-0.0222250997 61.9171771,0.0728038722 C61.7501695,0.168039879 61.6473134,0.341742074 61.6473134,0.529522634 L61.6473134,13.9867844 C61.6473134,14.1190797 61.5741808,14.2416443 61.4561421,14.3078954 C61.3376758,14.3741465 61.1916244,14.3741465 61.0729442,14.3078954 L58.8045494,13.0424987 C58.4660437,12.853683 58.0497008,12.8540971 57.7114089,13.0429128 L48.65066,18.1055347 C48.3119404,18.2947645 48.1034483,18.6444463 48.1034483,19.0226988 L48.1034483,29.150013 C48.1034483,29.5284726 48.3119404,29.8779473 48.6504462,30.0675912 L57.7107674,35.1339397 C58.049487,35.3231695 58.4664713,35.3231695 58.8051909,35.1339397 L67.8667952,30.0675912 C68.2053009,29.8781544 68.4137931,29.5284726 68.4137931,29.150013 L68.4137931,3.90501797 C68.4137931,3.52117545 68.1993135,3.16693891 67.8526819,2.97977946 L62.4609675,0.0670068978 Z M61.6203698,25.8225497 C61.6203698,25.9169576 61.5681933,26.0045333 61.4835134,26.0515302 L58.3725964,27.787724 C58.2881304,27.8347209 58.1839912,27.8347209 58.0995251,27.787724 L54.9886081,26.0515302 C54.9039282,26.0045333 54.8517517,25.9169576 54.8517517,25.8225497 L54.8517517,22.3445722 C54.8517517,22.2501643 54.9039282,22.1625886 54.9883943,22.1151776 L58.0993113,20.3754642 C58.1839912,20.3280532 58.2883442,20.3280532 58.3730241,20.3754642 L61.4839411,22.1151776 C61.5684071,22.1625886 61.6205836,22.2501643 61.6205836,22.3445722 L61.6203698,25.8225497 Z"/>
    <g transform="translate(72.69 12.828)">
      <path fill="#333" d="M19.7033617,9.60024201 C20.0367899,9.41180006 20.242009,9.0645726 20.242009,8.68913034 L20.242009,6.24782885 C20.242009,5.87238659 20.0367899,5.52495318 19.7029386,5.33651123 L10.7962177,0.302536855 C10.461097,0.112859222 10.0472737,0.112653274 9.71151832,0.301095223 L0.750424928,5.33712907 C0.415515805,5.52536507 0.209238865,5.87300443 0.209238865,6.24947643 L0.209238865,16.3209263 C0.209238865,16.6996637 0.418054598,17.0491566 0.755925647,17.2363629 L9.66137716,22.1760133 C9.98972773,22.3584828 10.392338,22.3605422 10.7228042,22.1817798 L16.1092769,19.267417 C16.2802223,19.1749465 16.3866401,19.0003031 16.3874864,18.8104195 C16.3889673,18.6205359 16.2850884,18.4446568 16.1158355,18.3499209 L7.09783082,13.3114157 C6.92942421,13.2175036 6.82596839,13.0428602 6.82596839,12.8542123 L6.82596839,9.69786112 C6.82596839,9.50962512 6.92900108,9.33539355 7.09677299,9.24148149 L9.90340876,7.66639513 C10.0703344,7.57248307 10.2768229,7.57248307 10.4437486,7.66639513 L13.2518653,9.24148149 C13.4196372,9.33539355 13.5226699,9.50962512 13.5226699,9.69786112 L13.5226699,12.1811759 C13.5226699,12.3698238 13.6263373,12.5440554 13.7938976,12.6379674 C13.9616695,12.7322914 14.1683696,12.7314676 14.3357184,12.6369377 L19.7033617,9.60024201 Z"/>
      <path fill="#699F63" d="M10.121745,9.12841632 C10.1860611,9.09216957 10.2651868,9.09216957 10.3295029,9.12841632 L12.0495352,10.09431 C12.1138513,10.1305568 12.1534142,10.1970778 12.1534142,10.2695713 L12.1534142,12.2030063 C12.1534142,12.2754998 12.1138513,12.3420209 12.0495352,12.3782676 L10.3295029,13.3441613 C10.2651868,13.3804081 10.1860611,13.3804081 10.121745,13.3441613 L8.40298204,12.3782676 C8.33866595,12.3420209 8.29910309,12.2754998 8.29910309,12.2030063 L8.29910309,10.2695713 C8.29910309,10.1970778 8.33866595,10.1305568 8.40298204,10.09431 L10.121745,9.12841632 Z"/>
    </g>
    <g transform="translate(24.586 12.828)">
      <path fill="url(#nodejs-a)" d="M10.7153103,0.149031609 C10.3788,-0.039908046 9.96404138,-0.039908046 9.62774483,0.149031609 L0.619786207,5.20280364 C0.282848276,5.3917433 0.0754689655,5.74073084 0.0754689655,6.11902586 L0.0754689655,16.2344684 C0.0754689655,16.6123477 0.282848276,16.9613352 0.619358621,17.1506906 L9.62731724,22.2086197 C9.96404138,22.3975594 10.3788,22.3975594 10.7157379,22.2086197 L19.7215586,17.1506906 C20.058069,16.9615431 20.2652345,16.6123477 20.2652345,16.2344684 L20.2652345,6.11861015 C20.2652345,5.74073084 20.0578552,5.3917433 19.721131,5.20280364 L10.7153103,0.149031609 Z"/>
      <mask id="nodejs-c" fill="#fff">
        <use xlink:href="#nodejs-b"/>
      </mask>
      <g mask="url(#nodejs-c)">
        <path d="M9.60871724.149031609L.581944828 5.20280364C.245006897 5.3917433 0 5.74073084 0 6.11902586L0 16.2344684C0 16.4845172.109889655 16.7206398.280710345 16.907501L10.4230552.0397001916C10.1506828-.025566092 9.85607586.0101848659 9.60871724.149031609zM10.4732966 22.3108841C10.5609517 22.2873966 10.646469 22.2537241 10.7268552 22.2086197L19.7440069 17.1506906C20.0805172 16.9615431 20.3103448 16.6123477 20.3103448 16.2344684L20.3103448 6.11861015C20.3103448 5.84050096 20.1824966 5.57860441 19.9811034 5.38405268L10.4732966 22.3108841z"/>
        <path fill="url(#nodejs-d)" d="M19.7388759,5.20280364 L10.7056897,0.149031609 C10.6165379,0.0989386973 10.5211862,0.0631877395 10.4230552,0.0397001916 L0.280710345,16.907501 C0.368151724,17.003114 0.470558621,17.0864636 0.584296552,17.1504828 L9.63266207,22.2084119 C9.889,22.3522471 10.1936552,22.3859195 10.4730828,22.3106762 L19.9811034,5.38384483 C19.9088414,5.31442146 19.8278138,5.2526887 19.7388759,5.20280364 Z"/>
      </g>
      <mask id="nodejs-f" fill="#fff">
        <use xlink:href="#nodejs-e"/>
      </mask>
      <g mask="url(#nodejs-f)">
        <g transform="translate(0 -1.87)">
          <path d="M20.3103448 18.105158L20.3103448 7.98929981C20.3103448 7.6114205 20.0756 7.26243295 19.7388759 7.0734933L10.7056897 2.01972126C10.602 1.96152203 10.4895448 1.92348467 10.3740966 1.9010364L20.2763517 18.3481398C20.2975172 18.269363 20.3103448 18.1882998 20.3103448 18.105158zM.581944828 7.0734933C.245006897 7.26243295 0 7.6114205 0 7.98971552L0 18.105158C0 18.4830374.248 18.8320249.584296552 19.0213803L9.63266207 24.0793094C9.84538621 24.1986178 10.0914621 24.2422672 10.3287724 24.2106734L.636034483 7.04314655.581944828 7.0734933z"/>
          <polygon fill="url(#nodejs-g)" points="9.327 .162 9.203 .231 9.369 .231"/>
          <path fill="url(#nodejs-h)" d="M19.7440069,19.0213803 C20.0065448,18.8738036 20.2023793,18.6283276 20.2765655,18.3483477 L10.3743103,1.90124425 C10.1158345,1.85115134 9.84153793,1.8891887 9.60871724,2.01992912 L0.636248276,7.04335441 L10.3289862,24.2108812 C10.4673103,24.19259 10.6028552,24.1489406 10.7268552,24.0795172 L19.7440069,19.0213803 Z"/>
          <polygon fill="url(#nodejs-i)" points="20.584 18.859 20.524 18.759 20.524 18.892"/>
          <path fill="url(#nodejs-j)" d="M19.7440069,19.0213803 L10.7268552,24.0793094 C10.6028552,24.1489406 10.4673103,24.1923822 10.3289862,24.2106734 L10.5085724,24.5286906 L20.5241379,18.8923027 L20.5241379,18.7594837 L20.2765655,18.3483477 C20.2023793,18.6283276 20.0065448,18.8735958 19.7440069,19.0213803 Z"/>
          <path fill="url(#nodejs-k)" d="M19.7440069,19.0213803 L10.7268552,24.0793094 C10.6028552,24.1489406 10.4673103,24.1923822 10.3289862,24.2106734 L10.5085724,24.5286906 L20.5241379,18.8923027 L20.5241379,18.7594837 L20.2765655,18.3483477 C20.2023793,18.6283276 20.0065448,18.8735958 19.7440069,19.0213803 Z"/>
        </g>
      </g>
    </g>
  </g>
</svg>
