<svg xmlns="http://www.w3.org/2000/svg" width="93" height="93" viewBox="0 0 93 93">
  <g fill="none" fill-rule="evenodd" transform="translate(6)">
    <polygon fill="#FFF" points="41 0 82 23.247 82 69.753 41 93 0 69.753 0 23.247"/>
    <path fill="#8ED6FB" fill-rule="nonzero" d="M74.7831467,67.6578108 L42.4213318,86 L42.4213318,71.717322 L62.5851503,60.6014878 L74.7831467,67.6578108 Z M77,65.6493092 L77,27.2964931 L65.16264,34.1509033 L65.16264,58.805526 L77,65.6493092 Z M7.21685327,67.6578108 L39.5786682,86 L39.5786682,71.717322 L19.4042428,60.6014878 L7.21685327,67.6578108 Z M5,65.6493092 L5,27.2964931 L16.83736,34.1509033 L16.83736,58.805526 L5,65.6493092 Z M6.3895109,24.8097768 L39.5786682,6 L39.5786682,19.8044633 L18.3117266,31.5260361 L18.1420153,31.6216791 L6.3895109,24.8097768 Z M75.6104891,24.8097768 L42.4213318,6 L42.4213318,19.8044633 L63.6882734,31.5154091 L63.8579847,31.6110521 L75.6104891,24.8097768 Z"/>
    <path fill="#1C78C0" fill-rule="nonzero" d="M39.0666667,69 L19,58.0768523 L19,36.4528302 L39.0666667,47.9157846 L39.0666667,69 Z M41.9333333,69 L62,58.0874367 L62,36.4528302 L41.9333333,47.9157846 L41.9333333,69 Z M20.3584577,33.9549011 L40.5,23 L60.6415423,33.9549011 L40.5,45.4601933 L20.3584577,33.9549011 Z"/>
  </g>
</svg>
